<?xml version="1.0" standalone="no"?>
<!DOCTYPE svg PUBLIC "-//W3C//DTD SVG 1.1//EN" "http://www.w3.org/Graphics/SVG/1.1/DTD/svg11.dtd" >
<svg xmlns="http://www.w3.org/2000/svg" xmlns:xlink="http://www.w3.org/1999/xlink" version="1.1">
<metadata></metadata>
<defs>
<font id="gestaregular" horiz-adv-x="1133" >
<font-face units-per-em="2048" ascent="1497" descent="-551" />
<missing-glyph horiz-adv-x="508" />
<glyph unicode="&#xfb01;" horiz-adv-x="1213" d="M79 910v115l151 9v131q0 165 68 236.5t233 71.5q62 0 161 -9l-9 -137q-74 6 -137 6q-94 0 -126.5 -34.5t-32.5 -138.5v-119h656v-1041h-157v910h-499v-910h-157v910h-151zM886 1253v198h157v-198h-157z" />
<glyph unicode="&#xfb02;" horiz-adv-x="1182" d="M79 910v115l151 9v131q0 165 68 236.5t233 71.5q62 0 161 -9l-9 -137q-74 6 -137 6q-94 0 -126.5 -34.5t-32.5 -138.5v-119h235v-131h-235v-910h-157v910h-151zM851 0v1451h159v-1451h-159z" />
<glyph unicode="fj" horiz-adv-x="1213" d="M79 910v115l151 9v131q0 165 68 236.5t233 71.5q62 0 161 -9l-9 -137q-74 6 -137 6q-94 0 -126.5 -34.5t-32.5 -138.5v-119h656v-964q0 -151 -32 -275.5t-85 -211.5h-146q54 126 80 232.5t26 254.5v833h-499v-910h-157v910h-151zM886 1253v198h157v-198h-157z" />
<glyph horiz-adv-x="0" />
<glyph horiz-adv-x="682" />
<glyph unicode=" "  horiz-adv-x="508" />
<glyph unicode="&#x09;" horiz-adv-x="508" />
<glyph unicode="&#xa0;" horiz-adv-x="508" />
<glyph unicode="!" horiz-adv-x="602" d="M202 1451h196l-44 -1045h-106zM209 0v194h183v-194h-183z" />
<glyph unicode="&#x22;" horiz-adv-x="675" d="M103 1496h168q0 -157 -15 -286.5t-39 -195.5h-60q-22 66 -37 195.5t-17 286.5zM406 1496h166q0 -157 -15 -286.5t-39 -195.5h-58q-23 66 -37.5 195.5t-16.5 286.5z" />
<glyph unicode="#" horiz-adv-x="1371" d="M79 421l20 106h262l76 397h-261l20 106h262l80 421h113l-81 -421h347l81 421h113l-81 -421h261l-21 -106h-260l-77 -397h261l-20 -106h-262l-80 -421h-114l82 421h-347l-81 -421h-112l80 421h-261zM473 527h347l76 397h-346z" />
<glyph unicode="$" horiz-adv-x="1217" d="M146 1084q0 168 105 264.5t297 117.5v210h157v-205q150 -6 329 -45l-24 -140q-204 41 -359 41q-75 0 -134.5 -12.5t-105.5 -38.5t-70.5 -71t-24.5 -106q0 -37 10 -68t23.5 -53.5t42.5 -44t51 -34.5t64.5 -29t68.5 -24.5t77 -23.5q24 -8 37 -11q1 -1 5 -2 q57 -18 86.5 -27.5t80 -30.5t77.5 -40t62.5 -50.5t53.5 -67t31 -85.5t13 -110q0 -179 -102 -282t-292 -129v-213h-157v204q-196 3 -400 47l26 140q213 -41 383 -41q374 0 374 270q0 38 -9 70t-22 55.5t-41 45t-51.5 35.5t-69 30.5t-78.5 27t-95 27.5q-58 18 -102 33.5 t-89.5 36.5t-78 43t-62.5 51t-48 63t-28.5 77.5t-10.5 94.5z" />
<glyph unicode="%" horiz-adv-x="1610" d="M97 1129q0 163 79 253.5t230 90.5q153 0 231.5 -90.5t78.5 -253.5t-79 -253t-231 -90q-101 0 -171 41.5t-104 118t-34 183.5zM228 1129q0 -115 41.5 -174t136.5 -59q64 0 104.5 28.5t57.5 78.5t17 126q0 114 -42 174t-137 60t-136.5 -60t-41.5 -174zM299 0l868 1451h133 l-868 -1451h-133zM892 320q0 108 34.5 184.5t104 118t170.5 41.5q153 0 231.5 -90t78.5 -254q0 -162 -78.5 -252t-231.5 -90q-151 0 -230 90t-79 252zM1023 320q0 -114 41.5 -173t136.5 -59t137 59t42 173q0 115 -42 174.5t-136.5 59.5t-136.5 -59.5t-42 -174.5z" />
<glyph unicode="&#x26;" horiz-adv-x="1270" d="M110 389q0 145 58 241t172 131v5q-198 75 -198 318q0 102 35.5 178t101.5 121.5t153 67.5t196 22q177 0 395 -47l-25 -140q-227 41 -360 41q-57 0 -102 -6t-88.5 -23t-72.5 -44.5t-46.5 -74t-17.5 -109.5q0 -131 78.5 -187t250.5 -56h644v-137h-180v-296 q0 -416 -500 -416q-118 0 -207.5 23t-154.5 71t-98.5 128t-33.5 189zM279 410q0 -84 22.5 -141t67 -88t100.5 -44t135 -13q179 0 259.5 64.5t80.5 209.5v292h-316q-189 0 -269 -65.5t-80 -214.5z" />
<glyph unicode="'" horiz-adv-x="372" d="M103 1496h168q0 -157 -15 -286.5t-39 -195.5h-60q-22 66 -37 195.5t-17 286.5z" />
<glyph unicode="(" horiz-adv-x="551" d="M144 533.5q0 140.5 15.5 263.5t51 244.5t99 231t152.5 200.5l45 -27q-61 -83 -102.5 -183t-63.5 -218t-31 -238.5t-9 -272.5q0 -121 5.5 -220t19.5 -199.5t36.5 -184t59 -162.5t85.5 -146l-45 -28q-89 91 -152.5 200.5t-99 231t-51 244.5t-15.5 263.5z" />
<glyph unicode=")" horiz-adv-x="551" d="M45 -378q61 83 102 182.5t63 217.5t31 238.5t9 273t-9 273t-31 238.5t-63 218t-102 183l45 27q90 -91 153 -200.5t98.5 -231t51 -244.5t15.5 -263.5t-15.5 -263.5t-51 -244.5t-98.5 -231t-153 -200.5z" />
<glyph unicode="*" horiz-adv-x="770" d="M101 1038l198 116l-198 114l43 67l198 -114v230h84v-230l198 114l43 -67l-198 -114l198 -116l-43 -67l-198 115v-230h-84v230l-198 -115z" />
<glyph unicode="+" horiz-adv-x="1445" d="M200 462v119h456v460h133v-460h454v-119h-454v-462h-133v462h-456z" />
<glyph unicode="," horiz-adv-x="548" d="M183 -260q26 122 26 245q0 107 -20 193l174 9q4 -25 4 -81q0 -200 -124 -372z" />
<glyph unicode="-" horiz-adv-x="679" d="M101 494v125h475v-125h-475z" />
<glyph unicode="." horiz-adv-x="542" d="M183 0v194h180v-194h-180z" />
<glyph unicode="/" horiz-adv-x="819" d="M52 0l574 1451h142l-574 -1451h-142z" />
<glyph unicode="0" horiz-adv-x="1317" d="M142 725q0 105 6 188.5t21 163t40.5 139t65 109.5t93 81.5t126.5 49t164 17.5q79 0 144.5 -13t116 -39t89.5 -61.5t67 -86t47 -106.5t29.5 -128.5t15.5 -147t5 -166.5q0 -105 -6 -188.5t-21.5 -163t-40.5 -138.5t-64.5 -109.5t-93 -81.5t-125.5 -48.5t-163 -17.5 t-164 17.5t-126.5 48.5t-93 81.5t-65 109.5t-40.5 138.5t-21 163t-6 188.5zM309 725q0 -89 2.5 -150.5t11 -129.5t23.5 -112.5t40.5 -87.5t62 -67t89 -39t120.5 -15q52 0 95 9t76.5 24t59.5 41t44 54.5t31 70t21 82t12.5 96t5.5 106t1 118.5t-1 118.5t-5.5 106t-12.5 96 t-21 82t-31 70t-44 54.5t-59 41.5t-76.5 24.5t-95.5 9q-53 0 -96.5 -9t-77 -24.5t-59.5 -41.5t-44.5 -54.5t-31.5 -70t-20.5 -82t-12 -96t-6 -106t-1.5 -118.5z" />
<glyph unicode="1" horiz-adv-x="864" d="M69 1277l372 174h156v-1451h-167v1286l-310 -119z" />
<glyph unicode="2" horiz-adv-x="1144" d="M92 1367q94 45 211 75.5t231 30.5q99 0 181 -25.5t143 -75t95 -127.5t34 -177q0 -69 -18 -138t-46 -130t-78 -130t-99 -125.5t-125 -130t-139 -130t-158 -138.5h701v-146h-924v122q98 86 166 148t149 140.5t135 138.5t108.5 131t86.5 131t51.5 124t19.5 124 q0 127 -78.5 197.5t-220.5 70.5q-89 0 -191.5 -26.5t-184.5 -64.5z" />
<glyph unicode="3" horiz-adv-x="1078" d="M58 1367q85 46 210 76t237 30q94 0 172.5 -23t138.5 -69t94 -121t34 -172q0 -242 -205 -320q237 -68 237 -362q0 -428 -507 -428q-197 0 -394 47l24 140q204 -41 352 -41q65 0 116 7.5t97 27t76.5 52t48 84.5t17.5 122q0 79 -21.5 132t-66 82.5t-102.5 41.5t-141 12h-153 v144h151q73 0 125 11t94 37.5t63 75t21 119.5q0 132 -69 193.5t-204 61.5q-66 0 -142 -13.5t-140 -33.5t-113 -44z" />
<glyph unicode="4" horiz-adv-x="1229" d="M65 284v122q226 417 610 1045h179q-337 -547 -602 -1021h507l21 348h146v-348h280v-146h-280v-284h-167v284h-694z" />
<glyph unicode="5" horiz-adv-x="1159" d="M126 22l22 145q49 -10 111.5 -19.5t136.5 -16.5t133 -7q64 0 113.5 8t95.5 29t76.5 56t48.5 91.5t18 132.5q0 81 -20 138t-61.5 91t-100 49.5t-140.5 15.5h-413l26 716h795v-146h-645l-13 -426h276q464 0 464 -438q0 -463 -520 -463q-174 0 -403 44z" />
<glyph unicode="6" horiz-adv-x="1238" d="M142 694q0 101 7 186t24.5 166.5t45.5 145t70.5 117.5t99.5 89.5t133 55t170 19.5q84 0 179 -14t167 -36l-26 -139q-181 43 -298 43q-92 0 -160 -22.5t-112.5 -63t-72 -106.5t-40 -144t-15.5 -185q89 36 190 55.5t190 19.5q137 0 234 -47t151 -146t54 -245 q0 -225 -126.5 -345t-364.5 -120q-114 0 -199 29.5t-142.5 85.5t-93 144.5t-50.5 199t-15 257.5zM311 680q1 -72 4 -129.5t11 -112t20.5 -96t31.5 -78t44.5 -61.5t59.5 -43.5t77.5 -27t96.5 -8.5q154 0 231.5 76.5t77.5 238.5q0 73 -16 127t-52.5 95t-99 62t-150.5 21 q-141 0 -336 -64z" />
<glyph unicode="7" horiz-adv-x="1006" d="M45 1305v146h926v-110q-223 -606 -534 -1341h-171q313 715 529 1305h-750z" />
<glyph unicode="8" horiz-adv-x="1256" d="M126 389q0 83 22.5 149t62.5 109.5t89.5 71t109.5 40.5q-55 13 -99.5 39t-79.5 65.5t-54.5 97.5t-19.5 129q0 178 119.5 280.5t351.5 102.5t350.5 -102.5t118.5 -280.5q0 -139 -69 -221.5t-183 -109.5q60 -13 110 -40.5t89.5 -71.5t62 -110t22.5 -150q0 -195 -125.5 -302 t-375.5 -107t-376 107.5t-126 303.5zM295 398q0 -274 333 -274q331 0 331 274q0 76 -24 131.5t-69 89t-104 49t-134 15.5t-134.5 -15.5t-105 -49t-69.5 -89t-24 -131.5zM327 1081q0 -69 22.5 -119t64 -79t94.5 -42.5t120 -13.5t120 13.5t94.5 42.5t63.5 79t22 119 q0 246 -300 246q-153 0 -227 -61.5t-74 -184.5z" />
<glyph unicode="9" horiz-adv-x="1238" d="M103 1006q0 226 128 346.5t366 120.5q114 0 198 -29t141.5 -85t92.5 -145t50 -200t15 -259q0 -102 -6.5 -186t-23.5 -165t-44.5 -144.5t-70.5 -117.5t-99.5 -89.5t-133 -55t-170.5 -19.5q-85 0 -180.5 14t-167.5 36l28 139q181 -43 296 -43q92 0 159.5 22.5t112.5 63 t73 106.5t41 144t16 185q-59 -25 -127.5 -42.5t-131 -25t-119.5 -7.5q-209 0 -326 109.5t-117 326.5zM273 1012q0 -73 16.5 -127t52.5 -95t98.5 -62t150.5 -21q154 0 335 63q0 116 -9 199t-32 154t-61 113.5t-98 66.5t-143 24q-102 0 -170.5 -33t-104 -103.5t-35.5 -178.5z " />
<glyph unicode=":" horiz-adv-x="587" d="M205 0v194h180v-194h-180zM205 847v194h180v-194h-180z" />
<glyph unicode=";" horiz-adv-x="607" d="M212 847v194h180v-194h-180zM214 -260q27 123 27 245q0 107 -20 193l173 9q4 -25 4 -81q0 -201 -123 -372z" />
<glyph unicode="&#x3c;" horiz-adv-x="1128" d="M200 469v116q276 190 728 479v-163q-381 -239 -574 -367v-9q193 -129 574 -368v-166q-475 304 -728 478z" />
<glyph unicode="=" horiz-adv-x="1324" d="M200 250v126h922v-126h-922zM200 664v127h922v-127h-922z" />
<glyph unicode="&#x3e;" horiz-adv-x="1128" d="M200 -9v162q400 250 576 367v9q-176 117 -576 367v168q453 -289 728 -479v-116q-253 -174 -728 -478z" />
<glyph unicode="?" horiz-adv-x="929" d="M41 1374q78 45 177.5 72t198.5 27q87 0 160.5 -23t129.5 -67.5t88 -115.5t32 -163q0 -36 -6 -69.5t-13.5 -59.5t-24.5 -55.5t-29 -48t-37.5 -46.5t-39.5 -42.5t-45 -45.5q-55 -55 -84 -88.5t-53.5 -75t-33.5 -83t-10 -98.5h-142q0 65 9 118t23.5 93t43 81.5t56.5 73 t75 78.5q29 29 44 45.5t37 44.5t33 51.5t19.5 56t8.5 67.5q0 110 -68 168t-186 58q-77 0 -159.5 -22.5t-147.5 -58.5zM295 0v194h182v-194h-182z" />
<glyph unicode="@" horiz-adv-x="1668" d="M108 723q0 381 181 565.5t545 184.5q362 0 544.5 -183.5t182.5 -559.5q0 -152 -31 -248t-95.5 -141.5t-166.5 -45.5q-154 0 -221 103q-78 -54 -144 -78.5t-140 -24.5q-159 0 -233.5 109t-74.5 316q0 230 88 336.5t268 106.5q154 0 331 -82v-443q0 -119 30.5 -169 t102.5 -50q38 0 64.5 13t46.5 46t30 93t10 149q0 332 -141.5 482t-448.5 150q-207 0 -336.5 -65.5t-192 -204t-62.5 -359.5q0 -329 140.5 -480t443.5 -151q187 0 370 56l31 -116q-183 -62 -405 -62q-717 0 -717 753zM608 723q0 -158 43 -228.5t144 -70.5q107 0 211 67 q-13 51 -13 128v393q-86 22 -178 22q-73 0 -117 -28t-67 -96.5t-23 -186.5z" />
<glyph unicode="A" horiz-adv-x="1243" d="M41 0q195 703 464 1451h234q269 -748 464 -1451h-176q-40 156 -99 361h-619q-72 -252 -100 -361h-168zM351 507h535q-105 351 -262 800h-11q-157 -449 -262 -800z" />
<glyph unicode="B" horiz-adv-x="1299" d="M191 0v1438q283 33 462 33q120 0 210 -20t156 -64t99.5 -117t33.5 -176q0 -259 -210 -324v-7q124 -36 185.5 -120.5t61.5 -236.5q0 -96 -25 -168t-70.5 -120t-116 -77.5t-154 -41.5t-191.5 -12q-122 0 -441 13zM359 138q103 -5 305 -5q67 0 117.5 6.5t97.5 24.5 t76.5 48.5t47.5 80t18 117.5q0 78 -22 133t-65 86t-97.5 45t-126.5 14h-351v-550zM359 825h344q141 0 210 55.5t69 189.5q0 62 -14.5 106.5t-41.5 73t-71 45t-96 23t-123 6.5q-135 0 -277 -13v-486z" />
<glyph unicode="C" horiz-adv-x="1193" d="M106 725q0 350 135 537q44 60 99 102t118.5 65.5t128.5 33.5t141 10q188 0 364 -45l-26 -142q-186 41 -336 41q-252 0 -358 -158q-97 -144 -97 -446q0 -293 95 -439q102 -160 331 -160q96 0 199.5 25t193.5 65l52 -133q-96 -49 -218.5 -76t-235.5 -27q-315 0 -458 207 q-128 185 -128 540z" />
<glyph unicode="D" horiz-adv-x="1382" d="M191 2v1434q229 35 419 35q351 0 513.5 -179t162.5 -572q0 -198 -40.5 -336.5t-129 -227.5t-222.5 -129t-326 -40q-213 0 -377 15zM359 138q90 -5 243 -5q107 0 187.5 18.5t144 60t103.5 110t60.5 167.5t20.5 234q0 167 -31.5 282t-98 186t-163 102t-234.5 31 q-125 0 -232 -13v-1173z" />
<glyph unicode="E" horiz-adv-x="1116" d="M191 0v1451h830v-146h-662v-480h555v-147h-555v-532h662v-146h-830z" />
<glyph unicode="F" horiz-adv-x="1085" d="M191 0v1451h830v-146h-662v-512h561v-146h-561v-647h-168z" />
<glyph unicode="G" horiz-adv-x="1337" d="M108 725q0 352 142 541q83 111 206.5 159t289.5 48q180 0 394 -47l-22 -140q-186 41 -359 41q-57 0 -105 -6.5t-100 -22.5t-97 -49t-79 -82q-101 -144 -101 -439q0 -319 112 -464q107 -140 323 -140q159 0 304 63v548h164v-627q-71 -42 -153 -71.5t-166 -44t-167 -14.5 q-279 0 -423 170q-163 189 -163 577z" />
<glyph unicode="H" horiz-adv-x="1434" d="M191 0v1451h168v-626h720v626h167v-1451h-167v678h-720v-678h-168z" />
<glyph unicode="I" horiz-adv-x="548" d="M191 0v1451h168v-1451h-168z" />
<glyph unicode="J" horiz-adv-x="853" d="M18 -2l16 142q106 -16 196 -16q157 0 219 70q21 24 33.5 62t16.5 78t4 98v1019h164v-1034q0 -233 -88 -333q-54 -60 -135.5 -83t-193.5 -23q-124 0 -232 20z" />
<glyph unicode="K" horiz-adv-x="1249" d="M191 0v1451h168v-649q360 329 643 649h212q-367 -393 -664 -660q337 -410 705 -791h-232q-286 303 -591 692h-73v-692h-168z" />
<glyph unicode="L" horiz-adv-x="1049" d="M191 0v1451h168v-1305h653v-146h-821z" />
<glyph unicode="M" horiz-adv-x="1718" d="M162 0q21 578 70 1451h248l374 -1014h11l374 1014h250q41 -669 70 -1451h-169q-16 460 -55 1264h-11l-369 -1002h-194l-369 1002h-11q-42 -885 -54 -1264h-165z" />
<glyph unicode="N" horiz-adv-x="1504" d="M191 0v1451h256l690 -1264h11v1264h165v-1451h-254l-692 1264h-11v-1264h-165z" />
<glyph unicode="O" horiz-adv-x="1449" d="M106 725q0 375 153 561.5t466 186.5t466.5 -186.5t153.5 -561.5t-153.5 -561t-466.5 -186t-466 186t-153 561zM275 725q0 -314 111 -457.5t339 -143.5t339.5 143.5t111.5 457.5t-111.5 458t-339.5 144t-339 -144t-111 -458z" />
<glyph unicode="P" horiz-adv-x="1223" d="M191 0v1440q241 31 439 31q100 0 178 -11.5t147 -41.5t114.5 -78t71.5 -124.5t26 -179.5q0 -110 -30 -194.5t-79.5 -137t-121.5 -86t-147.5 -46.5t-164.5 -13q-100 0 -265 15v-574h-168zM359 714q108 -9 215 -9q78 0 136.5 7t115 27.5t92.5 56t58 94.5t22 140 q0 87 -24 145t-75 90.5t-118 45.5t-166 13q-128 0 -256 -13v-597z" />
<glyph unicode="Q" horiz-adv-x="1459" d="M106 720q0 379 154 566t468 187q315 0 469.5 -185.5t154.5 -557.5q0 -381 -161 -563q-43 -49 -96.5 -83t-111 -51.5t-108 -25t-109.5 -9.5v-5q191 -34 421 -148l-78 -156q-114 68 -238.5 128t-208 94.5t-168 76t-138.5 81.5q-57 43 -101 98t-78.5 132t-52.5 183.5 t-18 237.5zM275 725q0 -314 112.5 -457.5t340.5 -143.5q230 0 342 143.5t112 457.5t-112 458t-342 144q-228 0 -340.5 -144t-112.5 -458z" />
<glyph unicode="R" horiz-adv-x="1260" d="M191 0v1440q249 31 441 31q95 0 168.5 -11t140.5 -39t110.5 -73.5t69 -117.5t25.5 -168q0 -181 -86 -285t-260 -141q141 -274 374 -636h-200q-196 328 -338 615q-200 0 -277 4v-619h-168zM359 759q58 -4 168 -4q248 0 349.5 66t101.5 233q0 63 -13.5 109.5t-39.5 77.5 t-68 49.5t-94 26t-123 7.5q-146 0 -281 -13v-552z" />
<glyph unicode="S" horiz-adv-x="1087" d="M81 1084q0 189 130 289t363 100q176 0 376 -47l-24 -140q-203 41 -350 41q-73 0 -131 -12.5t-103.5 -38.5t-69.5 -71t-24 -106q0 -37 9.5 -68t23 -53.5t42 -44t49.5 -34.5t63 -29t67.5 -24t75.5 -24q24 -7 37 -11q5 -2 14 -5q53 -17 80.5 -26.5t75.5 -30t74.5 -39.5 t60.5 -50.5t51.5 -67t30 -86t12.5 -110.5q0 -208 -136.5 -313t-389.5 -105q-184 0 -402 47l22 140q80 -16 186 -28.5t190 -12.5q363 0 363 268q0 27 -3.5 50.5t-12 43.5t-17.5 36.5t-26 31.5t-32 26.5t-40.5 24t-46 21t-54.5 20t-59.5 19.5t-67.5 20q-80 25 -137 47.5 t-111 56t-86.5 73.5t-52.5 95.5t-20 126.5z" />
<glyph unicode="T" horiz-adv-x="1152" d="M52 1305v146h1049v-146h-441v-1305h-166v1305h-442z" />
<glyph unicode="U" horiz-adv-x="1427" d="M176 520v931h166v-910q0 -92 12.5 -159t38.5 -117.5t70 -80.5t105.5 -45t145.5 -15q105 0 175 22.5t114.5 73.5t63.5 128.5t19 192.5v910h167v-931q0 -136 -29.5 -235.5t-93.5 -169t-167.5 -103.5t-248.5 -34t-248 34t-167 103.5t-93.5 169t-29.5 235.5z" />
<glyph unicode="V" horiz-adv-x="1232" d="M41 1451h176q196 -731 396 -1307h6q205 590 397 1307h171q-196 -717 -457 -1451h-232q-265 748 -457 1451z" />
<glyph unicode="W" horiz-adv-x="1977" d="M63 1451h169q126 -694 318 -1305h13q173 651 302 1305h250q129 -654 302 -1305h13q192 611 318 1305h165q-128 -726 -372 -1451h-239q-200 752 -309 1296h-11q-109 -544 -309 -1296h-239q-244 725 -371 1451z" />
<glyph unicode="X" horiz-adv-x="1326" d="M75 0q190 305 490 741q-260 380 -464 710h198q125 -221 368 -574q240 350 369 574h192q-204 -330 -465 -710q287 -412 492 -741h-201q-191 319 -392 604q-215 -306 -394 -604h-193z" />
<glyph unicode="Y" horiz-adv-x="1243" d="M41 1451h182q179 -433 399 -784h4q222 356 399 784h178q-218 -499 -498 -929v-522h-167v522q-277 425 -497 929z" />
<glyph unicode="Z" horiz-adv-x="1173" d="M88 0v131l806 1174h-770v146h973v-131l-807 -1174h811v-146h-1013z" />
<glyph unicode="[" horiz-adv-x="605" d="M183 -367v1818h387v-127h-237v-1565h237v-126h-387z" />
<glyph unicode="\" horiz-adv-x="819" d="M52 1451h142l574 -1451h-142z" />
<glyph unicode="]" horiz-adv-x="605" d="M36 -241h237v1565h-237v127h388v-1818h-388v126z" />
<glyph unicode="^" horiz-adv-x="1369" d="M200 552q172 250 277 381q26 31 45 51t45 39.5t56 29t65 9.5q61 0 105.5 -31t98.5 -98q80 -98 277 -381h-163q-147 208 -226 304q-30 35 -50.5 50.5t-46.5 15.5q-25 0 -44.5 -15t-50.5 -51q-97 -117 -227 -304h-161z" />
<glyph unicode="_" horiz-adv-x="1150" d="M-7 -271h1167v-107h-1167v107z" />
<glyph unicode="`" horiz-adv-x="660" d="M97 1415l135 105l211 -340l-67 -54z" />
<glyph unicode="a" horiz-adv-x="1060" d="M86 299q0 66 19.5 119t54 90.5t84 62.5t108.5 36.5t128 11.5q107 0 261 -13v129q0 56 -16 94t-49 58t-74.5 28.5t-98.5 8.5q-154 0 -316 -45l-27 135q71 22 164.5 36t182.5 14q392 0 392 -312v-752h-121l-17 97q-64 -54 -153.5 -86.5t-181.5 -32.5q-152 0 -246 86 t-94 235zM245 304q0 -95 58 -148t159 -53q70 0 146 25.5t133 71.5v288q-146 10 -236 10q-43 0 -79.5 -5.5t-70.5 -19t-57.5 -35t-38 -56t-14.5 -78.5z" />
<glyph unicode="b" horiz-adv-x="1135" d="M174 47v1404h157v-480q70 46 139 69.5t152 23.5q202 0 296 -136t94 -414q0 -109 -14 -193t-44.5 -149.5t-80 -107.5t-119.5 -64t-163 -22q-97 0 -215 20t-202 49zM331 133q143 -25 243 -25q67 0 115 16.5t79.5 47.5t50 81t25.5 110.5t7 143.5q0 109 -12.5 184.5 t-42.5 129t-80.5 78.5t-124.5 25q-139 0 -260 -75v-716z" />
<glyph unicode="c" horiz-adv-x="965" d="M108 518q0 81 10 149.5t32.5 131t60 110t89 83t123 54t160.5 18.5q143 0 287 -34l-21 -131q-156 29 -258 29q-172 0 -247.5 -98.5t-75.5 -311.5q0 -69 7.5 -124t28 -108t53.5 -88t87.5 -56.5t127.5 -21.5q68 0 146 17.5t147 49.5l47 -127q-74 -36 -170.5 -59t-191.5 -23 q-114 0 -198.5 36.5t-138 106.5t-79.5 169t-26 228z" />
<glyph unicode="d" horiz-adv-x="1135" d="M124 520q0 279 100 411.5t319 132.5q118 0 261 -34v421h157v-1451h-121l-17 95q-75 -59 -149 -88t-167 -29q-131 0 -216.5 61.5t-126 180.5t-40.5 300zM284 525q0 -215 59 -311.5t198 -96.5q127 0 263 81v710q-160 25 -239 25q-80 0 -134 -24t-86.5 -76t-46.5 -126 t-14 -182z" />
<glyph unicode="e" horiz-adv-x="1026" d="M101 514q0 166 47.5 288.5t145 192t237.5 69.5q100 0 177 -36t124.5 -101t71.5 -151t24 -191q0 -67 -8 -121h-656q5 -81 24 -142t54.5 -107.5t93 -70.5t136.5 -24q138 0 302 78l52 -119q-179 -101 -369 -101q-215 0 -335.5 134.5t-120.5 401.5zM262 591h510q0 44 -5 83.5 t-16 78t-30 69t-45 54t-63.5 36t-83.5 12.5q-125 0 -192.5 -90.5t-74.5 -242.5z" />
<glyph unicode="f" horiz-adv-x="684" d="M79 910v115l151 9v131q0 165 68 236.5t233 71.5q62 0 161 -9l-9 -137q-74 6 -137 6q-94 0 -126.5 -34.5t-32.5 -138.5v-119h235v-131h-235v-910h-157v910h-151z" />
<glyph unicode="g" horiz-adv-x="1118" d="M124 525q0 276 100.5 407.5t329.5 131.5q97 0 209 -20.5t198 -50.5v-1103q0 -322 -387 -322q-118 0 -342 40l22 138q184 -39 303 -39q45 0 79.5 4.5t67.5 17.5t54 35t33.5 58t12.5 86v165q-69 -48 -138.5 -71.5t-151.5 -23.5q-201 0 -295.5 136t-94.5 411zM284 527 q0 -214 59.5 -312t204.5 -98q133 0 256 72v719q-143 25 -234 25q-83 0 -139 -25t-88 -77.5t-45.5 -125t-13.5 -178.5z" />
<glyph unicode="h" horiz-adv-x="1150" d="M174 0v1451h157v-503q170 116 336 116q149 0 239 -86.5t90 -254.5v-723h-158v705q0 219 -206 219q-139 0 -301 -92v-832h-157z" />
<glyph unicode="i" horiz-adv-x="503" d="M174 0v1041h157v-1041h-157zM174 1253v198h157v-198h-157z" />
<glyph unicode="j" horiz-adv-x="503" d="M67 -410q36 82 56 145t34.5 151t14.5 191v964h157v-964q0 -152 -31.5 -276.5t-83.5 -210.5h-147zM172 1253v198h157v-198h-157z" />
<glyph unicode="k" horiz-adv-x="1026" d="M174 0v1451h157v-879q233 216 467 469h198q-196 -215 -476 -467q218 -278 514 -574h-223q-220 240 -403 482h-77v-482h-157z" />
<glyph unicode="l" horiz-adv-x="503" d="M174 0v1451h157v-1451h-157z" />
<glyph unicode="m" horiz-adv-x="1745" d="M174 0v1041h123l14 -108q161 131 325 131q91 0 165.5 -39t112.5 -111q171 150 350 150q147 0 235.5 -89t88.5 -261v-714h-158v698q0 114 -51 170t-145 56q-65 0 -139 -27.5t-145 -76.5q9 -49 9 -108v-712h-157v698q0 77 -24 127.5t-67.5 74.5t-106.5 24q-127 0 -273 -90 v-834h-157z" />
<glyph unicode="n" horiz-adv-x="1150" d="M174 0v1041h123l14 -106q170 129 356 129q149 0 239 -86.5t90 -254.5v-723h-158v705q0 219 -206 219q-134 0 -301 -92v-832h-157z" />
<glyph unicode="o" d="M101 520q0 124 26 221.5t80 171t144.5 112.5t213.5 39t214 -39t145 -112.5t80 -171t26 -221.5q0 -98 -16 -180t-51.5 -150t-89 -114.5t-131.5 -72t-177 -25.5q-123 0 -213.5 39t-144.5 112t-80 170t-26 221zM262 520.5q0 -72.5 8.5 -131.5t30 -111t55.5 -86.5t87 -54.5 t122.5 -20t122.5 20t87 54.5t55.5 86.5t30.5 111t9 131.5t-9 131t-30.5 110.5t-55.5 87t-87 55t-122.5 20t-122.5 -20t-87 -55t-55.5 -87t-30 -110.5t-8.5 -131z" />
<glyph unicode="p" horiz-adv-x="1135" d="M174 -410v1451h123l17 -95q36 29 71 50t73.5 36.5t80.5 23.5t89 8q133 0 219 -63.5t125.5 -185t39.5 -303.5q0 -274 -96 -404t-314 -130q-129 0 -271 33v-421h-157zM331 133q123 -25 241 -25q69 0 118.5 18t80.5 49.5t49 83t24.5 110t6.5 138.5q0 112 -12.5 188.5 t-42.5 128.5t-78.5 76t-120.5 24q-133 0 -266 -81v-710z" />
<glyph unicode="q" horiz-adv-x="1135" d="M124 522q0 138 24 237.5t76 168.5t135 102.5t200 33.5q94 0 205 -20t197 -51v-1403h-157v483q-69 -48 -138.5 -71.5t-151.5 -23.5q-198 0 -294 134.5t-96 409.5zM284 529q0 -86 8.5 -150.5t27 -115t49 -82.5t74.5 -48t103 -16q134 0 258 77v714q-143 25 -236 25 q-84 0 -140 -25t-87.5 -78.5t-44 -125t-12.5 -175.5z" />
<glyph unicode="r" horiz-adv-x="761" d="M174 0v1041h123l21 -121h6q29 38 61.5 65.5t70 45t78.5 25.5t90 8q51 0 109 -10l-15 -144q-86 12 -125 12q-163 0 -262 -102v-820h-157z" />
<glyph unicode="s" horiz-adv-x="920" d="M81 20l25 135q192 -38 318 -38q259 0 259 169q0 26 -5.5 45.5t-20.5 36t-32 28.5t-49 25t-61 22t-78 23q-36 10 -56.5 16.5t-54 17.5t-53.5 20.5t-47.5 24.5t-44 29.5t-35 35.5t-28.5 43.5t-16.5 52t-6.5 62.5q0 96 51 163.5t138.5 100t203.5 32.5q136 0 294 -34 l-21 -136q-163 30 -273 30q-112 0 -173 -38.5t-61 -109.5q0 -18 3 -32t12 -26t17.5 -21.5t26.5 -19t30.5 -15.5t39.5 -15t44 -14.5t52 -16t57 -16.5q62 -20 104 -37t83.5 -42t65.5 -55t39 -73t15 -98q0 -160 -112.5 -238.5t-313.5 -78.5q-165 0 -336 42z" />
<glyph unicode="t" horiz-adv-x="729" d="M58 910v115l159 9l13 311h137v-304h297v-131h-297v-639q0 -81 24 -117.5t89 -36.5q72 0 158 40l52 -119q-112 -60 -239 -60q-122 0 -182 67t-60 205v660h-151z" />
<glyph unicode="u" horiz-adv-x="1144" d="M157 322v719h159v-701q0 -79 24 -129t68.5 -72t111.5 -22q72 0 149 23.5t144 64.5v836h158v-1041h-122l-13 97q-35 -26 -74 -47t-82.5 -37.5t-92.5 -25.5t-99 -9q-153 0 -242 87.5t-89 256.5z" />
<glyph unicode="v" horiz-adv-x="993" d="M54 1041h163q134 -573 271 -915h19q140 348 273 915h157q-132 -579 -329 -1041h-225q-197 462 -329 1041z" />
<glyph unicode="w" horiz-adv-x="1554" d="M56 1041h161q94 -546 215 -915h19q111 419 211 915h234q97 -479 213 -915h17q124 376 217 915h155q-53 -286 -117 -532t-156 -509h-223q-127 466 -216 914h-18q-89 -448 -216 -914h-223q-92 263 -156 509t-117 532z" />
<glyph unicode="x" horiz-adv-x="1004" d="M69 0q194 313 348 525q-141 201 -340 516h168q151 -250 260 -403q102 143 258 403h163q-155 -250 -341 -516q154 -212 348 -525h-167q-13 20 -63.5 100t-72 113t-60 91t-72.5 104q-108 -153 -266 -408h-163z" />
<glyph unicode="y" horiz-adv-x="995" d="M58 1041h170q132 -514 279 -915h18q166 488 259 915h158q-57 -237 -129 -486t-158 -501t-173 -464h-151q77 187 155 410h-82q-182 458 -346 1041z" />
<glyph unicode="z" horiz-adv-x="903" d="M77 0v112l559 791h-544v138h728v-113l-558 -790h563v-138h-748z" />
<glyph unicode="{" horiz-adv-x="660" d="M97 546q40 46 63 77t40 67t23.5 72.5t6.5 86.5v354q0 71 21.5 122t64.5 84t107 48.5t151 15.5v-72q-33 -7 -55.5 -14.5t-43.5 -18t-34 -25t-24 -34.5t-16.5 -48t-8.5 -63t-3 -83v-286q0 -89 -37.5 -156.5t-117.5 -126.5q49 -36 79.5 -71t47.5 -78.5t22.5 -89.5t5.5 -113 v-286q0 -57 12 -96t38.5 -63t57 -37t77.5 -23v-72q-174 0 -259 65t-85 206v353q0 96 -27.5 155t-105.5 150z" />
<glyph unicode="|" horiz-adv-x="713" d="M279 -410v1861h158v-1861h-158z" />
<glyph unicode="}" horiz-adv-x="660" d="M86 -311q37 8 63 17.5t50.5 25.5t39 38.5t23.5 57t9 80.5v354q0 60 18 110.5t52 92t87 81.5q-80 59 -118.5 126.5t-38.5 156.5v353q0 46 -9 80.5t-23.5 57t-39 38.5t-50.5 25.5t-63 17.5v72q116 0 191.5 -28t114 -87.5t38.5 -154.5v-354q0 -66 14 -114t39.5 -87.5 t79.5 -101.5q-78 -91 -105.5 -150t-27.5 -155v-353q0 -141 -85 -206t-259 -65v72z" />
<glyph unicode="~" horiz-adv-x="1150" d="M200 680q0 13 5.5 29.5t15.5 33t26 32t34.5 28t43.5 19.5t51 7q77 0 205 -63q79 -39 117.5 -53.5t69.5 -14.5q80 0 120 93l60 -56q0 -21 -12.5 -46.5t-34 -48.5t-56 -39t-73.5 -16q-77 0 -204 64q-55 27 -85.5 40t-55.5 20t-46 7q-80 0 -119 -92z" />
<glyph unicode="&#xa1;" horiz-adv-x="602" d="M202 -410l46 1046h106l44 -1046h-196zM209 847v194h183v-194h-183z" />
<glyph unicode="&#xa2;" horiz-adv-x="997" d="M112 518q0 87 11.5 159.5t38.5 137.5t68.5 112.5t104.5 80.5t145 46v212h139v-202q125 -4 255 -34l-20 -131q-156 29 -259 29q-172 0 -247 -98.5t-75 -311.5q0 -57 5 -104.5t17.5 -94t35.5 -81.5t55.5 -62.5t80.5 -41.5t109 -14q69 0 147.5 17.5t146.5 49.5l47 -127 q-133 -64 -298 -78v-212h-139v212q-187 22 -277.5 159.5t-90.5 376.5z" />
<glyph unicode="&#xa3;" horiz-adv-x="1130" d="M133 636v123l135 7q-20 67 -32 111t-23 106.5t-11 113.5q0 177 124.5 276.5t331.5 99.5q163 0 356 -47l-25 -140q-199 41 -311 41q-306 0 -306 -243q0 -110 62 -304h404v-142h-365q32 -122 32 -199q0 -93 -37.5 -169.5t-102.5 -123.5h660v-146h-887v124q94 46 150 125.5 t56 184.5q0 68 -35 202h-176z" />
<glyph unicode="&#xa4;" horiz-adv-x="1215" d="M92 316l158 157q-81 108 -81 252q0 145 81 253l-158 157l106 108l161 -159q113 76 251.5 76t251.5 -76l161 159l106 -108l-158 -157q81 -108 81 -253q0 -144 -81 -252l158 -157l-106 -109l-161 160q-113 -77 -251.5 -77t-251.5 77l-161 -160zM309 725q0 -63 23 -119.5 t63 -97.5t96 -65t119 -24q128 0 215 89t87 217t-87 217.5t-214.5 89.5t-214.5 -89.5t-87 -217.5z" />
<glyph unicode="&#xa5;" horiz-adv-x="1184" d="M73 1451h183q165 -349 337 -626h4q167 270 336 626h180q-147 -320 -369 -694h283v-135h-352v-212h352v-135h-352v-275h-166v275h-352v135h352v212h-352v135h284q-217 365 -368 694z" />
<glyph unicode="&#xa6;" horiz-adv-x="713" d="M279 273h158v-683h-158v683zM279 768v683h158v-683h-158z" />
<glyph unicode="&#xa7;" horiz-adv-x="1204" d="M129 834q0 647 559 647q154 0 333 -41l-19 -135q-163 30 -297 30q-92 0 -160 -19.5t-122.5 -66t-86 -129.5t-39.5 -203q105 20 191 20q137 0 256.5 -47t199.5 -149q135 -171 135 -496q0 -172 -38.5 -298t-113 -201.5t-175 -111.5t-232.5 -36q-150 0 -333 41l18 135 q146 -30 293 -30q95 0 164 20t123.5 67t85.5 129t39 202q-101 -18 -192 -18q-76 0 -145 14t-134.5 43.5t-121.5 81.5t-96 123q-92 165 -92 428zM297 780q6 -183 62 -292q19 -38 45 -69.5t57 -53.5t64.5 -38t71 -25.5t74.5 -13.5t77 -4q58 0 162 13q-6 218 -85 339 q-105 159 -359 159q-75 0 -169 -15z" />
<glyph unicode="&#xa8;" horiz-adv-x="884" d="M160 1208v178h164v-178h-164zM565 1208v178h165v-178h-165z" />
<glyph unicode="&#xa9;" horiz-adv-x="1601" d="M92 725q0 361 180.5 554.5t529.5 193.5q232 0 391.5 -88t238.5 -254.5t79 -405.5q0 -361 -180 -554t-529 -193t-529.5 193t-180.5 554zM221 725q0 -313 147 -470.5t434 -157.5q192 0 321 69.5t194.5 209.5t65.5 349q0 313 -146.5 471t-434.5 158q-191 0 -320 -69.5 t-195 -210t-66 -349.5zM464 728q0 60 7.5 111t23 97.5t42.5 82.5t64.5 62.5t90.5 40t119 13.5q104 0 223 -24l-18 -101q-121 20 -193 20q-69 0 -116 -20.5t-71.5 -62t-34.5 -92.5t-10 -125q0 -50 4 -90t17.5 -81.5t36 -69.5t61.5 -45.5t92 -17.5q55 0 113.5 16t103.5 42 l49 -97q-56 -33 -129.5 -53t-147.5 -20q-327 0 -327 414z" />
<glyph unicode="&#xaa;" horiz-adv-x="686" d="M95 1054q0 90 61 132t171 42q54 0 112 -7v27q0 34 -4.5 55t-18 37t-38 23t-64.5 7q-63 0 -168 -22l-22 96q91 29 207 29q117 0 171.5 -49.5t54.5 -157.5v-376h-82l-13 43q-71 -56 -169 -56q-85 0 -141.5 45t-56.5 132zM212 1057q0 -42 27 -65t72 -23q35 0 71.5 13 t56.5 30v123q-28 5 -97 5q-19 0 -33.5 -1t-30.5 -4t-27 -8.5t-20.5 -14.5t-14 -23t-4.5 -32z" />
<glyph unicode="&#xab;" horiz-adv-x="1047" d="M52 535.5q0 49.5 23.5 96.5t75.5 103q95 102 296 286l89 -95q-73 -66 -168 -160t-129 -134q-43 -48 -43 -94t43 -95q34 -39 128.5 -132t168.5 -160l-89 -99q-201 183 -296 286q-52 55 -75.5 101.5t-23.5 96zM441 536q0 49 24.5 96t75.5 103q102 109 295 286l90 -95 q-74 -67 -169 -161t-129 -133q-43 -48 -43 -94t43 -95q33 -38 128 -131t170 -161l-90 -99q-193 177 -295 286q-52 56 -76 102.5t-24 95.5z" />
<glyph unicode="&#xac;" horiz-adv-x="1445" d="M200 572v126h1043v-586h-136v460h-907z" />
<glyph unicode="&#xad;" horiz-adv-x="666" d="M95 494v125h475v-125h-475z" />
<glyph unicode="&#xae;" horiz-adv-x="1071" d="M183 1098.5q0 180.5 90.5 277.5t264.5 97q173 0 263.5 -97t90.5 -277t-90.5 -277t-263.5 -97q-174 0 -264.5 96.5t-90.5 277zM243 1099q0 -317 293 -317q146 0 221 79.5t75 237.5q0 159 -75.5 239.5t-220.5 80.5q-146 0 -219.5 -80.5t-73.5 -239.5zM404 899v403 q81 9 130 9q72 0 113 -26.5t41 -95.5q0 -48 -23 -76.5t-70 -40.5q51 -93 106 -173h-77q-68 118 -90 165q-24 0 -68 4v-169h-62zM466 1115q16 -2 52 -2q58 0 82 17t24 57t-21.5 55t-64.5 15q-28 0 -72 -4v-138z" />
<glyph unicode="&#xaf;" horiz-adv-x="727" d="M106 1236v109h518v-109h-518z" />
<glyph unicode="&#xb0;" horiz-adv-x="812" d="M101 1174q0 69 19.5 125.5t57.5 97t96 62.5t132 22q147 0 225.5 -82.5t78.5 -224.5t-78.5 -224.5t-225.5 -82.5t-226 82.5t-79 224.5zM226 1173.5q0 -191.5 180 -191.5q90 0 134.5 49.5t44.5 142.5t-44.5 142t-134.5 49q-180 0 -180 -191.5z" />
<glyph unicode="&#xb1;" horiz-adv-x="1310" d="M200 0v117h909v-117h-909zM200 647v116h388v385h132v-385h389v-116h-389v-385h-132v385h-388z" />
<glyph unicode="&#xb2;" horiz-adv-x="756" d="M101 1410q54 28 122 45.5t133 17.5q79 0 138 -27.5t92 -80.5t33 -126q0 -44 -11.5 -86.5t-37 -84.5t-52.5 -77t-71 -77t-77.5 -72t-85.5 -74h354v-108h-524v101q96 80 158.5 137.5t117.5 118.5t80.5 113.5t25.5 101.5q0 61 -41 97t-113 36q-47 0 -104 -14.5t-100 -34.5z " />
<glyph unicode="&#xb3;" horiz-adv-x="733" d="M106 685l25 106q125 -32 202 -32q174 0 174 142q0 69 -39.5 96.5t-118.5 27.5h-81v106h76q72 0 109.5 24t37.5 88q0 60 -34.5 91t-102.5 31q-96 0 -197 -49l-45 92q53 28 121 46.5t130 18.5q52 0 97.5 -14t80 -40.5t54.5 -69t20 -96.5q0 -125 -99 -169q114 -47 114 -190 q0 -117 -76.5 -180t-215.5 -63q-96 0 -232 34z" />
<glyph unicode="&#xb4;" horiz-adv-x="660" d="M214 1180l214 340l135 -105l-279 -289z" />
<glyph unicode="&#xb5;" horiz-adv-x="1155" d="M58 -410q57 124 82 267.5t25 398.5v785h157v-708q0 -113 52.5 -164.5t152.5 -51.5q72 0 149 23.5t144 64.5v836h158v-1041h-122l-13 97q-47 -35 -100.5 -61t-117 -42t-127.5 -16q-108 0 -178 47q-5 -129 -36.5 -242t-78.5 -193h-147z" />
<glyph unicode="&#xb6;" horiz-adv-x="1081" d="M97 1092q0 359 363 359h432v-1861h-155v1149h-124v-1149h-155v1149q-184 3 -272.5 91t-88.5 262z" />
<glyph unicode="&#xb7;" horiz-adv-x="542" d="M183 466v194h180v-194h-180z" />
<glyph unicode="&#xb8;" horiz-adv-x="587" d="M131 -417l13 75q51 -12 84 -12q112 0 112 94q0 31 -12 50t-49 31t-101 12l13 70q67 0 114.5 -9t77.5 -28t44 -48t14 -70q0 -82 -51.5 -131t-141.5 -49q-58 0 -117 15z" />
<glyph unicode="&#xb9;" horiz-adv-x="662" d="M103 1348l213 103h114v-791h-126v664l-164 -62z" />
<glyph unicode="&#xba;" horiz-adv-x="699" d="M95 1176q0 297 256 297q135 0 196 -77t61 -220q0 -145 -61 -222t-196 -77q-256 0 -256 299zM214 1176q0 -98 31 -148t106 -50q39 0 66.5 13.5t42.5 40t21.5 61.5t6.5 83q0 98 -30 147t-107 49q-76 0 -106.5 -49.5t-30.5 -146.5z" />
<glyph unicode="&#xbb;" horiz-adv-x="1049" d="M56 146q75 69 170 162t128 131q42 47 42 94.5t-42 94.5q-34 39 -129 132.5t-169 161.5l90 99q194 -177 295 -286q35 -37 56.5 -69t32.5 -64.5t11 -65.5q0 -49 -24 -95.5t-76 -102.5q-101 -109 -295 -286zM449 146q29 27 64.5 60.5t70 67t66.5 65.5t57.5 58.5t38.5 41.5 q43 49 43 94.5t-43 94.5q-35 40 -129.5 133.5t-167.5 160.5l89 99q201 -184 296 -286q51 -56 75 -103t24 -96.5t-24 -96t-75 -101.5q-95 -103 -296 -286z" />
<glyph unicode="&#xbc;" horiz-adv-x="1569" d="M103 1348l213 103h114v-791h-126v664l-164 -62zM214 0l867 1451h133l-868 -1451h-132zM795 151v92q109 210 309 557h124q-207 -364 -297 -540h238l13 168h109v-168h132v-109h-132v-151h-122v151h-374z" />
<glyph unicode="&#xbd;" horiz-adv-x="1668" d="M103 1348l213 103h114v-791h-126v664l-164 -62zM217 0l867 1451h133l-868 -1451h-132zM969 750q54 29 121.5 46t132.5 17q120 0 192 -62.5t72 -171.5q0 -44 -12 -86.5t-37.5 -84.5t-52 -77t-70.5 -77t-77.5 -72t-85.5 -74h353v-108h-523v101q95 79 158 137t117.5 119 t80 113.5t25.5 101.5q0 41 -18 70.5t-52.5 46t-82.5 16.5t-105 -14.5t-101 -34.5z" />
<glyph unicode="&#xbe;" horiz-adv-x="1675" d="M106 685l25 106q125 -32 202 -32q174 0 174 142q0 69 -39.5 96.5t-118.5 27.5h-81v106h76q72 0 109.5 24t37.5 88q0 60 -34.5 91t-102.5 31q-96 0 -197 -49l-45 92q53 28 121 46.5t130 18.5q52 0 97.5 -14t80 -40.5t54.5 -69t20 -96.5q0 -125 -99 -169q114 -47 114 -190 q0 -117 -76.5 -180t-215.5 -63q-96 0 -232 34zM346 0l868 1451h134l-868 -1451h-134zM928 151v92q118 228 308 557h125q-207 -364 -297 -540h238l14 168h107v-168h133v-109h-133v-151h-121v151h-374z" />
<glyph unicode="&#xbf;" horiz-adv-x="929" d="M41 -63q0 37 5.5 70.5t13.5 59.5t24.5 55t28.5 47.5t37.5 46.5t39.5 42.5t44 45.5q56 55 85 88.5t54 74.5t34 83t10 99h142q0 -65 -9.5 -118.5t-23.5 -93t-43 -81.5t-57 -73t-75 -78q-29 -29 -44.5 -45.5t-37.5 -44.5t-32.5 -51.5t-19 -56t-8.5 -67.5q0 -111 68.5 -168.5 t186.5 -57.5q76 0 158 23t148 58l57 -128q-38 -22 -82.5 -40t-92.5 -31.5t-99.5 -20.5t-101.5 -7q-87 0 -160.5 23t-130 67.5t-88 116t-31.5 162.5zM389 847v194h183v-194h-183z" />
<glyph unicode="&#xc0;" horiz-adv-x="1243" d="M41 0q195 703 464 1451h234q269 -748 464 -1451h-176q-40 156 -99 361h-619q-72 -252 -100 -361h-168zM349 1820l135 106l212 -340l-68 -54zM351 507h535q-105 351 -262 800h-11q-157 -449 -262 -800z" />
<glyph unicode="&#xc1;" horiz-adv-x="1243" d="M41 0q195 703 464 1451h234q269 -748 464 -1451h-176q-40 156 -99 361h-619q-72 -252 -100 -361h-168zM351 507h535q-105 351 -262 800h-11q-157 -449 -262 -800zM536 1586l214 340l136 -106l-280 -288z" />
<glyph unicode="&#xc2;" horiz-adv-x="1243" d="M41 0q195 703 464 1451h234q269 -748 464 -1451h-176q-40 156 -99 361h-619q-72 -252 -100 -361h-168zM331 1588l228 269h126l229 -269l-65 -51l-227 209l-228 -209zM351 507h535q-105 351 -262 800h-11q-157 -449 -262 -800z" />
<glyph unicode="&#xc3;" horiz-adv-x="1243" d="M41 0q195 703 464 1451h234q269 -748 464 -1451h-176q-40 156 -99 361h-619q-72 -252 -100 -361h-168zM271 1644q32 85 76.5 129.5t110.5 44.5q38 0 84.5 -15.5t83 -34.5t79.5 -35t75 -16q39 0 65.5 23.5t46.5 69.5l75 -39q-33 -87 -76.5 -130.5t-110.5 -43.5 q-39 0 -86 16t-82.5 35t-78 34.5t-73.5 15.5q-28 0 -49 -11t-36 -30.5t-29 -50.5zM351 507h535q-105 351 -262 800h-11q-157 -449 -262 -800z" />
<glyph unicode="&#xc4;" horiz-adv-x="1243" d="M41 0q195 703 464 1451h234q269 -748 464 -1451h-176q-40 156 -99 361h-619q-72 -252 -100 -361h-168zM338 1613v178h165v-178h-165zM351 507h535q-105 351 -262 800h-11q-157 -449 -262 -800zM744 1613v178h164v-178h-164z" />
<glyph unicode="&#xc5;" horiz-adv-x="1243" d="M41 0q195 703 464 1451h234q269 -748 464 -1451h-176q-40 156 -99 361h-619q-72 -252 -100 -361h-168zM351 507h535q-105 351 -262 800h-11q-157 -449 -262 -800zM430 1741.5q0 87.5 51 138t141 50.5q87 0 138 -50.5t51 -138t-51 -138.5t-138 -51q-90 0 -141 51 t-51 138.5zM509 1741q0 -116 113 -116q111 0 111 116q0 58 -28 89t-83 31q-38 0 -63.5 -14.5t-37.5 -41t-12 -64.5z" />
<glyph unicode="&#xc6;" horiz-adv-x="1722" d="M15 0q240 615 645 1451h962v-149h-726l95 -477h525v-147h-493l108 -530h489v-148h-624l-74 361h-595q-71 -170 -144 -361h-168zM389 507h503l-155 755h-4q-218 -462 -344 -755z" />
<glyph unicode="&#xc7;" horiz-adv-x="1193" d="M106 725q0 350 135 537q44 60 99 102t118.5 65.5t128.5 33.5t141 10q188 0 364 -45l-26 -142q-186 41 -336 41q-252 0 -358 -158q-97 -144 -97 -446q0 -293 95 -439q102 -160 331 -160q96 0 199.5 25t193.5 65l52 -133q-96 -49 -218.5 -76t-235.5 -27q-315 0 -458 207 q-128 185 -128 540zM543 -417l14 75q50 -12 83 -12q112 0 112 94q0 23 -6.5 39t-24 28.5t-50 19t-80.5 6.5l13 70q133 0 191.5 -36.5t58.5 -118.5t-52 -131t-142 -49q-58 0 -117 15z" />
<glyph unicode="&#xc8;" horiz-adv-x="1116" d="M191 0v1451h830v-146h-662v-480h555v-147h-555v-532h662v-146h-830zM336 1820l135 106l212 -340l-68 -54z" />
<glyph unicode="&#xc9;" horiz-adv-x="1116" d="M191 0v1451h830v-146h-662v-480h555v-147h-555v-532h662v-146h-830zM512 1586l213 340l135 -106l-279 -288z" />
<glyph unicode="&#xca;" horiz-adv-x="1116" d="M191 0v1451h830v-146h-662v-480h555v-147h-555v-532h662v-146h-830zM331 1588l228 269h126l229 -269l-65 -51l-227 209l-228 -209z" />
<glyph unicode="&#xcb;" horiz-adv-x="1116" d="M191 0v1451h830v-146h-662v-480h555v-147h-555v-532h662v-146h-830zM333 1613v178h165v-178h-165zM739 1613v178h164v-178h-164z" />
<glyph unicode="&#xcc;" horiz-adv-x="548" d="M4 1820l136 106l211 -340l-67 -54zM187 0v1451h167v-1451h-167z" />
<glyph unicode="&#xcd;" horiz-adv-x="548" d="M191 0v1451h168v-1451h-168zM194 1586l214 340l135 -106l-279 -288z" />
<glyph unicode="&#xce;" horiz-adv-x="548" d="M-18 1588l227 269h127l229 -269l-65 -51l-227 209l-228 -209zM191 0v1451h168v-1451h-168z" />
<glyph unicode="&#xcf;" horiz-adv-x="548" d="M-9 1613v178h164v-178h-164zM191 0v1451h168v-1451h-168zM396 1613v178h165v-178h-165z" />
<glyph unicode="&#xd0;" horiz-adv-x="1393" d="M28 678v147h177v611q228 35 419 35q351 0 513.5 -179t162.5 -572q0 -198 -40.5 -336.5t-129 -227.5t-223 -129t-326.5 -40q-213 0 -376 15v676h-177zM372 138q90 -5 243 -5q89 0 159.5 12.5t129 40.5t100 73.5t70.5 111t43 153t14 199.5q0 167 -31 282t-97.5 186 t-163.5 102t-235 31q-124 0 -232 -13v-486h333v-147h-333v-540z" />
<glyph unicode="&#xd1;" horiz-adv-x="1504" d="M191 0v1451h256l690 -1264h11v1264h165v-1451h-254l-692 1264h-11v-1264h-165zM402 1644q15 42 33 72.5t40.5 54t51 35.5t61.5 12q32 0 68 -10.5t68 -25t63 -29.5t63.5 -25.5t59.5 -10.5q73 0 113 93l74 -39q-33 -87 -76.5 -130.5t-110.5 -43.5q-39 0 -86 16t-82.5 35 t-77.5 34.5t-73 15.5q-41 0 -67.5 -23t-46.5 -69z" />
<glyph unicode="&#xd2;" horiz-adv-x="1449" d="M106 725q0 375 153 561.5t466 186.5t466.5 -186.5t153.5 -561.5t-153.5 -561t-466.5 -186t-466 186t-153 561zM275 725q0 -314 111 -457.5t339 -143.5t339.5 143.5t111.5 457.5t-111.5 458t-339.5 144t-339 -144t-111 -458zM473 1820l135 106l212 -340l-68 -54z" />
<glyph unicode="&#xd3;" horiz-adv-x="1449" d="M106 725q0 375 153 561.5t466 186.5t466.5 -186.5t153.5 -561.5t-153.5 -561t-466.5 -186t-466 186t-153 561zM275 725q0 -314 111 -457.5t339 -143.5t339.5 143.5t111.5 457.5t-111.5 458t-339.5 144t-339 -144t-111 -458zM630 1586l215 340l135 -106l-279 -288z" />
<glyph unicode="&#xd4;" horiz-adv-x="1449" d="M106 725q0 375 153 561.5t466 186.5t466.5 -186.5t153.5 -561.5t-153.5 -561t-466.5 -186t-466 186t-153 561zM275 725q0 -314 111 -457.5t339 -143.5t339.5 143.5t111.5 457.5t-111.5 458t-339.5 144t-339 -144t-111 -458zM432 1588l228 269h126l230 -269l-66 -51 l-227 209l-227 -209z" />
<glyph unicode="&#xd5;" horiz-adv-x="1449" d="M106 725q0 375 153 561.5t466 186.5t466.5 -186.5t153.5 -561.5t-153.5 -561t-466.5 -186t-466 186t-153 561zM275 725q0 -314 111 -457.5t339 -143.5t339.5 143.5t111.5 457.5t-111.5 458t-339.5 144t-339 -144t-111 -458zM376 1644q16 42 34 72.5t40.5 54t50.5 35.5 t62 12q39 0 85.5 -15.5t82.5 -34.5t79 -35t76 -16q26 0 47 11.5t36.5 31t28.5 50.5l74 -39q-32 -87 -75.5 -130.5t-110.5 -43.5q-40 0 -86.5 16t-82.5 35t-78 34.5t-74 15.5q-40 0 -66 -22.5t-46 -69.5z" />
<glyph unicode="&#xd6;" horiz-adv-x="1449" d="M106 725q0 375 153 561.5t466 186.5t466.5 -186.5t153.5 -561.5t-153.5 -561t-466.5 -186t-466 186t-153 561zM275 725q0 -314 111 -457.5t339 -143.5t339.5 143.5t111.5 457.5t-111.5 458t-339.5 144t-339 -144t-111 -458zM439 1613v178h165v-178h-165zM845 1613v178 h165v-178h-165z" />
<glyph unicode="&#xd7;" horiz-adv-x="1227" d="M200 194l318 322l-318 322l93 90l317 -322l318 322l93 -90l-318 -322l318 -322l-93 -91l-318 323l-317 -323z" />
<glyph unicode="&#xd8;" horiz-adv-x="1449" d="M106 725q0 375 153 561.5t466 186.5q227 0 376 -103l57 81h153l-117 -167q151 -190 151 -559q0 -375 -153.5 -561t-466.5 -186q-234 0 -376 101l-56 -79h-153l116 167q-150 185 -150 558zM275 725q0 -270 81 -416l654 930q-106 88 -285 88q-228 0 -339 -144t-111 -458z M439 209q105 -85 286 -85q228 0 339.5 143.5t111.5 457.5q0 270 -84 415z" />
<glyph unicode="&#xd9;" horiz-adv-x="1427" d="M176 520v931h166v-910q0 -92 12.5 -159t38.5 -117.5t70 -80.5t105.5 -45t145.5 -15q105 0 175 22.5t114.5 73.5t63.5 128.5t19 192.5v910h167v-931q0 -136 -29.5 -235.5t-93.5 -169t-167.5 -103.5t-248.5 -34t-248 34t-167 103.5t-93.5 169t-29.5 235.5zM447 1820 l134 106l212 -340l-68 -54z" />
<glyph unicode="&#xda;" horiz-adv-x="1427" d="M176 520v931h166v-910q0 -92 12.5 -159t38.5 -117.5t70 -80.5t105.5 -45t145.5 -15q105 0 175 22.5t114.5 73.5t63.5 128.5t19 192.5v910h167v-931q0 -136 -29.5 -235.5t-93.5 -169t-167.5 -103.5t-248.5 -34t-248 34t-167 103.5t-93.5 169t-29.5 235.5zM628 1586 l215 340l135 -106l-280 -288z" />
<glyph unicode="&#xdb;" horiz-adv-x="1427" d="M176 520v931h166v-910q0 -92 12.5 -159t38.5 -117.5t70 -80.5t105.5 -45t145.5 -15q105 0 175 22.5t114.5 73.5t63.5 128.5t19 192.5v910h167v-931q0 -136 -29.5 -235.5t-93.5 -169t-167.5 -103.5t-248.5 -34t-248 34t-167 103.5t-93.5 169t-29.5 235.5zM421 1588 l228 269h127l228 -269l-65 -51l-227 209l-228 -209z" />
<glyph unicode="&#xdc;" horiz-adv-x="1427" d="M176 520v931h166v-910q0 -92 12.5 -159t38.5 -117.5t70 -80.5t105.5 -45t145.5 -15q105 0 175 22.5t114.5 73.5t63.5 128.5t19 192.5v910h167v-931q0 -136 -29.5 -235.5t-93.5 -169t-167.5 -103.5t-248.5 -34t-248 34t-167 103.5t-93.5 169t-29.5 235.5zM432 1613v178 h165v-178h-165zM838 1613v178h164v-178h-164z" />
<glyph unicode="&#xdd;" horiz-adv-x="1243" d="M41 1451h182q179 -433 399 -784h4q222 356 399 784h178q-218 -499 -498 -929v-522h-167v522q-277 425 -497 929zM557 1586l213 340l135 -106l-279 -288z" />
<glyph unicode="&#xde;" horiz-adv-x="1223" d="M191 0v1451h168v-269q177 17 279 17q98 0 174.5 -11.5t145 -41.5t113 -78.5t70.5 -125t26 -179.5q0 -70 -11.5 -130t-34.5 -105.5t-53 -81.5t-69 -61.5t-81.5 -43t-93 -27.5t-99 -14.5t-103.5 -4.5q-103 0 -263 19v-314h-168zM359 451q122 -10 217 -10q55 0 98.5 3 t88.5 11.5t78.5 22.5t64.5 38t50 56.5t30.5 78.5t11.5 104q0 86 -23.5 144.5t-73.5 91.5t-116.5 47t-162.5 14q-101 0 -263 -14v-587z" />
<glyph unicode="&#xdf;" horiz-adv-x="1247" d="M174 0v1034q0 439 466 439q122 0 211 -28.5t140.5 -89.5t51.5 -152q0 -48 -14.5 -89t-44 -76t-57.5 -59.5t-73 -56.5q-7 -4 -19 -13q-38 -26 -55.5 -39t-39.5 -33t-30.5 -38.5t-8.5 -39.5q0 -13 3 -24t13 -21.5t19 -17.5t29.5 -18.5t35 -18.5t46 -21.5t52.5 -24.5 q35 -17 58 -29t53 -30t48.5 -34t38.5 -39t31 -47t18.5 -55.5t7.5 -67.5q0 -148 -112 -240.5t-317 -92.5q-128 0 -282 31l26 137q150 -32 241 -32q132 0 206.5 47t74.5 138q0 33 -11.5 60.5t-27.5 46.5t-47.5 39t-56.5 32.5t-70 31.5q-69 31 -108.5 53t-71.5 49t-44.5 58 t-12.5 72q0 34 9.5 63t22.5 51t41 48.5t52 45t69 51.5q23 16 37 26.5t31.5 25t28 25.5t21.5 25t17 27t9.5 29t3.5 33q0 142 -243 142q-88 0 -148.5 -19t-95.5 -60t-50 -97t-15 -136v-1021h-157z" />
<glyph unicode="&#xe0;" horiz-adv-x="1060" d="M86 299q0 66 19.5 119t54 90.5t84 62.5t108.5 36.5t128 11.5q107 0 261 -13v129q0 56 -16 94t-49 58t-74.5 28.5t-98.5 8.5q-154 0 -316 -45l-27 135q71 22 164.5 36t182.5 14q392 0 392 -312v-752h-121l-17 97q-64 -54 -153.5 -86.5t-181.5 -32.5q-152 0 -246 86 t-94 235zM245 304q0 -95 58 -148t159 -53q70 0 146 25.5t133 71.5v288q-146 10 -236 10q-43 0 -79.5 -5.5t-70.5 -19t-57.5 -35t-38 -56t-14.5 -78.5zM316 1415l135 105l211 -340l-67 -54z" />
<glyph unicode="&#xe1;" horiz-adv-x="1060" d="M86 299q0 66 19.5 119t54 90.5t84 62.5t108.5 36.5t128 11.5q107 0 261 -13v129q0 56 -16 94t-49 58t-74.5 28.5t-98.5 8.5q-154 0 -316 -45l-27 135q71 22 164.5 36t182.5 14q392 0 392 -312v-752h-121l-17 97q-64 -54 -153.5 -86.5t-181.5 -32.5q-152 0 -246 86 t-94 235zM245 304q0 -95 58 -148t159 -53q70 0 146 25.5t133 71.5v288q-146 10 -236 10q-43 0 -79.5 -5.5t-70.5 -19t-57.5 -35t-38 -56t-14.5 -78.5zM430 1180l215 340l135 -105l-280 -289z" />
<glyph unicode="&#xe2;" horiz-adv-x="1060" d="M86 299q0 66 19.5 119t54 90.5t84 62.5t108.5 36.5t128 11.5q107 0 261 -13v129q0 56 -16 94t-49 58t-74.5 28.5t-98.5 8.5q-154 0 -316 -45l-27 135q71 22 164.5 36t182.5 14q392 0 392 -312v-752h-121l-17 97q-64 -54 -153.5 -86.5t-181.5 -32.5q-152 0 -246 86 t-94 235zM236 1182l228 269h127l229 -269l-65 -51l-228 210l-228 -210zM245 304q0 -95 58 -148t159 -53q70 0 146 25.5t133 71.5v288q-146 10 -236 10q-43 0 -79.5 -5.5t-70.5 -19t-57.5 -35t-38 -56t-14.5 -78.5z" />
<glyph unicode="&#xe3;" horiz-adv-x="1060" d="M86 299q0 66 19.5 119t54 90.5t84 62.5t108.5 36.5t128 11.5q107 0 261 -13v129q0 56 -16 94t-49 58t-74.5 28.5t-98.5 8.5q-154 0 -316 -45l-27 135q71 22 164.5 36t182.5 14q392 0 392 -312v-752h-121l-17 97q-64 -54 -153.5 -86.5t-181.5 -32.5q-152 0 -246 86 t-94 235zM180 1239q22 55 46.5 92t60.5 59t80 22q39 0 85.5 -15.5t82.5 -34.5t79.5 -35t75.5 -16q39 0 65.5 23.5t46.5 69.5l75 -39q-33 -86 -76.5 -130t-110.5 -44q-39 0 -86 16t-82.5 35.5t-78 35.5t-73.5 16q-28 0 -49.5 -11.5t-36 -31t-28.5 -50.5zM245 304 q0 -95 58 -148t159 -53q70 0 146 25.5t133 71.5v288q-146 10 -236 10q-43 0 -79.5 -5.5t-70.5 -19t-57.5 -35t-38 -56t-14.5 -78.5z" />
<glyph unicode="&#xe4;" horiz-adv-x="1060" d="M86 299q0 66 19.5 119t54 90.5t84 62.5t108.5 36.5t128 11.5q107 0 261 -13v129q0 56 -16 94t-49 58t-74.5 28.5t-98.5 8.5q-154 0 -316 -45l-27 135q71 22 164.5 36t182.5 14q392 0 392 -312v-752h-121l-17 97q-64 -54 -153.5 -86.5t-181.5 -32.5q-152 0 -246 86 t-94 235zM243 1208v178h165v-178h-165zM245 304q0 -95 58 -148t159 -53q70 0 146 25.5t133 71.5v288q-146 10 -236 10q-43 0 -79.5 -5.5t-70.5 -19t-57.5 -35t-38 -56t-14.5 -78.5zM649 1208v178h164v-178h-164z" />
<glyph unicode="&#xe5;" horiz-adv-x="1060" d="M86 299q0 66 19.5 119t54 90.5t84 62.5t108.5 36.5t128 11.5q107 0 261 -13v129q0 56 -16 94t-49 58t-74.5 28.5t-98.5 8.5q-154 0 -316 -45l-27 135q71 22 164.5 36t182.5 14q392 0 392 -312v-752h-121l-17 97q-64 -54 -153.5 -86.5t-181.5 -32.5q-152 0 -246 86 t-94 235zM245 304q0 -95 58 -148t159 -53q70 0 146 25.5t133 71.5v288q-146 10 -236 10q-43 0 -79.5 -5.5t-70.5 -19t-57.5 -35t-38 -56t-14.5 -78.5zM311 1335q0 88 50 139t139 51q88 0 140 -51t52 -139q0 -87 -51 -138t-138 -51q-90 0 -141 51t-51 138zM389 1335 q0 -116 114 -116q110 0 110 116q0 57 -28.5 87.5t-84.5 30.5q-111 0 -111 -118z" />
<glyph unicode="&#xe6;" horiz-adv-x="1641" d="M86 301q0 159 104.5 238.5t293.5 79.5q66 0 241 -15v63q0 37 -1.5 62t-7 54t-15 48t-27 37.5t-42.5 29.5t-61 17.5t-83 6.5q-138 0 -310 -43l-34 135q36 10 78.5 18.5t89.5 15.5t97.5 11.5t95.5 4.5q130 0 209 -40t120 -125q49 78 131 121.5t189 43.5q98 0 173.5 -36 t122 -100.5t70 -147.5t23.5 -183q0 -76 -9 -133h-653q3 -183 75.5 -265t217.5 -82q141 0 303 79l55 -127q-71 -38 -168.5 -64.5t-200.5 -26.5q-248 0 -352 168q-69 -79 -166.5 -123.5t-210.5 -44.5q-155 0 -251.5 84.5t-96.5 238.5zM245 304q0 -64 26.5 -109.5t74.5 -68.5 t114 -23q85 0 166 39t133 103q-34 94 -34 237q-109 16 -209 16q-62 0 -109.5 -9.5t-84.5 -31.5t-57 -60.5t-20 -92.5zM881 595h512q0 46 -5.5 86.5t-17 78t-31 67t-46 51.5t-64 34t-83.5 12q-87 0 -147.5 -44t-88.5 -116.5t-29 -168.5z" />
<glyph unicode="&#xe7;" horiz-adv-x="965" d="M108 518q0 81 10 149.5t32.5 131t60 110t89 83t123 54t160.5 18.5q143 0 287 -34l-21 -131q-156 29 -258 29q-172 0 -247.5 -98.5t-75.5 -311.5q0 -69 7.5 -124t28 -108t53.5 -88t87.5 -56.5t127.5 -21.5q68 0 146 17.5t147 49.5l47 -127q-74 -36 -170.5 -59t-191.5 -23 q-114 0 -198.5 36.5t-138 106.5t-79.5 169t-26 228zM402 -417l13 75q50 -12 83 -12q112 0 112 94q0 31 -12 50t-48.5 31t-100.5 12l13 70q133 0 191.5 -36.5t58.5 -118.5t-51.5 -131t-142.5 -49q-57 0 -116 15z" />
<glyph unicode="&#xe8;" horiz-adv-x="1026" d="M101 514q0 166 47.5 288.5t145 192t237.5 69.5q100 0 177 -36t124.5 -101t71.5 -151t24 -191q0 -67 -8 -121h-656q5 -81 24 -142t54.5 -107.5t93 -70.5t136.5 -24q138 0 302 78l52 -119q-179 -101 -369 -101q-215 0 -335.5 134.5t-120.5 401.5zM262 591h510q0 44 -5 83.5 t-16 78t-30 69t-45 54t-63.5 36t-83.5 12.5q-125 0 -192.5 -90.5t-74.5 -242.5zM299 1415l135 105l213 -340l-68 -54z" />
<glyph unicode="&#xe9;" horiz-adv-x="1026" d="M101 514q0 166 47.5 288.5t145 192t237.5 69.5q100 0 177 -36t124.5 -101t71.5 -151t24 -191q0 -67 -8 -121h-656q5 -81 24 -142t54.5 -107.5t93 -70.5t136.5 -24q138 0 302 78l52 -119q-179 -101 -369 -101q-215 0 -335.5 134.5t-120.5 401.5zM262 591h510q0 44 -5 83.5 t-16 78t-30 69t-45 54t-63.5 36t-83.5 12.5q-125 0 -192.5 -90.5t-74.5 -242.5zM434 1180l215 340l135 -105l-279 -289z" />
<glyph unicode="&#xea;" horiz-adv-x="1026" d="M101 514q0 166 47.5 288.5t145 192t237.5 69.5q100 0 177 -36t124.5 -101t71.5 -151t24 -191q0 -67 -8 -121h-656q5 -81 24 -142t54.5 -107.5t93 -70.5t136.5 -24q138 0 302 78l52 -119q-179 -101 -369 -101q-215 0 -335.5 134.5t-120.5 401.5zM245 1182l228 269h127 l229 -269l-66 -51l-227 210l-227 -210zM262 591h510q0 44 -5 83.5t-16 78t-30 69t-45 54t-63.5 36t-83.5 12.5q-125 0 -192.5 -90.5t-74.5 -242.5z" />
<glyph unicode="&#xeb;" horiz-adv-x="1026" d="M101 514q0 166 47.5 288.5t145 192t237.5 69.5q100 0 177 -36t124.5 -101t71.5 -151t24 -191q0 -67 -8 -121h-656q5 -81 24 -142t54.5 -107.5t93 -70.5t136.5 -24q138 0 302 78l52 -119q-179 -101 -369 -101q-215 0 -335.5 134.5t-120.5 401.5zM243 1208v178h165v-178 h-165zM262 591h510q0 44 -5 83.5t-16 78t-30 69t-45 54t-63.5 36t-83.5 12.5q-125 0 -192.5 -90.5t-74.5 -242.5zM649 1208v178h164v-178h-164z" />
<glyph unicode="&#xec;" horiz-adv-x="503" d="M4 1415l136 105l211 -340l-67 -54zM174 0v1041h157v-1041h-157z" />
<glyph unicode="&#xed;" horiz-adv-x="503" d="M148 1180l215 340l135 -105l-279 -289zM174 0v1041h157v-1041h-157z" />
<glyph unicode="&#xee;" horiz-adv-x="503" d="M-41 1182l228 269h127l229 -269l-66 -51l-227 210l-228 -210zM174 0v1041h157v-1041h-157z" />
<glyph unicode="&#xef;" horiz-adv-x="503" d="M-32 1208v178h165v-178h-165zM174 0v1041h157v-1041h-157zM374 1208v178h164v-178h-164z" />
<glyph unicode="&#xf0;" horiz-adv-x="1137" d="M101 538q0 264 103 395t321 131q91 0 203 -23q-67 111 -165 212l-189 -133l-65 94l171 121q-67 60 -166 127l64 97q125 -68 217 -142l177 126l68 -97l-155 -111q110 -106 185 -231q160 -264 160 -586q0 -98 -16 -178.5t-51 -148.5t-88.5 -114.5t-132.5 -72.5t-179 -26 q-123 0 -212.5 38.5t-143.5 113t-80 175.5t-26 233zM262 541q0 -78 8 -140t29 -116.5t55 -90.5t87.5 -56.5t123.5 -20.5t123 19.5t87 53.5t55.5 85.5t30.5 109.5t9 131q0 208 -79 387q-141 30 -245 30q-156 0 -220 -93.5t-64 -298.5z" />
<glyph unicode="&#xf1;" horiz-adv-x="1150" d="M174 0v1041h123l14 -106q170 129 356 129q149 0 239 -86.5t90 -254.5v-723h-158v705q0 219 -206 219q-134 0 -301 -92v-832h-157zM245 1239q33 85 77 129t110 44q23 0 48.5 -5.5t49 -14.5t47 -19.5t46.5 -21.5t45 -20t44.5 -14.5t42.5 -5.5q38 0 65 23.5t47 69.5l75 -39 q-33 -86 -76.5 -130t-110.5 -44q-39 0 -86 16t-83 35.5t-78 35.5t-74 16q-40 0 -66 -23t-46 -70z" />
<glyph unicode="&#xf2;" d="M101 520q0 124 26 221.5t80 171t144.5 112.5t213.5 39t214 -39t145 -112.5t80 -171t26 -221.5q0 -98 -16 -180t-51.5 -150t-89 -114.5t-131.5 -72t-177 -25.5q-123 0 -213.5 39t-144.5 112t-80 170t-26 221zM262 520.5q0 -72.5 8.5 -131.5t30 -111t55.5 -86.5t87 -54.5 t122.5 -20t122.5 20t87 54.5t55.5 86.5t30.5 111t9 131.5t-9 131t-30.5 110.5t-55.5 87t-87 55t-122.5 20t-122.5 -20t-87 -55t-55.5 -87t-30 -110.5t-8.5 -131zM316 1415l135 105l211 -340l-67 -54z" />
<glyph unicode="&#xf3;" d="M101 520q0 124 26 221.5t80 171t144.5 112.5t213.5 39t214 -39t145 -112.5t80 -171t26 -221.5q0 -98 -16 -180t-51.5 -150t-89 -114.5t-131.5 -72t-177 -25.5q-123 0 -213.5 39t-144.5 112t-80 170t-26 221zM262 520.5q0 -72.5 8.5 -131.5t30 -111t55.5 -86.5t87 -54.5 t122.5 -20t122.5 20t87 54.5t55.5 86.5t30.5 111t9 131.5t-9 131t-30.5 110.5t-55.5 87t-87 55t-122.5 20t-122.5 -20t-87 -55t-55.5 -87t-30 -110.5t-8.5 -131zM471 1180l214 340l135 -105l-279 -289z" />
<glyph unicode="&#xf4;" d="M101 520q0 124 26 221.5t80 171t144.5 112.5t213.5 39t214 -39t145 -112.5t80 -171t26 -221.5q0 -98 -16 -180t-51.5 -150t-89 -114.5t-131.5 -72t-177 -25.5q-123 0 -213.5 39t-144.5 112t-80 170t-26 221zM262 520.5q0 -72.5 8.5 -131.5t30 -111t55.5 -86.5t87 -54.5 t122.5 -20t122.5 20t87 54.5t55.5 86.5t30.5 111t9 131.5t-9 131t-30.5 110.5t-55.5 87t-87 55t-122.5 20t-122.5 -20t-87 -55t-55.5 -87t-30 -110.5t-8.5 -131zM275 1182l228 269h125l230 -269l-65 -51l-228 210l-227 -210z" />
<glyph unicode="&#xf5;" d="M101 520q0 124 26 221.5t80 171t144.5 112.5t213.5 39t214 -39t145 -112.5t80 -171t26 -221.5q0 -98 -16 -180t-51.5 -150t-89 -114.5t-131.5 -72t-177 -25.5q-123 0 -213.5 39t-144.5 112t-80 170t-26 221zM217 1239q32 85 76.5 129t110.5 44q38 0 84.5 -15.5 t82.5 -34.5t79 -35t75 -16q73 0 113 93l74 -39q-33 -86 -76.5 -130t-110.5 -44q-39 0 -85.5 16t-82.5 35.5t-78 35.5t-73 16q-40 0 -66.5 -23.5t-46.5 -69.5zM262 520.5q0 -72.5 8.5 -131.5t30 -111t55.5 -86.5t87 -54.5t122.5 -20t122.5 20t87 54.5t55.5 86.5t30.5 111 t9 131.5t-9 131t-30.5 110.5t-55.5 87t-87 55t-122.5 20t-122.5 -20t-87 -55t-55.5 -87t-30 -110.5t-8.5 -131z" />
<glyph unicode="&#xf6;" d="M101 520q0 124 26 221.5t80 171t144.5 112.5t213.5 39t214 -39t145 -112.5t80 -171t26 -221.5q0 -98 -16 -180t-51.5 -150t-89 -114.5t-131.5 -72t-177 -25.5q-123 0 -213.5 39t-144.5 112t-80 170t-26 221zM262 520.5q0 -72.5 8.5 -131.5t30 -111t55.5 -86.5t87 -54.5 t122.5 -20t122.5 20t87 54.5t55.5 86.5t30.5 111t9 131.5t-9 131t-30.5 110.5t-55.5 87t-87 55t-122.5 20t-122.5 -20t-87 -55t-55.5 -87t-30 -110.5t-8.5 -131zM284 1208v178h165v-178h-165zM690 1208v178h164v-178h-164z" />
<glyph unicode="&#xf7;" horiz-adv-x="1445" d="M200 462v119h1041v-119h-1041zM632 0v194h176v-194h-176zM632 849v192h176v-192h-176z" />
<glyph unicode="&#xf8;" d="M101 520q0 124 26 221.5t80 171t144.5 112.5t213.5 39q170 0 278 -77l40 54h138l-97 -131q106 -134 106 -390q0 -125 -26 -222t-80.5 -170t-145.5 -111.5t-215 -38.5q-172 0 -275 74l-38 -52h-140l95 129q-104 138 -104 391zM262 518q0 -162 45 -254l445 601 q-73 59 -191 59q-68 0 -120 -20t-85.5 -55t-55 -87t-30 -111.5t-8.5 -132.5zM378 174q71 -57 187 -57q70 0 123 20t87 54.5t55.5 86t30.5 110t9 130.5q0 163 -45 258z" />
<glyph unicode="&#xf9;" horiz-adv-x="1144" d="M157 322v719h159v-701q0 -79 24 -129t68.5 -72t111.5 -22q72 0 149 23.5t144 64.5v836h158v-1041h-122l-13 97q-35 -26 -74 -47t-82.5 -37.5t-92.5 -25.5t-99 -9q-153 0 -242 87.5t-89 256.5zM331 1415l135 105l212 -340l-68 -54z" />
<glyph unicode="&#xfa;" horiz-adv-x="1144" d="M157 322v719h159v-701q0 -79 24 -129t68.5 -72t111.5 -22q72 0 149 23.5t144 64.5v836h158v-1041h-122l-13 97q-35 -26 -74 -47t-82.5 -37.5t-92.5 -25.5t-99 -9q-153 0 -242 87.5t-89 256.5zM458 1180l213 340l135 -105l-279 -289z" />
<glyph unicode="&#xfb;" horiz-adv-x="1144" d="M157 322v719h159v-701q0 -79 24 -129t68.5 -72t111.5 -22q72 0 149 23.5t144 64.5v836h158v-1041h-122l-13 97q-35 -26 -74 -47t-82.5 -37.5t-92.5 -25.5t-99 -9q-153 0 -242 87.5t-89 256.5zM279 1182l228 269h125l230 -269l-64 -51l-228 210l-228 -210z" />
<glyph unicode="&#xfc;" horiz-adv-x="1144" d="M157 322v719h159v-701q0 -79 24 -129t68.5 -72t111.5 -22q72 0 149 23.5t144 64.5v836h158v-1041h-122l-13 97q-35 -26 -74 -47t-82.5 -37.5t-92.5 -25.5t-99 -9q-153 0 -242 87.5t-89 256.5zM286 1208v178h165v-178h-165zM692 1208v178h164v-178h-164z" />
<glyph unicode="&#xfd;" horiz-adv-x="995" d="M58 1041h170q132 -514 279 -915h18q166 488 259 915h158q-57 -237 -129 -486t-158 -501t-173 -464h-151q77 187 155 410h-82q-182 458 -346 1041zM449 1180l213 340l136 -105l-280 -289z" />
<glyph unicode="&#xfe;" horiz-adv-x="1135" d="M174 -410v1861h157v-492q72 53 143 79t154 26q133 0 219 -63.5t125.5 -185t39.5 -303.5q0 -274 -96 -404t-314 -130q-129 0 -271 33v-421h-157zM331 133q123 -25 241 -25q69 0 118.5 18t80.5 49.5t49 83t24.5 110t6.5 138.5q0 112 -12.5 188.5t-42.5 128.5t-78.5 76 t-120.5 24q-133 0 -266 -81v-710z" />
<glyph unicode="&#xff;" horiz-adv-x="995" d="M58 1041h170q132 -514 279 -915h18q166 488 259 915h158q-57 -237 -129 -486t-158 -501t-173 -464h-151q77 187 155 410h-82q-182 458 -346 1041zM228 1208v178h164v-178h-164zM632 1208v178h166v-178h-166z" />
<glyph unicode="&#x152;" horiz-adv-x="1815" d="M106 725q0 369 156.5 547.5t492.5 178.5h960v-146h-608v-480h501v-147h-501v-532h608v-146h-960q-336 0 -492.5 178t-156.5 547zM275 725q0 -160 29.5 -271.5t90 -179t146.5 -98t207 -30.5h191v1159h-191q-121 0 -207 -30.5t-146.5 -98.5t-90 -179.5t-29.5 -271.5z" />
<glyph unicode="&#x153;" horiz-adv-x="1752" d="M101 520q0 96 14.5 176t47 149t83 116.5t126 75t171.5 27.5q258 0 369 -190q51 93 140 141.5t203 48.5q100 0 177 -36.5t125 -101t72 -149t24 -184.5q0 -72 -9 -129h-657q2 -87 20 -150.5t53.5 -108t91.5 -66.5t134 -22q150 0 311 77l47 -125q-71 -38 -168.5 -64.5 t-200.5 -26.5q-128 0 -222.5 46t-142.5 143q-50 -89 -145.5 -139t-226.5 -50q-115 0 -200 39t-136.5 112t-76 170t-24.5 221zM262 520.5q0 -72.5 8 -131.5t28 -111t52 -86.5t81.5 -54.5t114 -20t114 20t81.5 54.5t52 86.5t28 111t8 131q0 61 -5.5 111t-18.5 96.5t-35 82 t-52.5 61.5t-74 39.5t-97.5 13.5q-65 0 -114.5 -20t-81.5 -55t-52 -87t-28 -110.5t-8 -131zM987 595h516q0 70 -13 127t-40.5 103.5t-76.5 72.5t-116 26q-66 0 -118 -25t-84 -70t-49.5 -104t-18.5 -130z" />
<glyph unicode="&#x178;" horiz-adv-x="1243" d="M41 1451h182q179 -433 399 -784h4q222 356 399 784h178q-218 -499 -498 -929v-522h-167v522q-277 425 -497 929zM340 1613v178h165v-178h-165zM746 1613v178h164v-178h-164z" />
<glyph unicode="&#x17f;" horiz-adv-x="666" d="M79 910v115l151 9v131q0 165 68 236.5t233 71.5q62 0 161 -9l-9 -137q-74 6 -137 6q-94 0 -126.5 -34.5t-32.5 -138.5v-1160h-157v910h-151z" />
<glyph unicode="&#x2c6;" horiz-adv-x="950" d="M183 1182l227 269h126l230 -269l-65 -51l-228 210l-228 -210z" />
<glyph unicode="&#x2dc;" horiz-adv-x="972" d="M138 1239q32 85 76.5 129t109.5 44q24 0 49 -5.5t48.5 -14.5t47 -19.5t47 -21.5t45 -20t44 -14.5t42.5 -5.5q39 0 65.5 23.5t46.5 69.5l75 -39q-33 -86 -76.5 -130t-110.5 -44q-39 0 -86 16t-82.5 35.5t-78 35.5t-73.5 16q-21 0 -38 -6.5t-30.5 -18.5t-24 -28.5 t-20.5 -39.5z" />
<glyph unicode="&#x2000;" horiz-adv-x="965" />
<glyph unicode="&#x2001;" horiz-adv-x="1930" />
<glyph unicode="&#x2002;" horiz-adv-x="965" />
<glyph unicode="&#x2003;" horiz-adv-x="1930" />
<glyph unicode="&#x2004;" horiz-adv-x="643" />
<glyph unicode="&#x2005;" horiz-adv-x="482" />
<glyph unicode="&#x2006;" horiz-adv-x="321" />
<glyph unicode="&#x2007;" horiz-adv-x="321" />
<glyph unicode="&#x2008;" horiz-adv-x="241" />
<glyph unicode="&#x2009;" horiz-adv-x="386" />
<glyph unicode="&#x200a;" horiz-adv-x="107" />
<glyph unicode="&#x2010;" horiz-adv-x="679" d="M101 494v125h475v-125h-475z" />
<glyph unicode="&#x2011;" horiz-adv-x="679" d="M101 494v125h475v-125h-475z" />
<glyph unicode="&#x2012;" horiz-adv-x="679" d="M101 494v125h475v-125h-475z" />
<glyph unicode="&#x2013;" horiz-adv-x="1515" d="M200 496v121h1113v-121h-1113z" />
<glyph unicode="&#x2014;" horiz-adv-x="1702" d="M92 496v121h1521v-121h-1521z" />
<glyph unicode="&#x2018;" horiz-adv-x="540" d="M180 1032q0 264 115 423l66 -9q-25 -110 -25 -245q0 -82 10 -160z" />
<glyph unicode="&#x2019;" horiz-adv-x="540" d="M180 1041q25 105 25 257q0 85 -9 148l165 9q0 -266 -113 -423z" />
<glyph unicode="&#x201a;" horiz-adv-x="372" d="M103 202h168q0 -104 -7 -199t-19 -167t-28 -115h-60q-22 65 -37 195t-17 286z" />
<glyph unicode="&#x201c;" horiz-adv-x="804" d="M180 1032q0 264 115 423l66 -9q-25 -110 -25 -245q0 -82 10 -160zM443 1032q0 263 116 423l65 -9q-24 -105 -24 -245q0 -82 10 -160z" />
<glyph unicode="&#x201d;" horiz-adv-x="804" d="M180 1041q25 105 25 257q0 85 -9 148l165 9q0 -266 -113 -423zM443 1041q26 110 26 257q0 85 -9 148l164 9q0 -267 -112 -423z" />
<glyph unicode="&#x201e;" horiz-adv-x="664" d="M103 202h168q0 -104 -7 -199t-19 -167t-28 -115h-60q-22 65 -37 195t-17 286zM394 202h167q0 -157 -15 -286.5t-39 -194.5h-58q-23 66 -38.5 196t-16.5 285z" />
<glyph unicode="&#x2022;" horiz-adv-x="869" d="M200 739.5q0 110.5 61 168t173.5 57.5t173.5 -57.5t61 -168t-61 -168t-173.5 -57.5t-173.5 57.5t-61 168z" />
<glyph unicode="&#x2026;" horiz-adv-x="1466" d="M221 0v194h181v-194h-181zM630 0v194h181v-194h-181zM1041 0v194h180v-194h-180z" />
<glyph unicode="&#x202f;" horiz-adv-x="386" />
<glyph unicode="&#x2039;" horiz-adv-x="657" d="M69 543q0 49 24.5 95.5t75.5 102.5q102 110 295 286l90 -94q-29 -27 -64 -60t-70.5 -67t-67.5 -66t-57.5 -58.5t-38.5 -41.5q-42 -47 -42 -94t42 -95q34 -39 129 -132.5t169 -161.5l-90 -99q-193 177 -295 286q-51 56 -75.5 103t-24.5 96z" />
<glyph unicode="&#x203a;" horiz-adv-x="657" d="M101 153q73 66 168 160t129 134q43 48 43 94t-43 95q-34 39 -128.5 132t-168.5 160l90 99q194 -177 295 -286q35 -37 56 -68.5t32 -63.5t11 -66q0 -49 -23.5 -96t-75.5 -103q-101 -109 -295 -286z" />
<glyph unicode="&#x2044;" horiz-adv-x="925" d="M-41 0l868 1451h132l-867 -1451h-133z" />
<glyph unicode="&#x205f;" horiz-adv-x="482" />
<glyph unicode="&#x20ac;" horiz-adv-x="1315" d="M69 512v135h161q-4 101 2 176h-159v134h172q28 177 120 305q81 112 202 161.5t284 49.5q189 0 366 -45l-28 -142q-190 41 -338 41q-119 0 -208 -36t-147 -122q-55 -77 -79 -212h572v-134h-587q-10 -91 -4 -176h591v-135h-577q25 -144 79 -228q103 -160 334 -160 q96 0 200 25t194 65l51 -133q-95 -49 -219 -76t-240 -27q-309 0 -452 207q-90 128 -116 327h-174z" />
<glyph unicode="&#x2122;" horiz-adv-x="1576" d="M56 1343v108h602v-108h-241v-698h-122v698h-239zM735 645l17 806h140l234 -501h3l234 501h140l17 -806h-123l-9 585h-2l-201 -428h-110l-201 428h-2l-10 -585h-127z" />
<glyph unicode="&#x25fc;" horiz-adv-x="1036" d="M0 0v1036h1036v-1036h-1036z" />
<glyph horiz-adv-x="1776" d="M81 840q0 151 106.5 229.5t294.5 78.5q136 0 304 -35l-20 -129q-151 30 -278 30q-43 0 -79.5 -5t-68.5 -17t-54 -30.5t-34.5 -46.5t-12.5 -64q0 -20 4.5 -37.5t10.5 -31.5t19.5 -27.5t24 -23t32 -20.5t35.5 -17.5t42.5 -16l45 -15t51.5 -15.5q14 -5 21 -7q2 0 5 -2 q43 -13 65.5 -20.5t61.5 -24t60 -31t49 -39.5t42 -53t24.5 -67.5t10.5 -86.5q0 -166 -111.5 -250t-316.5 -84q-155 0 -327 36l20 128q163 -29 300 -29q277 0 277 192q0 48 -14 80t-56 56.5t-78 37.5t-118 38q-7 3 -11 4q-64 19 -108.5 36.5t-88.5 44t-70.5 58t-43 76 t-16.5 100.5zM961 840q0 151 107 229.5t295 78.5q136 0 305 -35l-21 -129q-151 30 -277 30q-44 0 -80.5 -5t-68.5 -17t-54 -30.5t-34.5 -46.5t-12.5 -64q0 -20 4.5 -37.5t10.5 -31.5t19.5 -27.5t24 -23t32 -20.5t35.5 -17.5t42.5 -16t45.5 -15t51 -15.5q14 -5 21 -7 q2 0 6 -2q60 -18 91.5 -29.5t81 -38.5t74.5 -57.5t45 -81.5t20 -115q0 -166 -111.5 -250t-316.5 -84q-155 0 -327 36l20 128q163 -29 299 -29q277 0 277 192q0 39 -12.5 68t-28.5 47.5t-57 37t-71 29t-97 30.5q-3 1 -4 1.5t-3 1t-4 1.5q-64 19 -108.5 36.5t-88.5 44 t-70.5 58t-43 76t-16.5 100.5z" />
<glyph horiz-adv-x="1026" d="M86 307q0 225 176 286v4q-154 62 -154 243q0 81 29 141.5t83.5 96.5t125 53t159.5 17q125 0 315 -35l-20 -129q-146 30 -280 30q-43 0 -77.5 -4t-69 -16t-57 -31.5t-36.5 -53.5t-14 -80q0 -64 28 -104t82 -57t140 -17h518v-126h-144v-214q0 -329 -406 -329 q-194 0 -296 78t-102 247zM243 322q0 -115 60.5 -160t184.5 -45q135 0 194 47t59 154v207h-241q-94 0 -150 -21t-81.5 -65t-25.5 -117z" />
<glyph horiz-adv-x="957" d="M103 838q0 67 22.5 120.5t64.5 91t100 60.5t131 32v167h147v-163q112 -6 252 -33l-20 -129q-156 30 -284 30q-254 0 -254 -163q0 -20 4.5 -37.5t10.5 -31.5t20 -27.5t24.5 -23t32.5 -20.5t36 -17t43 -16t46 -15.5t51 -15.5q5 -2 7.5 -2.5t7 -2l7.5 -2.5q2 0 5 -1 q44 -14 67 -21.5t62.5 -23.5t61.5 -31t50.5 -40t43 -53t25 -67.5t10.5 -86.5q0 -139 -81.5 -220.5t-230.5 -104.5v-169h-144v160q-142 4 -311 36l21 128q168 -29 299 -29q288 0 288 194q0 38 -13 66t-30.5 46.5t-59.5 37.5t-72.5 29.5t-97.5 31.5q-7 2 -11 3 q-46 14 -80.5 26.5t-71 29t-62 33.5t-49 40t-37.5 49.5t-22.5 60.5t-8.5 74z" />
<glyph horiz-adv-x="1045" d="M58 389v118h122q-3 62 0 123h-122v122h136q27 152 103 244q45 55 106 89.5t128.5 48.5t151.5 14q147 0 291 -33l-24 -131q-144 30 -262 30q-93 0 -160 -25t-111 -86q-43 -58 -63 -151h437v-122h-453q-4 -61 0 -123h453v-118h-440q17 -93 57 -153q77 -119 256 -119 q145 0 310 66l42 -123q-75 -36 -172.5 -57t-192.5 -21q-249 0 -367 162q-70 97 -93 245h-133z" />
<glyph horiz-adv-x="880" d="M95 486v114l101 6q-17 52 -26 83.5t-17.5 77.5t-8.5 84q0 139 100.5 218t271.5 79q128 0 288 -35l-20 -129q-151 30 -246 30q-41 0 -73.5 -4t-64 -16t-52.5 -31t-34 -50t-13 -73q0 -67 48 -223h315v-131h-279q23 -99 23 -142q0 -63 -27.5 -118.5t-73.5 -90.5h508v-135 h-718v112q48 22 82.5 54.5t54.5 77.5t20 98q0 62 -22 144h-137z" />
<glyph horiz-adv-x="1290" d="M67 879q0 126 65 197.5t188 71.5t187.5 -71.5t64.5 -197.5q0 -128 -64.5 -200.5t-187.5 -72.5t-188 72.5t-65 200.5zM187 879q0 -86 30.5 -130t102.5 -44q71 0 102 44.5t31 129.5q0 83 -31 126.5t-102 43.5q-72 0 -102.5 -43t-30.5 -127zM262 0l652 1131h118l-654 -1131 h-116zM720 252q0 128 65 200.5t188.5 72.5t187.5 -72.5t64 -200.5q0 -126 -64 -198t-187.5 -72t-188.5 72t-65 198zM840 252q0 -84 31 -127.5t103 -43.5t102.5 43.5t30.5 127.5q0 42 -7 73t-22 54t-41 35t-63 12q-72 0 -103 -44.5t-31 -129.5z" />
<glyph horiz-adv-x="1161" d="M81 0l108 142q-108 139 -108 423q0 292 122 437.5t376 145.5q187 0 309 -82l49 65h140l-110 -144q110 -143 110 -422q0 -292 -121.5 -437.5t-376.5 -145.5q-195 0 -308 83l-50 -65h-140zM239 565q0 -185 49 -290l510 673q-79 66 -219 66q-119 0 -194 -47t-110.5 -145.5 t-35.5 -256.5zM359 183q78 -66 220 -66q177 0 259 107.5t82 340.5q0 178 -53 291z" />
<glyph horiz-adv-x="1272" d="M108 563q0 128 33.5 234t98 184t166 121.5t230.5 43.5q130 0 231.5 -43.5t166 -122.5t98 -185t33.5 -234q0 -102 -21 -190.5t-64.5 -161.5t-105.5 -125t-148.5 -80.5t-189.5 -28.5q-130 0 -231.5 44.5t-166 124t-97.5 186t-33 233.5zM268 563q0 -96 22.5 -176.5 t66.5 -142t115.5 -96t165.5 -34.5q92 0 163 34t115 94.5t66 141t22 177.5q0 96 -22 176t-65.5 141t-115.5 94.5t-165 33.5q-74 0 -135 -21.5t-103.5 -61t-72 -94.5t-43.5 -122t-14 -144z" />
<glyph horiz-adv-x="858" d="M58 959l393 172h140v-1131h-159v967l-326 -120z" />
<glyph horiz-adv-x="1109" d="M103 0v126q94 52 158 89.5t141.5 86.5t129.5 89t104.5 89t83 94t50 97t19.5 105q0 73 -33.5 126t-94 80.5t-143.5 27.5q-87 0 -182.5 -28.5t-178.5 -71.5l-54 124q92 50 205 82t219 32q88 0 164 -23.5t133.5 -68t90.5 -116t33 -160.5q0 -60 -15 -116t-42 -104.5 t-68.5 -95.5t-88.5 -87.5t-109 -82.5t-123 -78t-137 -76h609v-140h-871z" />
<glyph horiz-adv-x="1028" d="M60 1047q86 45 197 73t218 28q89 0 163 -21.5t131 -64.5t89 -115t32 -167q0 -229 -189 -305q111 -37 163.5 -119.5t52.5 -217.5q0 -420 -480 -420q-162 0 -370 41l25 133q162 -34 327 -34q63 0 111.5 7t92.5 25.5t72.5 49t45 80t16.5 115.5q0 76 -20.5 127.5t-62.5 80.5 t-97.5 41t-133.5 12h-157v135h163q53 0 93.5 6t77 22t60 42t37 66.5t13.5 95.5q0 247 -261 247q-90 0 -188 -25.5t-169 -60.5z" />
<glyph horiz-adv-x="1166" d="M60 58v122q235 429 564 951h171q-263 -423 -554 -933h477l17 329h142v-329h267v-140h-267v-322h-159v322h-658z" />
<glyph horiz-adv-x="1073" d="M120 -241l24 140q73 -16 175.5 -28.5t183.5 -12.5q58 0 105 7.5t92 27.5t74.5 53t47.5 87t18 127q0 76 -19.5 130.5t-59.5 87.5t-96.5 48t-133.5 15h-385l26 690h750v-140h-606l-15 -408h258q217 0 329 -104.5t112 -316.5q0 -444 -495 -444q-159 0 -385 41z" />
<glyph horiz-adv-x="1175" d="M126 669q0 58 2.5 108t8 106t15.5 103.5t25 97t37 89.5t50.5 77.5t66.5 65.5t84 49t104 32t126 11q81 0 170 -14t159 -36l-28 -130q-57 18 -141.5 29t-151.5 11q-86 0 -150 -23.5t-104 -64.5t-64.5 -107t-35 -139t-13.5 -173q82 37 179.5 58t185.5 21q193 0 304 -104 t111 -308q0 -217 -124.5 -333.5t-344.5 -116.5q-84 0 -151.5 18t-116 50t-84.5 81t-58.5 105t-36 129t-19 145.5t-5.5 162.5zM286 642q1 -113 10.5 -193.5t31 -146.5t57.5 -105t90.5 -59.5t130.5 -20.5q299 0 299 307q0 68 -15 119t-48.5 89t-91 58t-140.5 20 q-145 0 -324 -68z" />
<glyph horiz-adv-x="1002" d="M45 991v140h886v-121q-193 -523 -490 -1274h-166q273 659 495 1255h-725z" />
<glyph horiz-adv-x="1180" d="M112 367q0 78 20.5 140.5t58 105.5t85.5 71t107 41q-110 27 -174.5 106t-64.5 212q0 171 113.5 268t335.5 97q221 0 332 -97t111 -268q0 -134 -63.5 -212.5t-172.5 -105.5q121 -26 194.5 -115.5t73.5 -242.5q0 -186 -119.5 -287.5t-358 -101.5t-358.5 101.5t-120 287.5z M273 378q0 -133 82.5 -197t235.5 -64t235 64t82 197q0 71 -23.5 124.5t-66 85.5t-99 47.5t-126.5 15.5q-71 0 -128.5 -15.5t-101 -47.5t-67 -85.5t-23.5 -124.5zM304 1034q0 -66 21.5 -114t61.5 -75.5t91 -40.5t115 -13q63 0 113 13t89 40.5t60.5 75.5t21.5 114 q0 117 -70 175.5t-214 58.5q-289 0 -289 -234z" />
<glyph horiz-adv-x="1175" d="M110 701q0 215 124 331t345 116q73 0 134 -13t107 -39.5t82 -61.5t61 -83.5t42 -101.5t26.5 -119t13.5 -131t4 -144q0 -64 -2.5 -119t-9.5 -117t-19.5 -113.5t-33 -104t-48 -93.5t-66.5 -77.5t-87.5 -60.5t-112.5 -38t-139 -14q-81 0 -170.5 14t-160.5 36l30 131 q59 -19 141.5 -30t148.5 -11q87 0 151 23t104.5 63.5t65 106t35 139t12.5 173.5q-81 -36 -179 -56.5t-184 -20.5q-192 0 -303.5 105t-111.5 310zM271 703q0 -69 15 -119.5t48.5 -89t92 -58t141.5 -19.5q149 0 322 65q-1 113 -10.5 194t-31 147t-57.5 105.5t-90.5 60.5 t-130.5 21q-299 0 -299 -307z" />
<glyph horiz-adv-x="1008" d="M30 0q157 560 366 1131h217q213 -584 367 -1131h-163l-76 271h-477q-14 -46 -77 -271h-157zM301 406h402q-75 249 -196 590h-9q-128 -362 -197 -590z" />
<glyph horiz-adv-x="1038" d="M146 0v1122q200 26 370 26q96 0 168 -15t127.5 -48.5t84 -92t28.5 -141.5q0 -199 -163 -249v-7q96 -28 144 -93t48 -182q0 -73 -19.5 -129t-55.5 -94.5t-91 -62.5t-123.5 -34.5t-156.5 -10.5q-161 0 -361 11zM299 126q79 -2 228 -2q51 0 88.5 4.5t73 17t58 34t35.5 57.5 t13 85q0 110 -60 157.5t-172 47.5h-264v-401zM299 649h262q104 0 154.5 41t50.5 139q0 57 -16.5 93.5t-52.5 56.5t-81 27.5t-113 7.5q-95 0 -204 -10v-355z" />
<glyph horiz-adv-x="961" d="M81 563q0 290 115 433q121 152 385 152q147 0 293 -33l-25 -131q-140 30 -264 30q-89 0 -156 -23.5t-113 -87.5q-39 -53 -58 -130.5t-19 -204.5q0 -223 68 -329q79 -122 256 -122q146 0 309 68l45 -122q-76 -38 -174.5 -59.5t-190.5 -21.5q-250 0 -367 160 q-104 144 -104 421z" />
<glyph horiz-adv-x="1107" d="M146 2v1120q194 26 340 26q285 0 414.5 -140.5t129.5 -444.5t-133 -439t-437 -135q-165 0 -314 13zM299 126q65 -2 178 -2q106 0 178.5 22t122 73.5t72 135.5t22.5 208q0 245 -93.5 348t-307.5 103q-80 0 -172 -10v-878z" />
<glyph horiz-adv-x="894" d="M146 0v1131h671v-135h-518v-345h438v-135h-438v-381h518v-135h-671z" />
<glyph horiz-adv-x="873" d="M146 0v1131h674v-135h-521v-368h440v-134h-440v-494h-153z" />
<glyph horiz-adv-x="1071" d="M84 565q0 149 29.5 254.5t91.5 178.5q68 81 164.5 115.5t227.5 34.5q133 0 323 -35l-21 -129q-134 30 -284 30q-102 0 -173 -24t-120 -89q-81 -108 -81 -336q0 -237 88 -346q83 -102 254 -102q105 0 217 40v422h153v-495q-84 -49 -188 -75.5t-208 -26.5q-220 0 -338 128 q-135 145 -135 455z" />
<glyph horiz-adv-x="1150" d="M146 0v1131h153v-480h550v480h153v-1131h-153v516h-550v-516h-153z" />
<glyph horiz-adv-x="447" d="M146 0v1131h153v-1131h-153z" />
<glyph horiz-adv-x="722" d="M36 0l16 131q93 -17 165 -17q124 0 168 58q39 46 39 177v782h155v-795q0 -185 -70 -267q-42 -48 -109.5 -67.5t-158.5 -19.5q-104 0 -205 18z" />
<glyph horiz-adv-x="1006" d="M146 0v1131h153v-493q265 243 490 493h195q-325 -340 -520 -516q285 -340 557 -615h-219q-202 214 -448 522h-55v-522h-153z" />
<glyph horiz-adv-x="841" d="M146 0v1131h153v-996h512v-135h-665z" />
<glyph horiz-adv-x="1376" d="M122 0q21 610 56 1131h226l279 -766h9l277 766h227q28 -427 57 -1131h-159q-14 422 -40 942h-9l-275 -746h-170l-278 746h-6q-26 -452 -43 -942h-151z" />
<glyph horiz-adv-x="1204" d="M146 0v1131h228l520 -942h11v942h152v-1131h-228l-520 942h-12v-942h-151z" />
<glyph horiz-adv-x="1161" d="M81 565.5q0 291.5 122 437t376 145.5q255 0 376.5 -145t121.5 -437.5t-121.5 -438t-376.5 -145.5q-254 0 -376 146t-122 437.5zM239 565q0 -156 35.5 -254.5t110.5 -146t194 -47.5q177 0 259 107.5t82 340.5q0 235 -82 342t-259 107q-119 0 -194 -47t-110.5 -145.5 t-35.5 -256.5z" />
<glyph horiz-adv-x="986" d="M146 0v1124q206 24 357 24q79 0 141.5 -9t119.5 -32.5t94.5 -62t59 -99.5t21.5 -143q0 -87 -23.5 -153t-63 -108t-96.5 -68.5t-118 -36.5t-133 -10q-67 0 -206 13v-439h-153zM299 561q15 -1 74.5 -4t95.5 -3q47 0 84.5 4t74.5 13.5t64 27.5t48 44t31.5 64.5t10.5 87.5 q0 65 -18.5 108.5t-57 67.5t-89 33.5t-123.5 9.5q-101 0 -195 -10v-443z" />
<glyph horiz-adv-x="1163" d="M81 563q0 196 53 325t163.5 194.5t281.5 65.5q255 0 378.5 -144t123.5 -430q0 -296 -126 -436q-111 -124 -340 -134v-2q169 -29 338 -110l-67 -137q-106 61 -231 117t-218.5 98t-148.5 80q-101 70 -154 191t-53 322zM239 565q0 -233 82 -340.5t260 -107.5 q179 0 261 107.5t82 340.5q0 235 -82 342t-261 107q-178 0 -260 -107t-82 -342z" />
<glyph horiz-adv-x="1010" d="M146 0v1126q184 22 350 22q77 0 138 -8.5t116.5 -30.5t92 -58.5t58 -95t21.5 -135.5q0 -271 -264 -332q99 -189 292 -488h-187q-127 213 -258 469q-147 0 -206 4v-473h-153zM299 597q77 -4 133 -4q177 0 255.5 48t78.5 172q0 39 -7.5 70t-22.5 53t-35.5 37.5t-49.5 24 t-61 12.5t-72 4q-100 0 -219 -12v-405z" />
<glyph horiz-adv-x="907" d="M81 840q0 151 106.5 229.5t294.5 78.5q136 0 304 -35l-20 -129q-151 30 -278 30q-43 0 -79.5 -5t-68.5 -17t-54 -30.5t-34.5 -46.5t-12.5 -64q0 -20 4.5 -37.5t10.5 -31.5t19.5 -27.5t24 -23t32 -20.5t35.5 -17.5t42.5 -16l45 -15t51.5 -15.5q14 -5 21 -7q2 0 5 -2 q43 -13 65.5 -20.5t61.5 -24t60 -31t49 -39.5t42 -53t24.5 -67.5t10.5 -86.5q0 -166 -111.5 -250t-316.5 -84q-155 0 -327 36l20 128q163 -29 300 -29q277 0 277 192q0 48 -14 80t-56 56.5t-78 37.5t-118 38q-7 3 -11 4q-64 19 -108.5 36.5t-88.5 44t-70.5 58t-43 76 t-16.5 100.5z" />
<glyph horiz-adv-x="920" d="M36 996v135h847v-135h-347v-996h-153v996h-347z" />
<glyph d="M131 398v733h153v-710q0 -83 14.5 -140t48.5 -94t87 -53.5t131 -16.5q156 0 220 69.5t64 234.5v710h153v-733q0 -212 -104.5 -314t-332.5 -102q-113 0 -195.5 25.5t-135.5 78t-78 129.5t-25 183z" />
<glyph horiz-adv-x="1010" d="M36 1131h164q142 -520 303 -996h9q155 459 301 996h165q-140 -505 -365 -1131h-217q-201 559 -360 1131z" />
<glyph horiz-adv-x="1597" d="M52 1131h160q91 -513 237 -993h11q120 447 228 993h226q108 -546 228 -993h12q146 480 236 993h156q-100 -559 -289 -1131h-223q-133 501 -232 980h-7q-99 -479 -232 -980h-223q-189 572 -288 1131z" />
<glyph horiz-adv-x="1064" d="M50 0q163 256 391 576q-199 284 -368 555h181q116 -195 282 -430q165 235 281 430h179q-220 -344 -370 -555q239 -335 393 -576h-185q-112 186 -303 455q-183 -259 -301 -455h-180z" />
<glyph horiz-adv-x="1017" d="M32 1131h168q144 -328 309 -588h5q165 260 309 588h164q-171 -373 -402 -723v-408h-153v408q-227 345 -400 723z" />
<glyph horiz-adv-x="943" d="M67 0v117l621 881h-593v133h779v-117l-618 -879h625v-135h-814z" />
<glyph horiz-adv-x="1389" d="M7 0q226 546 520 1131h789v-135h-586l76 -345h426v-135h-394l84 -381h391v-135h-511l-61 271h-464q-19 -46 -110 -271h-160zM336 406h376l-121 542h-6q-100 -203 -249 -542z" />
<glyph horiz-adv-x="1457" d="M81 565q0 287 127 426.5t407 139.5h765v-135h-479v-345h397v-135h-397v-381h479v-135h-765q-280 0 -407 139t-127 426zM239 565q0 -158 40 -253t119 -136t208 -41h140v861h-140q-96 0 -163.5 -23t-114 -73.5t-68 -133t-21.5 -201.5z" />
<glyph horiz-adv-x="1333" d="M84 565.5q0 300.5 144.5 441.5t435.5 141t437.5 -140t146.5 -434q0 -177 -56 -259.5t-180 -82.5q-122 0 -176 77q-63 -40 -115.5 -58.5t-110.5 -18.5q-247 0 -247 333q0 120 32 196.5t94 112.5t156 36q134 0 275 -67v-355q0 -53 10 -86t31 -47.5t55 -14.5q29 0 48.5 9.5 t34.5 34.5t22.5 69.5t7.5 111.5q0 254 -110.5 366t-351.5 112q-243 0 -352.5 -112t-109.5 -365.5t109 -366.5t348 -113q150 0 293 40l27 -101q-143 -47 -326 -47q-285 0 -428.5 143.5t-143.5 444zM496 568q0 -120 33 -172t111 -52q83 0 158 43q-9 30 -9 88v307 q-65 18 -136 18q-83 0 -120 -51t-37 -181z" />
<glyph horiz-adv-x="1008" d="M30 0q157 560 366 1131h217q213 -584 367 -1131h-163l-76 271h-477q-14 -46 -77 -271h-157zM209 1505l135 105l213 -340l-69 -53zM301 406h402q-75 249 -196 590h-9q-128 -362 -197 -590z" />
<glyph horiz-adv-x="1008" d="M30 0q157 560 366 1131h217q213 -584 367 -1131h-163l-76 271h-477q-14 -46 -77 -271h-157zM301 406h402q-75 249 -196 590h-9q-128 -362 -197 -590zM434 1270l215 340l135 -105l-279 -288z" />
<glyph horiz-adv-x="1008" d="M30 0q157 560 366 1131h217q213 -584 367 -1131h-163l-76 271h-477q-14 -46 -77 -271h-157zM207 1273l227 268h127l230 -268l-66 -52l-227 209l-227 -209zM301 406h402q-75 249 -196 590h-9q-128 -362 -197 -590z" />
<glyph horiz-adv-x="1008" d="M30 0q157 560 366 1131h217q213 -584 367 -1131h-163l-76 271h-477q-14 -46 -77 -271h-157zM148 1329q33 85 77.5 129.5t110.5 44.5q31 0 67 -10.5t68 -25.5t63.5 -30t64 -25.5t59.5 -10.5q39 0 65.5 23.5t46.5 69.5l75 -39q-33 -86 -76.5 -129.5t-110.5 -43.5 q-39 0 -86 15.5t-82.5 34.5t-78 35t-73.5 16q-41 0 -66.5 -22.5t-45.5 -69.5zM301 406h402q-75 249 -196 590h-9q-128 -362 -197 -590z" />
<glyph horiz-adv-x="1008" d="M30 0q157 560 366 1131h217q213 -584 367 -1131h-163l-76 271h-477q-14 -46 -77 -271h-157zM214 1298v177h164v-177h-164zM301 406h402q-75 249 -196 590h-9q-128 -362 -197 -590zM619 1298v177h165v-177h-165z" />
<glyph horiz-adv-x="1008" d="M30 0q157 560 366 1131h217q213 -584 367 -1131h-163l-76 271h-477q-14 -46 -77 -271h-157zM301 406h402q-75 249 -196 590h-9q-128 -362 -197 -590zM307 1425.5q0 87.5 51 138.5t140 51q88 0 139 -51t51 -138q0 -58 -23 -101t-66 -66t-101 -23q-89 0 -140 51t-51 138.5z M385 1426q0 -117 113 -117q110 0 110 117q0 57 -27.5 88.5t-82.5 31.5q-28 0 -49.5 -8.5t-35.5 -24t-21 -37.5t-7 -50z" />
<glyph horiz-adv-x="961" d="M81 563q0 290 115 433q121 152 385 152q147 0 293 -33l-25 -131q-140 30 -264 30q-89 0 -156 -23.5t-113 -87.5q-39 -53 -58 -130.5t-19 -204.5q0 -223 68 -329q79 -122 256 -122q146 0 309 68l45 -122q-76 -38 -174.5 -59.5t-190.5 -21.5q-250 0 -367 160 q-104 144 -104 421zM417 -417l13 75q51 -12 84 -12q112 0 112 94q0 31 -12 50t-49 31t-101 12l13 70q133 0 192 -37t59 -118q0 -82 -52 -131t-142 -49q-58 0 -117 15z" />
<glyph horiz-adv-x="894" d="M146 0v1131h671v-135h-518v-345h438v-135h-438v-381h518v-135h-671zM228 1505l135 105l211 -340l-67 -53z" />
<glyph horiz-adv-x="894" d="M146 0v1131h671v-135h-518v-345h438v-135h-438v-381h518v-135h-671zM378 1270l215 340l135 -105l-279 -288z" />
<glyph horiz-adv-x="894" d="M146 0v1131h671v-135h-518v-345h438v-135h-438v-381h518v-135h-671zM198 1273l228 268h126l230 -268l-66 -52l-228 209l-226 -209z" />
<glyph horiz-adv-x="894" d="M146 0v1131h671v-135h-518v-345h438v-135h-438v-381h518v-135h-671zM200 1298v177h165v-177h-165zM606 1298v177h164v-177h-164z" />
<glyph horiz-adv-x="447" d="M-38 1505l135 105l212 -340l-68 -53zM153 0v1131h154v-1131h-154z" />
<glyph horiz-adv-x="447" d="M135 1270l214 340l135 -105l-279 -288zM153 0v1131h154v-1131h-154z" />
<glyph horiz-adv-x="447" d="M-67 1273l227 268h126l230 -268l-65 -52l-228 209l-227 -209zM151 0v1131h153v-1131h-153z" />
<glyph horiz-adv-x="447" d="M-58 1298v177h164v-177h-164zM151 0v1131h153v-1131h-153zM346 1298v177h166v-177h-166z" />
<glyph horiz-adv-x="1204" d="M146 0v1131h228l520 -942h11v942h152v-1131h-228l-520 942h-12v-942h-151zM234 1329q33 85 77 129.5t110 44.5q32 0 68 -10.5t68 -25.5t63.5 -30t64 -25.5t59.5 -10.5q38 0 65 23.5t47 69.5l75 -39q-33 -86 -76.5 -129.5t-110.5 -43.5q-39 0 -86 15.5t-83 34.5t-78 35 t-73 16q-41 0 -67 -22.5t-46 -69.5z" />
<glyph horiz-adv-x="1161" d="M81 565.5q0 291.5 122 437t376 145.5q255 0 376.5 -145t121.5 -437.5t-121.5 -438t-376.5 -145.5q-254 0 -376 146t-122 437.5zM239 565q0 -156 35.5 -254.5t110.5 -146t194 -47.5q177 0 259 107.5t82 340.5q0 235 -82 342t-259 107q-119 0 -194 -47t-110.5 -145.5 t-35.5 -256.5zM327 1505l135 105l211 -340l-67 -53z" />
<glyph horiz-adv-x="1161" d="M81 565.5q0 291.5 122 437t376 145.5q255 0 376.5 -145t121.5 -437.5t-121.5 -438t-376.5 -145.5q-254 0 -376 146t-122 437.5zM239 565q0 -156 35.5 -254.5t110.5 -146t194 -47.5q177 0 259 107.5t82 340.5q0 235 -82 342t-259 107q-119 0 -194 -47t-110.5 -145.5 t-35.5 -256.5zM480 1270l214 340l135 -105l-279 -288z" />
<glyph horiz-adv-x="1161" d="M81 565.5q0 291.5 122 437t376 145.5q255 0 376.5 -145t121.5 -437.5t-121.5 -438t-376.5 -145.5q-254 0 -376 146t-122 437.5zM239 565q0 -156 35.5 -254.5t110.5 -146t194 -47.5q177 0 259 107.5t82 340.5q0 235 -82 342t-259 107q-119 0 -194 -47t-110.5 -145.5 t-35.5 -256.5zM284 1273l228 268h126l229 -268l-65 -52l-228 209l-228 -209z" />
<glyph horiz-adv-x="1161" d="M81 565.5q0 291.5 122 437t376 145.5q255 0 376.5 -145t121.5 -437.5t-121.5 -438t-376.5 -145.5q-254 0 -376 146t-122 437.5zM223 1329q33 85 77 129.5t110 44.5q32 0 68 -10.5t68 -25.5t63.5 -30t64 -25.5t59.5 -10.5q38 0 65 23.5t47 69.5l75 -39 q-33 -86 -76.5 -129.5t-110.5 -43.5q-39 0 -86 15.5t-83 34.5t-78 35t-74 16q-40 0 -66.5 -23t-46.5 -69zM239 565q0 -156 35.5 -254.5t110.5 -146t194 -47.5q177 0 259 107.5t82 340.5q0 235 -82 342t-259 107q-119 0 -194 -47t-110.5 -145.5t-35.5 -256.5z" />
<glyph horiz-adv-x="1161" d="M81 565.5q0 291.5 122 437t376 145.5q255 0 376.5 -145t121.5 -437.5t-121.5 -438t-376.5 -145.5q-254 0 -376 146t-122 437.5zM239 565q0 -156 35.5 -254.5t110.5 -146t194 -47.5q177 0 259 107.5t82 340.5q0 235 -82 342t-259 107q-119 0 -194 -47t-110.5 -145.5 t-35.5 -256.5zM290 1298v177h165v-177h-165zM696 1298v177h164v-177h-164z" />
<glyph d="M131 398v733h153v-710q0 -83 14.5 -140t48.5 -94t87 -53.5t131 -16.5q156 0 220 69.5t64 234.5v710h153v-733q0 -212 -104.5 -314t-332.5 -102q-113 0 -195.5 25.5t-135.5 78t-78 129.5t-25 183zM301 1505l136 105l212 -340l-68 -53z" />
<glyph d="M131 398v733h153v-710q0 -83 14.5 -140t48.5 -94t87 -53.5t131 -16.5q156 0 220 69.5t64 234.5v710h153v-733q0 -212 -104.5 -314t-332.5 -102q-113 0 -195.5 25.5t-135.5 78t-78 129.5t-25 183zM462 1270l213 340l136 -105l-280 -288z" />
<glyph d="M131 398v733h153v-710q0 -83 14.5 -140t48.5 -94t87 -53.5t131 -16.5q156 0 220 69.5t64 234.5v710h153v-733q0 -212 -104.5 -314t-332.5 -102q-113 0 -195.5 25.5t-135.5 78t-78 129.5t-25 183zM271 1273l227 268h126l230 -268l-65 -52l-228 209l-228 -209z" />
<glyph d="M131 398v733h153v-710q0 -83 14.5 -140t48.5 -94t87 -53.5t131 -16.5q156 0 220 69.5t64 234.5v710h153v-733q0 -212 -104.5 -314t-332.5 -102q-113 0 -195.5 25.5t-135.5 78t-78 129.5t-25 183zM279 1298v177h164v-177h-164zM685 1298v177h164v-177h-164z" />
<glyph horiz-adv-x="1017" d="M32 1131h168q144 -328 309 -588h5q165 260 309 588h164q-171 -373 -402 -723v-408h-153v408q-227 345 -400 723zM434 1270l215 340l135 -105l-279 -288z" />
<glyph horiz-adv-x="1017" d="M32 1131h168q144 -328 309 -588h5q165 260 309 588h164q-171 -373 -402 -723v-408h-153v408q-227 345 -400 723zM221 1253v177h164v-177h-164zM626 1253v177h165v-177h-165z" />
<glyph horiz-adv-x="1123" d="M13 518v133h154v471q194 26 340 26q284 0 413 -140.5t129 -444.5t-132.5 -439t-436.5 -135q-164 0 -313 13v516h-154zM320 126q65 -2 178 -2q106 0 178.5 22t121.5 73.5t71.5 135.5t22.5 208q0 245 -93.5 348t-307.5 103q-79 0 -171 -10v-353h304v-133h-304v-392z" />
<glyph horiz-adv-x="986" d="M146 0v1131h153v-205q139 9 208 9q79 0 140.5 -9t118 -32t93.5 -61t58.5 -99t21.5 -143q0 -374 -434 -374q-61 0 -206 13v-230h-153zM299 351q84 -7 161 -7q60 0 105.5 5.5t88 20.5t69.5 41t43 68.5t16 101.5q0 52 -12.5 90.5t-35 63.5t-58 40t-78 21t-98.5 6 q-44 0 -201 -11v-440z" />
<glyph horiz-adv-x="605" d="M183 -183v1819h387v-127h-237v-1565h237v-127h-387z" />
<glyph horiz-adv-x="605" d="M36 -56h237v1565h-237v127h388v-1819h-388v127z" />
<glyph horiz-adv-x="660" d="M97 730q40 47 63 78t40 66.5t23.5 72.5t6.5 87v354q0 140 84.5 205t259.5 65v-72q-39 -8 -64 -17t-47.5 -23.5t-35 -33t-22 -49t-13 -69t-3.5 -94.5v-286q0 -60 -17.5 -110.5t-51 -92t-86.5 -81.5q49 -35 79.5 -70.5t47.5 -79t22.5 -89.5t5.5 -113v-286q0 -56 12 -95 t38.5 -63t57 -37t77.5 -23v-72q-174 0 -259 65t-85 206v353q0 95 -27.5 154.5t-105.5 149.5z" />
<glyph horiz-adv-x="660" d="M86 -126q37 8 63 17t50.5 25.5t39 39t23.5 57t9 79.5v355q0 89 38.5 156.5t118.5 126.5q-80 60 -118.5 127.5t-38.5 156.5v353q0 57 -12 96t-38.5 63t-57 37t-77.5 23v72q175 0 259.5 -65t84.5 -205v-354q0 -66 14 -114t39.5 -87.5t79.5 -102.5q-78 -90 -105.5 -149.5 t-27.5 -154.5v-353q0 -71 -21.5 -122.5t-64.5 -84.5t-107 -48.5t-151 -15.5v72z" />
<glyph horiz-adv-x="551" d="M144 718.5q0 140.5 15.5 263.5t51 244.5t99 231t152.5 200.5l45 -27q-61 -83 -102.5 -183t-63.5 -218t-31 -238.5t-9 -273t9 -273t31 -238.5t63.5 -217.5t102.5 -183.5l-45 -27q-89 91 -152.5 200.5t-99 231t-51 244.5t-15.5 263.5z" />
<glyph horiz-adv-x="551" d="M45 -194q61 84 102 183.5t63 217.5t31 238t9 273t-9 273.5t-31 238.5t-63 218t-102 183l45 27q90 -91 153 -200.5t98.5 -231t51 -244.5t15.5 -263.5t-15.5 -263.5t-51 -244.5t-98.5 -231t-153 -200.5z" />
<glyph horiz-adv-x="679" d="M101 658v126h475v-126h-475z" />
<glyph horiz-adv-x="1515" d="M200 660v122h1113v-122h-1113z" />
<glyph horiz-adv-x="1702" d="M92 660v122h1521v-122h-1521z" />
<glyph horiz-adv-x="657" d="M69 725q0 49 24.5 96t75.5 103q102 109 295 286l90 -95q-75 -68 -169.5 -161t-128.5 -131q-42 -48 -42 -95q0 -48 42 -96q34 -38 128.5 -130.5t169.5 -161.5l-90 -99q-193 177 -295 286q-51 56 -75.5 102.5t-24.5 95.5z" />
<glyph horiz-adv-x="657" d="M101 336q48 43 110 102.5t113.5 112t73.5 77.5q43 49 43 94.5t-43 94.5q-22 26 -73.5 78.5t-113.5 112t-110 103.5l90 99q194 -177 295 -286q52 -56 75.5 -103t23.5 -96t-23.5 -95.5t-75.5 -102.5q-101 -109 -295 -286z" />
<glyph horiz-adv-x="1047" d="M69 718q0 49 24.5 96t75.5 103q102 110 295 286l90 -94q-74 -68 -169 -161.5t-129 -132.5q-42 -47 -42 -94.5t42 -94.5q34 -38 128.5 -131t169.5 -162l-90 -99q-193 177 -295 286q-51 56 -75.5 102.5t-24.5 95.5zM460 718q0 50 23.5 97t75.5 102q101 109 295 286l90 -94 q-73 -67 -168 -160.5t-129 -133.5q-43 -49 -43 -94.5t43 -94.5q34 -39 128.5 -132t168.5 -161l-90 -99q-194 177 -295 286q-35 37 -56 69t-32 64t-11 65z" />
<glyph horiz-adv-x="1049" d="M101 329q74 67 168.5 160.5t128.5 132.5q43 48 43 94t-43 95q-34 39 -129 133t-168 160l90 99q194 -177 295 -286q52 -55 75.5 -102t23.5 -97q0 -33 -11 -65t-32 -64t-56 -69q-101 -109 -295 -286zM494 329q74 67 168.5 160.5t128.5 132.5q43 48 43 94t-43 95 q-35 39 -129.5 133t-167.5 160l89 99q201 -183 296 -286q51 -55 75 -102t24 -97q0 -33 -11 -65t-32.5 -64t-55.5 -69q-95 -102 -296 -286z" />
<glyph horiz-adv-x="602" d="M202 0l46 1045h106l44 -1045h-196zM209 1257v194h183v-194h-183z" />
<glyph horiz-adv-x="929" d="M41 346q0 37 5.5 70.5t13.5 59.5t24.5 55t29 48t37 47t39 43t44.5 45q56 55 85 88.5t54 74.5t34 83t10 99h142q0 -65 -9.5 -118.5t-23.5 -93t-43 -81t-57 -73t-75 -78.5q-36 -36 -55 -57.5t-42.5 -56t-34 -72t-10.5 -80.5q0 -74 32 -125t89 -75.5t134 -24.5 q76 0 158 22.5t148 58.5l57 -128q-78 -45 -177.5 -72t-198.5 -27q-87 0 -160.5 23t-130 67.5t-88 115.5t-31.5 162zM389 1257v194h183v-194h-183z" />
<glyph horiz-adv-x="542" d="M183 624v193h180v-193h-180z" />
<glyph horiz-adv-x="503" d="M174 0v1041h157v-1041h-157zM174 1253v198h157v-198h-157z" />
<glyph horiz-adv-x="959" d="M50 1451h184q169 -356 336 -626h4q167 270 336 626h180q-148 -320 -370 -694h284v-135h-351v-212h351v-135h-351v-275h-167v275h-351v135h351v212h-351v135h284q-222 374 -369 694z" />
</font>
</defs>
</svg>
