<?xml version="1.0" standalone="no"?>
<!DOCTYPE svg PUBLIC "-//W3C//DTD SVG 1.1//EN" "http://www.w3.org/Graphics/SVG/1.1/DTD/svg11.dtd" >
<svg xmlns="http://www.w3.org/2000/svg" xmlns:xlink="http://www.w3.org/1999/xlink" version="1.1">
<metadata></metadata>
<defs>
<font id="gestabold" horiz-adv-x="1468" >
<font-face units-per-em="2048" ascent="1497" descent="-551" />
<missing-glyph horiz-adv-x="565" />
<glyph unicode="&#xfb01;" horiz-adv-x="1303" d="M54 820v199l158 8v91q0 97 25.5 165.5t77 110t122.5 60.5t169 19q79 0 153 -7l-11 -230q-58 3 -138 3q-66 0 -99.5 -30.5t-33.5 -104.5v-63h688v-1041h-266v820h-422v-820h-265v820h-158zM899 1199v252h266v-252h-266z" />
<glyph unicode="&#xfb02;" horiz-adv-x="1294" d="M54 820v199l158 8v91q0 97 25.5 165.5t77 110t122.5 60.5t169 19q79 0 153 -7l-11 -230q-58 3 -138 3q-66 0 -99.5 -30.5t-33.5 -104.5v-63h221v-221h-221v-820h-265v820h-158zM890 0v1451h266v-1451h-266z" />
<glyph unicode="fj" horiz-adv-x="1303" d="M54 820v199l158 8v91q0 97 25.5 165.5t77 110t122.5 60.5t169 19q79 0 153 -7l-11 -230q-58 3 -138 3q-66 0 -99.5 -30.5t-33.5 -104.5v-63h688v-811q0 -224 -32 -375.5t-106 -264.5h-238q61 150 85.5 288t24.5 348v594h-422v-820h-265v820h-158zM899 1199v252h266v-252 h-266z" />
<glyph horiz-adv-x="0" />
<glyph horiz-adv-x="682" />
<glyph unicode=" "  horiz-adv-x="565" />
<glyph unicode="&#x09;" horiz-adv-x="565" />
<glyph unicode="&#xa0;" horiz-adv-x="565" />
<glyph unicode="!" horiz-adv-x="596" d="M146 1451h305l-68 -1055h-169zM169 0v262h259v-262h-259z" />
<glyph unicode="&#x22;" horiz-adv-x="718" d="M73 1496h247q-3 -318 -70 -482h-108q-67 161 -69 482zM398 1496h249q-3 -318 -71 -482h-107q-68 164 -71 482z" />
<glyph unicode="#" horiz-adv-x="1299" d="M77 424l29 169h203l50 272h-206l30 169h204l75 417h174l-75 -417h282l74 417h173l-74 -417h207l-29 -169h-207l-50 -272h209l-28 -169h-210l-76 -424h-174l77 424h-282l-77 -424h-174l77 424h-202zM482 593h281l50 272h-282z" />
<glyph unicode="$" horiz-adv-x="1195" d="M106 1049q0 172 97.5 274.5t269.5 134.5v225h266v-215q127 -6 277 -38l-34 -239q-210 34 -340 34q-40 0 -73 -3t-66.5 -13t-56.5 -26.5t-37.5 -44t-14.5 -63.5q0 -19 4 -36t10.5 -30.5t19.5 -26.5t24.5 -22t32 -20t36 -17.5t43 -17t46 -16.5t52 -17t54.5 -18 q45 -16 75 -27.5t72.5 -32.5t71.5 -42.5t60.5 -55t50.5 -71t31.5 -89.5t12.5 -112q0 -174 -93.5 -280.5t-259.5 -143.5v-232h-266v212q-184 8 -349 35l31 239q200 -28 352 -28q297 0 297 186q0 19 -2.5 34t-9 29t-13 25t-20 22.5t-25 20t-33 19t-38.5 18t-46 18.5t-52 19 t-60 21q-43 15 -71.5 25.5t-66 26t-62.5 29.5t-54.5 34t-49 40.5t-39 48t-30.5 58t-17.5 68.5t-6.5 81z" />
<glyph unicode="%" horiz-adv-x="1720" d="M81 1115q0 108 36 187.5t111 125t184 45.5q163 0 247.5 -96.5t84.5 -261t-84.5 -261.5t-247 -97t-247 97t-84.5 261zM286 1120q0 -44 5.5 -76t19 -59t39 -40.5t63 -13.5t63 13.5t38.5 40.5t18.5 59t5.5 76q0 89 -26.5 134.5t-99.5 45.5q-37 0 -62.5 -12.5t-39 -37.5 t-19 -56t-5.5 -74zM309 0l905 1451h183l-906 -1451h-182zM978 335.5q0 164.5 84 261.5t247 97t247 -97t84 -261.5t-84 -261t-247 -96.5t-247 96.5t-84 261zM1182 331q0 -89 27 -134.5t100 -45.5t100 45.5t27 134.5q0 35 -3.5 61.5t-12 51.5t-22.5 41t-36.5 25.5t-52.5 9.5 q-38 0 -63.5 -13.5t-39 -40.5t-19 -59t-5.5 -76z" />
<glyph unicode="&#x26;" horiz-adv-x="1408" d="M129 412q0 122 50.5 212t136.5 135v2q-36 19 -65 46.5t-51 63t-33.5 80.5t-11.5 96q0 90 25.5 162t71.5 121t112 81.5t144.5 47t171.5 14.5q148 0 390 -43l-32 -234q-181 29 -301 29q-47 0 -84 -3t-78 -14t-68.5 -30t-45.5 -52t-18 -79q0 -100 60.5 -140t184.5 -40h664 v-239h-172v-216q0 -217 -130.5 -325.5t-382.5 -108.5q-285 0 -411.5 101.5t-126.5 332.5zM417 428q0 -62 11 -99.5t41 -61.5t77.5 -32.5t126.5 -8.5q130 0 181 49.5t51 161.5v191h-260q-125 0 -176.5 -44.5t-51.5 -155.5z" />
<glyph unicode="'" horiz-adv-x="391" d="M73 1496h247q-3 -318 -70 -482h-108q-67 161 -69 482z" />
<glyph unicode="(" horiz-adv-x="555" d="M92 533.5q0 228.5 41.5 405t120 306t201.5 238.5l54 -39q-97 -150 -142 -371t-45 -539.5t45 -539t142 -370.5l-54 -39q-123 109 -201.5 238.5t-120 305.5t-41.5 404.5z" />
<glyph unicode=")" horiz-adv-x="555" d="M47 -376q98 150 142.5 370.5t44.5 539t-44.5 539.5t-142.5 371l54 39q124 -109 202.5 -238.5t119.5 -306t41 -405t-41 -404.5t-119.5 -305.5t-202.5 -238.5z" />
<glyph unicode="*" horiz-adv-x="744" d="M73 1041l166 101l-166 101l65 107l171 -99v200h128v-200l171 99l65 -107l-166 -101l166 -101l-65 -106l-171 99v-200h-128v200l-171 -99z" />
<glyph unicode="+" horiz-adv-x="1324" d="M144 421v198h408v422h220v-422h408v-198h-408v-421h-220v421h-408z" />
<glyph unicode="," horiz-adv-x="535" d="M131 -262q36 123 36 264q0 107 -25 230l260 13q4 -27 4 -80q0 -120 -44 -233.5t-117 -204.5z" />
<glyph unicode="-" horiz-adv-x="647" d="M73 462v200h503v-200h-503z" />
<glyph unicode="." horiz-adv-x="520" d="M131 0v262h258v-262h-258z" />
<glyph unicode="/" horiz-adv-x="888" d="M28 0l604 1451h230l-606 -1451h-228z" />
<glyph unicode="0" horiz-adv-x="1288" d="M99 728q0 158 16.5 274t54 208t100.5 148.5t155 85.5t217.5 29t217.5 -29t155 -86t101 -148.5t54.5 -207.5t16.5 -274t-16.5 -275t-54.5 -209.5t-101 -149.5t-155 -86.5t-217.5 -29.5t-217.5 29.5t-155 86.5t-100.5 149.5t-54 209.5t-16.5 275zM383 728q0 -70 1 -111.5 t4 -97t10.5 -88t19.5 -70.5t31.5 -59t46 -40.5t63.5 -27.5t83 -8q42 0 75.5 7.5t59 19t45 34.5t33 45t22.5 59t14.5 68t8 81t3 88.5t0.5 99.5q0 70 -1 112t-4.5 96.5t-10.5 86.5t-19.5 69.5t-32 58.5t-46 40t-63.5 26.5t-83.5 7.5t-83.5 -7.5t-63.5 -27t-46 -40t-31.5 -58 t-19.5 -69.5t-10.5 -87t-4 -96.5t-1 -111.5z" />
<glyph unicode="1" horiz-adv-x="871" d="M15 1243l409 208h249v-1451h-284v1160l-281 -111z" />
<glyph unicode="2" horiz-adv-x="1168" d="M92 1378q90 42 207.5 68.5t231.5 26.5q90 0 168 -18t142 -54t110 -88t71 -123t25 -156q0 -59 -11 -115t-36 -110t-51 -100t-71.5 -99t-80.5 -91.5t-96 -92.5t-99.5 -87.5t-107.5 -90.5h574v-248h-946v212q335 286 486 473t151 329q0 50 -17.5 89.5t-50.5 66.5t-81 41 t-107 14q-79 0 -169.5 -20.5t-166.5 -48.5z" />
<glyph unicode="3" horiz-adv-x="1090" d="M56 1378q57 26 132 47.5t159.5 34.5t157.5 13q212 0 340.5 -106t128.5 -286q0 -102 -43.5 -184t-130.5 -129q105 -45 152.5 -127t47.5 -215q0 -121 -36.5 -208t-107 -139t-165.5 -76.5t-220 -24.5q-163 0 -390 37l31 235q191 -24 316 -24q55 0 96.5 5t78 19t59.5 37.5 t36.5 61.5t13.5 90q0 63 -20 103.5t-69.5 63t-131.5 22.5h-169v239h162q105 0 153 38t48 133q0 65 -22.5 106t-68.5 61t-119 20q-150 0 -344 -67z" />
<glyph unicode="4" horiz-adv-x="1227" d="M50 262v211q273 483 574 978h304q-254 -406 -567 -944h342l22 306h262v-306h212v-245h-212v-262h-284v262h-653z" />
<glyph unicode="5" horiz-adv-x="1168" d="M117 13l31 237q179 -24 338 -24q36 0 63.5 1t58 5t52.5 11.5t44.5 19.5t37.5 29.5t27 41t18 55.5t6 71q0 115 -56 163t-187 48h-412l24 780h836v-248h-574l-7 -289h168q90 0 163.5 -14t136.5 -46.5t105.5 -83.5t66.5 -128.5t24 -177.5q0 -246 -140.5 -366t-426.5 -120 q-164 0 -397 35z" />
<glyph unicode="6" horiz-adv-x="1215" d="M97 707q0 95 8 176.5t27.5 160.5t50 142.5t76.5 118t106.5 91t141.5 57t178 20.5q77 0 173.5 -11.5t175.5 -28.5l-36 -239q-178 31 -270 31q-93 0 -158 -25t-103 -76.5t-56.5 -118.5t-23.5 -162q134 67 305 67q219 0 335.5 -117t116.5 -329q0 -226 -133.5 -356 t-378.5 -130q-278 0 -406.5 181.5t-128.5 547.5zM387 628q4 -77 13.5 -136.5t29 -111t48.5 -84.5t72.5 -51.5t100.5 -18.5q205 0 205 229q0 112 -54.5 166t-173.5 54q-123 0 -241 -47z" />
<glyph unicode="7" horiz-adv-x="1062" d="M63 1203v248h978v-181q-221 -626 -503 -1270h-284q320 716 494 1203h-685z" />
<glyph unicode="8" horiz-adv-x="1234" d="M97 410q0 71 19 129.5t52.5 99t74 68t88.5 45.5q-87 32 -149 113t-62 194q0 91 29.5 165t88.5 130.5t155.5 87.5t223.5 31q102 0 185 -20.5t140.5 -57t97 -88.5t57.5 -114t18 -134q0 -47 -12 -90t-32 -76.5t-47.5 -61.5t-57.5 -47.5t-63 -31.5q49 -18 89 -45.5t73.5 -68 t52.5 -99t19 -129.5q0 -210 -130 -321t-390 -111q-174 0 -290.5 50.5t-173 146.5t-56.5 235zM385 424q0 -102 58 -150t174 -48t174 48t58 150q0 202 -232 202t-232 -202zM408 1047.5q0 -48.5 14 -82.5t41.5 -54.5t65 -29.5t88.5 -9q104 0 157 40.5t53 134.5 q0 95 -53.5 136.5t-156.5 41.5q-50 0 -88 -9.5t-65.5 -30t-41.5 -55t-14 -83z" />
<glyph unicode="9" horiz-adv-x="1217" d="M73 987q0 226 133 356t379 130q142 0 244.5 -46t167 -139t95 -227.5t30.5 -316.5q0 -95 -8 -176.5t-27 -160.5t-49.5 -142.5t-77 -118t-106.5 -91t-141 -57t-179 -20.5q-78 0 -175.5 11.5t-173.5 28.5l36 238q167 -30 270 -30q75 0 131 16.5t93 47t61 78.5t35.5 104.5 t15.5 131.5q-131 -63 -300 -63q-146 0 -248.5 53.5t-154 153t-51.5 239.5zM365 996q0 -112 53.5 -166t172.5 -54q130 0 236 44q-3 77 -11.5 136.5t-27 111.5t-47.5 85.5t-72.5 52.5t-100.5 19q-203 0 -203 -229z" />
<glyph unicode=":" horiz-adv-x="551" d="M146 0v262h260v-262h-260zM146 780v261h260v-261h-260z" />
<glyph unicode=";" horiz-adv-x="598" d="M146 780v261h260v-261h-260zM178 -262q36 123 36 264q0 107 -25 230l260 13q4 -27 4 -80q0 -120 -43.5 -233.5t-116.5 -204.5z" />
<glyph unicode="&#x3c;" horiz-adv-x="968" d="M144 439v163q277 195 681 455v-264q-254 -155 -419 -266v-5q165 -110 419 -266v-271q-422 272 -681 454z" />
<glyph unicode="=" horiz-adv-x="1234" d="M144 217v202h946v-202h-946zM144 622v203h946v-203h-946z" />
<glyph unicode="&#x3e;" horiz-adv-x="968" d="M144 -15v263q254 155 419 266v4q-165 111 -419 266v273q404 -260 681 -455v-163q-259 -182 -681 -454z" />
<glyph unicode="?" horiz-adv-x="1008" d="M28 1361q89 49 206 80.5t226 31.5q74 0 139.5 -15.5t120 -47.5t94 -77t61 -107t21.5 -136q0 -39 -7 -75.5t-16 -64t-28.5 -58.5t-33.5 -50t-41 -46.5t-41.5 -41t-45.5 -40.5q-48 -44 -70.5 -67.5t-40.5 -57.5t-23.5 -70.5t-7.5 -99.5h-240q0 99 8.5 166t29 117t48.5 84 t75 74q40 34 61.5 54.5t44 48.5t31.5 56.5t9 61.5q0 73 -45.5 108.5t-130.5 35.5q-72 0 -159 -23.5t-156 -57.5zM297 0v262h260v-262h-260z" />
<glyph unicode="@" horiz-adv-x="1720" d="M122 728q0 162 32 287t92 211.5t151 141.5t204 80t257 25q179 0 313.5 -39.5t231.5 -124.5t146.5 -224t49.5 -333q0 -225 -73 -335t-240 -110q-144 0 -224 80q-70 -42 -132.5 -61t-131.5 -19q-170 0 -244 106t-74 312q0 235 89.5 342t264.5 107q60 0 124.5 -12.5t126 -34 t116.5 -50.5v-473q0 -62 23 -89t67 -27q27 0 45.5 10t33.5 36.5t22 76t7 124.5q0 155 -31.5 262t-99 173.5t-166.5 96t-241.5 29.5t-241.5 -29.5t-166.5 -97t-99 -176.5t-31.5 -268q0 -158 31.5 -267t98.5 -176t165.5 -97t240.5 -30q183 0 363 43l34 -168 q-69 -21 -181 -36.5t-229 -15.5q-139 0 -250.5 25.5t-200.5 81.5t-148.5 143t-91.5 212.5t-32 287.5zM698 735q0 -140 33 -194.5t118 -54.5q76 0 144 28q-6 29 -6 67v401q-58 14 -133 14q-57 0 -89.5 -21.5t-49.5 -79t-17 -160.5z" />
<glyph unicode="A" horiz-adv-x="1333" d="M38 0q195 727 439 1451h379q249 -740 440 -1451h-290q-56 225 -80 307h-522q-32 -108 -82 -307h-284zM471 554h387q-61 217 -189 640h-9q-128 -423 -189 -640z" />
<glyph unicode="B" horiz-adv-x="1312" d="M169 2v1431q114 16 252 27t237 11q60 0 113.5 -5t108.5 -17t100 -31t85 -49.5t67.5 -70t43 -95t15.5 -122.5q0 -84 -25 -149t-66.5 -104t-99.5 -60v-9q112 -35 166.5 -113t54.5 -220q0 -120 -37.5 -205.5t-113.5 -137.5t-182 -76.5t-250 -24.5q-79 0 -223 6t-246 14z M453 234q82 -4 214 -4q51 0 87.5 4t72 16.5t57.5 33.5t35.5 57.5t13.5 86.5q0 55 -15.5 94t-46 63t-72 34.5t-96.5 10.5h-250v-396zM453 854h259q96 0 143.5 43.5t47.5 138.5q0 49 -13 83.5t-33.5 54.5t-54.5 31.5t-67.5 14.5t-81.5 3q-99 0 -200 -6v-363z" />
<glyph unicode="C" horiz-adv-x="1202" d="M99 718q0 415 185 600q84 86 198.5 120.5t263.5 34.5q176 0 363 -37l-43 -240q-193 29 -294 29q-30 0 -54 -1t-59 -6.5t-63 -15.5t-58 -29t-52 -44q-54 -63 -76.5 -163t-22.5 -241q0 -242 68 -358q81 -137 284 -137q141 0 349 67l75 -224q-94 -43 -215 -69t-238 -26 q-328 0 -476 202q-135 186 -135 538z" />
<glyph unicode="D" horiz-adv-x="1412" d="M169 4v1429q257 38 455 38q128 0 229.5 -20.5t177.5 -62.5t129.5 -103t87 -145t48.5 -185t15 -227q0 -155 -23 -272t-74 -208t-134 -148.5t-202.5 -87.5t-280.5 -30q-212 0 -428 22zM453 234q63 -4 153 -4q83 0 145.5 11.5t109 37.5t77.5 63.5t50 94.5t27 125.5t8 160.5 q0 91 -8 159t-27 126t-50.5 97t-79 66t-112 39.5t-149.5 12.5q-70 0 -144 -6v-983z" />
<glyph unicode="E" horiz-adv-x="1141" d="M169 0v1451h883v-248h-599v-336h508v-248h-508v-371h599v-248h-883z" />
<glyph unicode="F" horiz-adv-x="1141" d="M169 0v1451h893v-248h-609v-360h512v-248h-512v-595h-284z" />
<glyph unicode="G" horiz-adv-x="1373" d="M106 720.5q0 415.5 187 599.5q88 85 209 119t274 34q184 0 418 -45l-31 -234q-197 31 -348 31q-108 0 -186 -21.5t-129 -77.5q-106 -118 -106 -401q0 -276 102 -396q81 -99 259 -99q114 0 206 26v503h285v-651q-106 -63 -244 -96.5t-286 -33.5q-134 0 -238 32t-181 107 q-191 188 -191 603.5z" />
<glyph unicode="H" horiz-adv-x="1470" d="M169 0v1451h284v-584h566v584h283v-1451h-283v619h-566v-619h-284z" />
<glyph unicode="I" horiz-adv-x="621" d="M169 0v1451h284v-1451h-284z" />
<glyph unicode="J" horiz-adv-x="959" d="M25 11l31 239q148 -24 239 -24q144 0 187 69q32 55 32 199v957h284v-978q0 -243 -84 -359q-56 -77 -143 -106.5t-215 -29.5q-158 0 -331 33z" />
<glyph unicode="K" horiz-adv-x="1317" d="M169 0v1451h284v-586q264 283 495 586h365q-282 -335 -608 -669q294 -383 651 -782h-399q-171 208 -457 606h-47v-606h-284z" />
<glyph unicode="L" horiz-adv-x="1083" d="M169 0v1451h284v-1203h590v-248h-874z" />
<glyph unicode="M" horiz-adv-x="1745" d="M138 0q22 706 64 1451h393l272 -892h12l273 892h391q43 -745 65 -1451h-290q-7 338 -39 1045h-11l-256 -817h-287l-259 817h-8q-32 -707 -39 -1045h-281z" />
<glyph unicode="N" horiz-adv-x="1533" d="M169 0v1451h385l516 -1045h14v1045h281v-1451h-385l-516 1045h-13v-1045h-282z" />
<glyph unicode="O" d="M101 725q0 184 34 320t108.5 233t197 146t294.5 49t294 -48.5t196 -146.5t108 -233.5t34 -319.5t-33.5 -319.5t-108 -233t-196.5 -146t-294 -48.5t-294.5 48.5t-197 146t-108.5 233t-34 319.5zM389 725q0 -63 3.5 -115t11.5 -100t21 -86t32 -70.5t45.5 -55.5t60.5 -40 t77 -24.5t95 -7.5q69 0 122 14t91 43.5t63.5 69.5t40.5 98.5t21 123.5t6 150q0 102 -9 177t-32 138.5t-61.5 102.5t-98.5 60.5t-143 21.5q-60 0 -107.5 -10.5t-83.5 -31t-62.5 -53t-44 -72t-28.5 -92.5t-15.5 -111t-4.5 -130z" />
<glyph unicode="P" horiz-adv-x="1285" d="M169 0v1442q272 31 463 31q72 0 132 -5.5t121.5 -19.5t110 -37t91 -59.5t71 -85.5t45 -116t16.5 -150q0 -112 -29.5 -199.5t-79.5 -144.5t-122 -94t-152 -52.5t-174 -15.5q-88 0 -209 15v-509h-284zM453 735q82 -10 140 -10q84 0 143 11.5t104.5 39.5t68 79t22.5 127 q0 60 -15 104t-39.5 70.5t-63.5 42t-81.5 21t-99.5 5.5q-75 0 -179 -8v-482z" />
<glyph unicode="Q" d="M101 723q0 185 34 321t108 233.5t196 146.5t294 49q171 0 293.5 -48.5t197 -144t109 -228t34.5 -311.5q0 -365 -148 -536q-76 -87 -181 -125t-238 -44v-6q215 -32 423 -118l-110 -236q-98 55 -243 121.5t-270 127.5t-211 118q-52 35 -90.5 70.5t-78 92t-64 124.5 t-40 168.5t-15.5 224.5zM389 725q0 -63 3.5 -115t11.5 -100t21 -86t32 -70.5t45.5 -55.5t60.5 -40t77 -24.5t95 -7.5q69 0 122 14t91 43.5t63.5 69.5t40.5 98.5t21 123.5t6 150q0 102 -9 177t-32 138.5t-61.5 102.5t-98.5 60.5t-143 21.5q-60 0 -107.5 -10.5t-83.5 -31 t-62.5 -53t-44 -72t-28.5 -92.5t-15.5 -111t-4.5 -130z" />
<glyph unicode="R" horiz-adv-x="1299" d="M169 0v1442q271 31 450 31q59 0 110.5 -4t104.5 -13.5t97 -26t85.5 -40t72.5 -58t54.5 -78.5t35.5 -101.5t12 -126.5q0 -325 -271 -428q110 -226 333 -597h-341q-136 256 -272 557q-106 0 -187 6v-563h-284zM453 784q74 -6 138 -6q51 0 90 4t83 18.5t72.5 39.5t47.5 70 t19 106q0 53 -14 91.5t-37 61t-60 35.5t-74 17t-88 4q-89 0 -177 -6v-435z" />
<glyph unicode="S" horiz-adv-x="1116" d="M67 1052q0 106 38.5 187.5t109 132t165.5 76t213 25.5q174 0 396 -43l-34 -239q-216 34 -347 34q-257 0 -257 -150q0 -19 4.5 -36t11 -30.5t20 -26.5t25.5 -22.5t33.5 -20.5t37.5 -18t44.5 -17t47 -16.5t53 -17.5t55.5 -19q46 -15 77 -26.5t74.5 -32.5t73 -42.5 t61.5 -54.5t51 -71t31.5 -90t12.5 -113q0 -112 -39.5 -197t-113 -138.5t-175.5 -80.5t-231 -27q-88 0 -208 10.5t-216 26.5l31 239q76 -11 182.5 -19.5t180.5 -8.5q159 0 233 46t74 136q0 31 -6.5 55t-27.5 44.5t-40 34.5t-63.5 32.5t-76 29.5t-99.5 34q-57 19 -95.5 33.5 t-84.5 36t-75.5 43t-60 52.5t-47.5 66t-28 81.5t-11 101.5z" />
<glyph unicode="T" horiz-adv-x="1166" d="M36 1203v248h1095v-248h-406v-1203h-284v1203h-405z" />
<glyph unicode="U" horiz-adv-x="1402" d="M135 491v960h284v-922q0 -162 64.5 -235t217.5 -73q154 0 218.5 73t64.5 235v922h284v-960q0 -134 -39 -233t-113.5 -160t-177.5 -90.5t-237 -29.5q-133 0 -236 29.5t-177.5 90.5t-113.5 160t-39 233z" />
<glyph unicode="V" horiz-adv-x="1305" d="M32 1451h299q150 -601 322 -1195h9q173 594 322 1195h291q-189 -730 -426 -1451h-391q-237 721 -426 1451z" />
<glyph unicode="W" horiz-adv-x="2010" d="M52 1451h297q38 -275 100.5 -596.5t129.5 -588.5h12q61 270 121.5 593.5t100.5 591.5h393q39 -268 99.5 -591.5t122.5 -593.5h12q66 267 128.5 588.5t101.5 596.5h290q-120 -744 -324 -1451h-404q-128 578 -222 1152h-8q-94 -574 -222 -1152h-404q-204 707 -324 1451z " />
<glyph unicode="X" horiz-adv-x="1373" d="M30 0q71 122 161.5 262t152.5 230t170 245q-267 388 -456 714h338q132 -248 296 -492q154 235 295 492h326q-200 -346 -453 -714q103 -147 168.5 -243.5t155 -233.5t161.5 -260h-335q-101 175 -327 520q-225 -345 -327 -520h-326z" />
<glyph unicode="Y" horiz-adv-x="1391" d="M50 1451h306q164 -378 340 -671h9q177 293 340 671h298q-220 -478 -505 -926v-525h-284v525q-284 448 -504 926z" />
<glyph unicode="Z" horiz-adv-x="1232" d="M122 0v207l656 996h-636v248h982v-208l-655 -995h668v-248h-1015z" />
<glyph unicode="[" horiz-adv-x="673" d="M162 -367v1818h478v-210h-230v-1398h230v-210h-478z" />
<glyph unicode="\" horiz-adv-x="888" d="M28 1451h228l606 -1451h-230z" />
<glyph unicode="]" horiz-adv-x="673" d="M34 -157h230v1398h-230v210h478v-1818h-478v210z" />
<glyph unicode="^" horiz-adv-x="1247" d="M144 543q176 267 266 379q22 27 38.5 45t37 35.5t40.5 27.5t44.5 16t53.5 6q67 0 113.5 -31t100.5 -99q86 -106 266 -379h-250q-55 79 -194 257q-19 25 -38.5 25t-38.5 -25q-128 -162 -194 -257h-245z" />
<glyph unicode="_" horiz-adv-x="1170" d="M-4 -241h1180v-135h-1180v135z" />
<glyph unicode="`" horiz-adv-x="742" d="M110 1386l206 157l189 -340l-113 -85z" />
<glyph unicode="a" horiz-adv-x="1056" d="M73 309q0 156 105.5 242.5t292.5 86.5q68 0 189 -8v53q0 46 -9 74t-33 44.5t-59 22t-93 5.5q-141 0 -292 -29l-34 225q72 16 171.5 27.5t182.5 11.5q79 0 143.5 -11t119 -36.5t91.5 -66t57.5 -101.5t20.5 -139v-710h-189l-30 77q-121 -99 -286 -99q-154 0 -251 89.5 t-97 241.5zM342 320q0 -61 36 -95t106 -34q46 0 95.5 14.5t80.5 35.5v202q-102 6 -146 6q-172 0 -172 -129z" />
<glyph unicode="b" horiz-adv-x="1101" d="M140 54v1397h266v-441q108 54 222 54q86 0 152.5 -24t111.5 -68.5t74 -112t42 -151t13 -188.5q0 -150 -26 -254.5t-80.5 -168t-131.5 -91.5t-186 -28q-105 0 -236 22.5t-221 53.5zM406 212q98 -14 159 -14q57 0 91.5 15t56 55t29.5 102t8 164q0 60 -3 99.5t-13.5 80 t-30 63.5t-53.5 37.5t-82 14.5q-71 0 -162 -25v-592z" />
<glyph unicode="c" horiz-adv-x="922" d="M73 512q0 111 17 197.5t53.5 154t94.5 111.5t139.5 66.5t187.5 22.5q134 0 275 -28l-25 -221q-154 19 -224 19q-75 0 -122 -15.5t-76 -53.5t-40 -96t-11 -151q0 -55 4.5 -96t18.5 -81.5t38 -66.5t65 -41.5t97 -15.5q116 0 258 49l69 -216q-80 -33 -179 -52.5t-191 -19.5 q-233 0 -341 134t-108 400z" />
<glyph unicode="d" horiz-adv-x="1103" d="M84 518q0 150 26.5 256t80 169.5t126.5 92t174 28.5q88 0 207 -26v413h267v-1451h-189l-28 69q-110 -91 -282 -91q-103 0 -177.5 37t-119 108.5t-65 169t-20.5 225.5zM354 507q0 -62 3.5 -103t14.5 -80.5t31 -62t54.5 -36t83.5 -13.5q86 0 157 27v590q-90 14 -160 14 q-45 0 -75.5 -10.5t-52.5 -33t-33.5 -62.5t-17 -94.5t-5.5 -135.5z" />
<glyph unicode="e" horiz-adv-x="1006" d="M69 527q0 93 15.5 172.5t49.5 147.5t84.5 115.5t124.5 74.5t166 27q203 0 312.5 -123t109.5 -346q0 -94 -17 -171h-570q13 -110 73.5 -161t165.5 -51q114 0 273 59l77 -206q-186 -87 -379 -87q-111 0 -200 34t-152.5 101t-98 172t-34.5 242zM342 630h327q-8 199 -164 199 q-152 0 -163 -199z" />
<glyph unicode="f" horiz-adv-x="749" d="M54 820v199l158 8v91q0 97 25.5 165.5t77 110t122.5 60.5t169 19q79 0 153 -7l-11 -230q-58 3 -138 3q-66 0 -99.5 -30.5t-33.5 -104.5v-63h221v-221h-221v-820h-265v820h-158z" />
<glyph unicode="g" horiz-adv-x="1103" d="M84 520q0 151 26 255.5t80.5 168t131.5 92t185 28.5q105 0 236 -23t222 -54v-1062q0 -81 -22.5 -143t-62 -102.5t-98 -66t-125 -35.5t-148.5 -10q-154 0 -320 30l32 226q145 -22 261 -22q38 0 66 3t58 12t49 25.5t31 45t12 67.5v86q-94 -63 -221 -63q-108 0 -184.5 36 t-122 107.5t-66 169t-20.5 229.5zM354 507q0 -62 3.5 -103t14.5 -80.5t31 -62t54.5 -36t83.5 -13.5q82 0 157 18v599q-90 14 -160 14q-45 0 -75.5 -10.5t-52.5 -33t-33.5 -62.5t-17 -94.5t-5.5 -135.5z" />
<glyph unicode="h" horiz-adv-x="1148" d="M140 0v1451h266v-455q125 68 269 68q88 0 155 -26.5t108 -75t62 -113t21 -144.5v-705h-266v669q0 80 -37 120t-118 40t-194 -38v-791h-266z" />
<glyph unicode="i" horiz-adv-x="544" d="M140 0v1041h266v-1041h-266zM140 1199v252h266v-252h-266z" />
<glyph unicode="j" horiz-adv-x="544" d="M30 -410q61 150 85.5 288t24.5 348v815h266v-811q0 -224 -32 -375.5t-106 -264.5h-238zM140 1199v252h266v-252h-266z" />
<glyph unicode="k" horiz-adv-x="1109" d="M140 0v1451h266v-851q223 246 374 441h333q-202 -231 -455 -484q95 -131 196 -253.5t261 -303.5h-349q-147 198 -302 426h-58v-426h-266z" />
<glyph unicode="l" horiz-adv-x="544" d="M140 0v1451h266v-1451h-266z" />
<glyph unicode="m" horiz-adv-x="1691" d="M140 0v1041h189l25 -76q61 43 130 71t161 28q166 0 260 -109q74 51 147.5 80t166.5 29q167 0 255.5 -97.5t88.5 -274.5v-692h-265v662q0 167 -156 167q-74 0 -166 -36q8 -57 8 -99v-694h-266v662q0 82 -36 124.5t-119 42.5q-70 0 -157 -31v-798h-266z" />
<glyph unicode="n" horiz-adv-x="1148" d="M140 0v1041h189l25 -76q143 99 319 99q71 0 128.5 -17.5t98 -48.5t68 -75.5t40.5 -97.5t13 -115v-710h-266v669q0 80 -37 120t-121 40q-78 0 -191 -38v-791h-266z" />
<glyph unicode="o" horiz-adv-x="1094" d="M73 520.5q0 128.5 25.5 226t80.5 170t147.5 110t221 37.5t221 -37.5t148 -110t81 -170t25.5 -226.5q0 -102 -16 -184.5t-51 -150t-90 -113t-135 -70t-183 -24.5q-129 0 -221.5 37.5t-147.5 109.5t-80.5 169.5t-25.5 226zM342 520.5q0 -57.5 4 -98.5t16.5 -83.5t34 -68 t60 -42t91.5 -16.5t91 16.5t60 42t34 68t15.5 83t3.5 98.5q0 41 -1.5 72t-7 64.5t-14.5 58t-24 47t-36.5 37t-52 22.5t-68.5 8q-53 0 -91.5 -16t-60 -42t-34 -68.5t-16.5 -83.5t-4 -98.5z" />
<glyph unicode="p" horiz-adv-x="1103" d="M140 -410v1451h189l27 -70q112 93 282 93q104 0 178.5 -37t119 -109.5t65 -169.5t20.5 -226q0 -150 -27 -255.5t-80.5 -168.5t-127 -91.5t-173.5 -28.5q-93 0 -207 24v-412h-266zM406 212q80 -14 155 -14q47 0 78 9.5t53.5 31t34.5 61.5t17.5 94t5.5 135q0 42 -1.5 73 t-6 64t-12.5 56t-21.5 45t-32.5 34.5t-46.5 20t-61.5 7.5q-63 0 -162 -23v-594z" />
<glyph unicode="q" horiz-adv-x="1103" d="M84 514q0 149 28 255t85 170.5t137.5 94.5t190.5 30q68 0 150 -11t156 -28.5t134 -37.5v-1397h-267v451q-94 -63 -218 -63q-102 0 -176.5 33t-123.5 100t-72.5 167t-23.5 236zM354 512q0 -43 1.5 -73.5t6 -64t12.5 -56t21.5 -44t32.5 -34.5t46 -20.5t62 -7.5q76 0 162 24 v593q-90 14 -162 14q-56 0 -90 -15t-55 -54t-29 -100.5t-8 -161.5z" />
<glyph unicode="r" horiz-adv-x="789" d="M140 0v1041h189l41 -136h6q33 58 76 93.5t93.5 50.5t114.5 15q46 0 103 -7l-8 -249q-87 12 -151 12q-124 0 -198 -52v-768h-266z" />
<glyph unicode="s" horiz-adv-x="920" d="M56 13l36 232q194 -33 318 -33q40 0 71 3.5t58.5 12.5t42.5 27t15 44q0 39 -44.5 59.5t-210.5 67.5q-140 39 -208.5 114t-68.5 197q0 70 23 125.5t63 92.5t96 62t119 36t134 11q141 0 311 -30l-29 -230q-169 25 -270 25q-176 0 -176 -74q0 -21 13.5 -37t42.5 -28.5 t57 -21t75 -21.5t78 -23q47 -16 82 -32t71.5 -41.5t59.5 -56.5t37.5 -76.5t14.5 -101.5q0 -74 -24.5 -132t-66 -96t-101 -63.5t-126.5 -36t-145 -10.5t-178 9.5t-170 25.5z" />
<glyph unicode="t" horiz-adv-x="785" d="M22 820v199l169 8l18 302h238v-288h258v-221h-258v-536q0 -38 18.5 -55t63.5 -17q55 0 127 31l85 -196q-127 -67 -272 -67q-139 0 -214 66.5t-75 205.5v568h-158z" />
<glyph unicode="u" horiz-adv-x="1146" d="M129 342v699h265v-663q0 -88 37 -127t126 -39q85 0 184 38v791h265v-1041h-189l-19 77q-144 -99 -327 -99q-91 0 -158 27.5t-106.5 77.5t-58.5 114.5t-19 144.5z" />
<glyph unicode="v" horiz-adv-x="1081" d="M45 1041h282q115 -548 209 -834h18q94 286 209 834h273q-131 -564 -303 -1041h-384q-173 477 -304 1041z" />
<glyph unicode="w" horiz-adv-x="1593" d="M50 1041h270q83 -589 149 -834h17q77 388 133 834h365q57 -446 134 -834h17q66 245 149 834h262q-79 -516 -235 -1041h-361q-109 552 -144 834h-17q-35 -282 -144 -834h-361q-156 525 -234 1041z" />
<glyph unicode="x" horiz-adv-x="1069" d="M45 0q206 325 349 527q-188 267 -342 514h281q101 -172 208 -327q99 144 207 327h271q-146 -233 -344 -514q154 -218 350 -527h-286q-118 198 -210 336q-81 -122 -209 -336h-275z" />
<glyph unicode="y" horiz-adv-x="1064" d="M50 1041h279q84 -437 191 -834h14q122 403 221 834h266q-95 -384 -209 -767.5t-224 -683.5h-255q120 336 142 410h-137q-158 474 -288 1041z" />
<glyph unicode="z" horiz-adv-x="925" d="M63 0v172l459 632h-447v237h770v-171l-460 -634h469v-236h-791z" />
<glyph unicode="{" horiz-adv-x="647" d="M47 546q74 73 103.5 141.5t29.5 170.5v327q0 53 15 96.5t43 74.5t65.5 54t85.5 36.5t99.5 20t111.5 6.5v-146q-29 -5 -48 -9.5t-37 -12t-29 -18t-20.5 -25.5t-14.5 -36t-7.5 -48.5t-2.5 -64.5v-275q0 -177 -155 -292q155 -116 155 -294v-274q0 -52 5.5 -86t15 -57 t30 -36.5t44 -21t64.5 -13.5v-147q-72 0 -132.5 9t-114.5 30.5t-91.5 54t-59.5 82t-22 112.5v327q0 102 -29.5 171t-103.5 143z" />
<glyph unicode="|" horiz-adv-x="666" d="M200 -410v1861h266v-1861h-266z" />
<glyph unicode="}" horiz-adv-x="647" d="M50 -236q39 6 63 13.5t44 21t30 36.5t15 57t5 86v274q0 177 156 294q-156 116 -156 292v275q0 52 -5 86t-14.5 56.5t-30 36.5t-44 21t-63.5 14v146q71 0 131.5 -9t114.5 -30.5t91.5 -54t59.5 -82t22 -112.5v-327q0 -69 13 -121.5t41.5 -97t78.5 -93.5 q-74 -74 -103.5 -143t-29.5 -171v-327q0 -63 -22 -112.5t-59.5 -82t-91.5 -54t-114.5 -30.5t-131.5 -9v147z" />
<glyph unicode="~" horiz-adv-x="1058" d="M144 656q0 27 14.5 59.5t39.5 61t64.5 47.5t83.5 19q77 0 206 -63q70 -34 101 -45.5t57 -11.5q71 0 110 79l94 -67q0 -28 -14.5 -60t-39.5 -60.5t-64.5 -47.5t-83.5 -19q-76 0 -205 62q-68 34 -100 45.5t-58 11.5q-72 0 -110 -79z" />
<glyph unicode="&#xa1;" horiz-adv-x="596" d="M146 -410l68 1055h169l68 -1055h-305zM169 780v261h259v-261h-259z" />
<glyph unicode="&#xa2;" horiz-adv-x="936" d="M73 512q0 237 82 370t264 167v217h221v-204q87 -7 200 -26l-25 -221q-154 19 -224 19q-75 0 -122 -15.5t-76 -53.5t-40 -96t-11 -151q0 -55 4.5 -96t18.5 -81.5t38 -66.5t65 -41.5t97 -15.5q116 0 258 49l69 -216q-115 -46 -252 -63v-215h-221v215q-179 27 -262.5 158.5 t-83.5 366.5z" />
<glyph unicode="&#xa3;" horiz-adv-x="1081" d="M103 0v202q86 34 138 98.5t52 152.5q0 54 -22 140h-168v200l104 9q-54 168 -54 275q0 184 129.5 290t368.5 106q175 0 365 -43l-32 -234q-5 0 -35.5 5t-40.5 6.5t-37.5 5.5t-44 5t-41.5 3.5t-49 3t-48 0.5q-36 0 -63.5 -2t-57.5 -8t-51 -18.5t-39 -31t-27 -47.5t-9 -66 q0 -93 43 -227h365v-232h-297q18 -90 18 -135q0 -119 -82 -210h553v-248h-938z" />
<glyph unicode="&#xa4;" horiz-adv-x="1215" d="M63 344l158 159q-61 98 -61 222q0 125 61 223l-158 159l165 166l159 -162q106 63 221.5 63t220.5 -63l160 162l165 -166l-158 -159q61 -98 61 -223q0 -124 -61 -222l158 -159l-165 -166l-160 162q-105 -63 -220.5 -63t-221.5 63l-159 -162zM367 725q0 -100 70.5 -169.5 t170.5 -69.5t170.5 69.5t70.5 169.5q0 65 -32 120.5t-87.5 87.5t-121.5 32q-100 0 -170.5 -70t-70.5 -170z" />
<glyph unicode="&#xa5;" horiz-adv-x="1305" d="M60 1451h312q157 -336 281 -534h9q124 198 282 534h302q-144 -312 -336 -649h219v-211h-334v-148h334v-211h-334v-232h-283v232h-334v211h334v148h-334v211h218q-187 327 -336 649z" />
<glyph unicode="&#xa6;" horiz-adv-x="666" d="M200 307h266v-717h-266v717zM200 735v716h266v-716h-266z" />
<glyph unicode="&#xa7;" horiz-adv-x="1161" d="M92 838q0 116 20 211t64 175t112 134.5t167 84.5t225 30q147 0 316 -33l-20 -232q-134 17 -258 17q-84 0 -141.5 -13.5t-99 -47t-64.5 -89t-32 -140.5q76 0 138 -5t124.5 -18.5t113 -36t97.5 -58.5t83 -84q66 -90 99.5 -218t33.5 -279q0 -116 -19.5 -211.5t-64 -175.5 t-112.5 -135t-167 -85.5t-225 -30.5q-141 0 -315 35l20 232q134 -18 254 -18q174 0 248 63.5t93 227.5q-71 0 -129.5 4t-122.5 17.5t-116 35t-101.5 58.5t-86.5 87q-65 84 -99.5 214t-34.5 284zM383 694q14 -116 56 -178q91 -138 339 -138q-15 114 -55 179q-85 137 -340 137 z" />
<glyph unicode="&#xa8;" horiz-adv-x="997" d="M180 1167v223h216v-223h-216zM602 1167v223h215v-223h-215z" />
<glyph unicode="&#xa9;" horiz-adv-x="1544" d="M63 725q0 361 181 554.5t528.5 193.5t529 -194t181.5 -554.5t-181.5 -553.5t-529 -193t-528.5 193t-181 554zM264 725q0 -560 508 -560q510 0 510 560q0 561 -510 561q-508 0 -508 -561zM437 725q0 410 361 410q97 0 216 -24l-23 -154q-97 17 -174 17q-58 0 -96.5 -16.5 t-60 -50t-30 -77t-8.5 -105.5q0 -248 169 -248q48 0 101 18.5t92 45.5l80 -129q-61 -43 -141 -70.5t-160 -27.5q-69 0 -124.5 21t-92.5 58.5t-62 90t-36 112.5t-11 129z" />
<glyph unicode="&#xaa;" horiz-adv-x="610" d="M47 1066q0 90 59 135t169 45q31 0 90 -7v18q0 38 -22 50.5t-70 12.5q-76 0 -170 -18l-26 144q36 12 98 19.5t109 7.5q59 0 103.5 -10t78.5 -32t52 -60.5t18 -93.5v-387h-117l-15 30q-61 -41 -150 -41q-55 0 -100.5 19t-76 62.5t-30.5 105.5zM223 1068q0 -56 65 -56 q46 0 77 18v88q-25 2 -70 2q-39 0 -55.5 -10.5t-16.5 -41.5z" />
<glyph unicode="&#xab;" horiz-adv-x="1067" d="M13 536q0 97 104 212q68 75 237 230l132 -135q-156 -153 -222 -230q-36 -42 -36 -75q0 -32 36 -74q66 -77 222 -230l-132 -139q-169 154 -237 229q-104 116 -104 212zM486 536q0 96 105 212q73 81 236 230l132 -135q-156 -153 -222 -230q-36 -42 -36 -75q0 -32 36 -74 q66 -77 222 -230l-132 -139q-163 148 -236 229q-105 117 -105 212z" />
<glyph unicode="&#xac;" horiz-adv-x="1324" d="M144 531v199h1036v-618h-221v419h-815z" />
<glyph unicode="&#xad;" horiz-adv-x="657" d="M77 462v200h504v-200h-504z" />
<glyph unicode="&#xae;" horiz-adv-x="970" d="M131 1098.5q0 180.5 90.5 277.5t264.5 97q173 0 263.5 -97t90.5 -277q0 -120 -40 -203t-119.5 -127t-194.5 -44q-174 0 -264.5 96.5t-90.5 277zM226 1099q0 -288 260 -288q133 0 197.5 71.5t64.5 216.5q0 97 -28.5 161.5t-86.5 97t-147 32.5q-260 0 -260 -291zM340 901 v404q77 8 135 8q37 0 65.5 -5.5t55 -19.5t41 -42.5t14.5 -69.5q0 -77 -68 -112q14 -31 92 -163h-127q-41 84 -66 146q-20 0 -35 2v-148h-107zM447 1124q13 -2 30 -2q66 0 66 54q0 47 -63 47q-20 0 -33 -2v-97z" />
<glyph unicode="&#xaf;" horiz-adv-x="828" d="M162 1196v162h505v-162h-505z" />
<glyph unicode="&#xb0;" horiz-adv-x="742" d="M73 1171.5q0 144.5 76.5 223t222.5 78.5t222.5 -78.5t76.5 -222.5q0 -96 -34 -163.5t-101 -103t-164 -35.5q-146 0 -222.5 78.5t-76.5 223zM248 1171.5q0 -69.5 26.5 -101.5t97.5 -32q36 0 60.5 8.5t38.5 26t19.5 41t5.5 58.5q0 69 -26.5 101t-97.5 32t-97.5 -32 t-26.5 -101.5z" />
<glyph unicode="&#xb1;" horiz-adv-x="1189" d="M144 0v198h901v-198h-901zM144 622v198h340v328h221v-328h340v-198h-340v-329h-221v329h-340z" />
<glyph unicode="&#xb2;" horiz-adv-x="801" d="M97 1412q55 28 124.5 44.5t134.5 16.5q131 0 212 -68t81 -184q0 -42 -10.5 -82t-31.5 -76.5t-44.5 -68t-56.5 -64.5t-61 -57t-64 -53h299v-160h-554v144q186 143 262 239.5t76 164.5q0 50 -34 76.5t-92 26.5q-40 0 -94.5 -12t-95.5 -29z" />
<glyph unicode="&#xb3;" horiz-adv-x="720" d="M92 680l32 158q107 -23 190 -23q71 0 105 22t34 75q0 44 -25 64t-77 20h-95v152h84q97 0 97 77q0 47 -30.5 66.5t-75.5 19.5q-40 0 -83.5 -12t-75.5 -33l-77 135q32 22 76 38.5t90 25t88 8.5q72 0 132.5 -24t100.5 -77t40 -126q0 -55 -21.5 -99t-54.5 -66 q44 -28 68 -70.5t24 -111.5q0 -128 -81 -188t-228 -60q-98 0 -237 29z" />
<glyph unicode="&#xb4;" horiz-adv-x="742" d="M239 1203l189 340l204 -157l-281 -268z" />
<glyph unicode="&#xb5;" horiz-adv-x="1146" d="M18 -410q59 144 85 294t26 342v815h265v-663q0 -88 37 -127t126 -39q85 0 184 38v791h265v-1041h-189l-19 77q-144 -99 -327 -99q-47 0 -88 7q-26 -232 -127 -395h-238z" />
<glyph unicode="&#xb6;" horiz-adv-x="1262" d="M122 1066q0 193 102 289t294 96h576v-1861h-240v1088h-151v-1088h-241v1090q-166 13 -253 110t-87 276z" />
<glyph unicode="&#xb7;" horiz-adv-x="520" d="M131 410v261h258v-261h-258z" />
<glyph unicode="&#xb8;" horiz-adv-x="574" d="M88 -419l26 103q31 -8 69 -8q51 0 80.5 19t29.5 55q0 35 -30 50t-110 15l23 99q73 0 123 -10.5t78.5 -32t40.5 -49.5t12 -67q0 -61 -30.5 -103.5t-81.5 -63t-118 -20.5q-61 0 -112 13z" />
<glyph unicode="&#xb9;" horiz-adv-x="729" d="M95 1341l219 110h168v-791h-185v600l-144 -52z" />
<glyph unicode="&#xba;" horiz-adv-x="643" d="M58 1176q0 69 13 121t43 93t82 62t126 21q60 0 105.5 -14.5t75 -39.5t48.5 -63t26.5 -81.5t7.5 -98.5q0 -71 -13 -123.5t-42.5 -93.5t-81.5 -61.5t-126 -20.5t-126 20.5t-82 61.5t-43 93.5t-13 123.5zM232 1175.5q0 -30.5 1 -47.5t5.5 -39t14 -33.5t27 -20t43 -8.5 t43 8.5t26.5 20t14 33.5t5.5 39t0.5 48q0 25 -0.5 39.5t-3 34t-8.5 30.5t-15.5 22t-25 15.5t-37.5 4.5q-25 0 -42.5 -8t-27 -19t-14 -33t-5.5 -39t-1 -47.5z" />
<glyph unicode="&#xbb;" horiz-adv-x="1067" d="M7 230q162 158 223 230q36 41 36 74t-36 74q-61 72 -223 230l133 140q163 -149 236 -230q104 -115 104 -212q0 -96 -104 -212q-73 -81 -236 -229zM480 230q162 158 223 230q36 41 36 74t-36 74q-61 72 -223 230l133 140q163 -149 236 -230q104 -115 104 -212 q0 -96 -104 -212q-73 -81 -236 -229z" />
<glyph unicode="&#xbc;" horiz-adv-x="1641" d="M95 1341l219 110h168v-791h-185v600l-144 -52zM217 0l905 1451h183l-907 -1451h-181zM851 138v130q111 208 297 523h187q-181 -307 -288 -498h154l22 133h160v-133h115v-155h-115v-138h-182v138h-350z" />
<glyph unicode="&#xbd;" horiz-adv-x="1709" d="M95 1341l219 110h168v-791h-185v600l-144 -52zM217 0l905 1451h183l-907 -1451h-181zM991 752q55 28 125 44.5t135 16.5q130 0 211 -68t81 -184q0 -49 -16.5 -98t-40.5 -88t-62.5 -80.5t-71 -70.5t-77.5 -64h300v-160h-554v144q185 143 261 239.5t76 164.5q0 50 -34 76.5 t-92 26.5q-27 0 -62.5 -6t-68.5 -15t-58 -20z" />
<glyph unicode="&#xbe;" horiz-adv-x="1741" d="M92 680l32 158q107 -23 190 -23q71 0 105 22t34 75q0 44 -25 64t-77 20h-95v152h84q97 0 97 77q0 47 -30.5 66.5t-75.5 19.5q-40 0 -83.5 -12t-75.5 -33l-77 135q32 22 76 38.5t90 25t88 8.5q72 0 132.5 -24t100.5 -77t40 -126q0 -55 -21.5 -99t-54.5 -66 q44 -28 68 -70.5t24 -111.5q0 -128 -81 -188t-228 -60q-98 0 -237 29zM318 0l905 1451h183l-906 -1451h-182zM953 138v130q100 189 298 523h187q-200 -338 -290 -498h154l22 133h161v-133h114v-155h-114v-138h-183v138h-349z" />
<glyph unicode="&#xbf;" horiz-adv-x="1008" d="M28 -50q0 39 7 75.5t16 64.5t28.5 58.5t33.5 49.5t41 47t41.5 41t45.5 41q48 43 70.5 67t40.5 58t23.5 70.5t7.5 99.5h239q0 -100 -8 -166.5t-29 -117t-48.5 -84.5t-74.5 -74q-40 -33 -61.5 -53.5t-44 -48.5t-31.5 -56.5t-9 -62.5q0 -72 45 -108t130 -36q72 0 159 24 t156 58l90 -217q-89 -49 -206 -80.5t-226 -31.5q-92 0 -171.5 25t-138.5 72t-92.5 120.5t-33.5 164.5zM367 780v261h259v-261h-259z" />
<glyph unicode="&#xc0;" horiz-adv-x="1333" d="M38 0q195 727 439 1451h379q249 -740 440 -1451h-290q-56 225 -80 307h-522q-32 -108 -82 -307h-284zM392 1791l205 158l189 -341l-113 -86zM471 554h387q-61 217 -189 640h-9q-128 -423 -189 -640z" />
<glyph unicode="&#xc1;" horiz-adv-x="1333" d="M38 0q195 727 439 1451h379q249 -740 440 -1451h-290q-56 225 -80 307h-522q-32 -108 -82 -307h-284zM471 554h387q-61 217 -189 640h-9q-128 -423 -189 -640zM536 1608l189 341l206 -158l-282 -269z" />
<glyph unicode="&#xc2;" horiz-adv-x="1333" d="M38 0q195 727 439 1451h379q249 -740 440 -1451h-290q-56 225 -80 307h-522q-32 -108 -82 -307h-284zM363 1597l209 260h189l210 -260l-99 -79l-205 191l-205 -191zM471 554h387q-61 217 -189 640h-9q-128 -423 -189 -640z" />
<glyph unicode="&#xc3;" horiz-adv-x="1333" d="M38 0q195 727 439 1451h379q249 -740 440 -1451h-290q-56 225 -80 307h-522q-32 -108 -82 -307h-284zM318 1649q47 96 90.5 140.5t109.5 44.5q43 0 99.5 -20t107.5 -40t81 -20q20 0 37 9t31.5 25t30.5 44l107 -70q-24 -49 -43 -79t-43 -56t-52.5 -38t-65.5 -12 q-46 0 -104 19.5t-108 39.5t-76 20q-28 0 -50 -19t-46 -57zM471 554h387q-61 217 -189 640h-9q-128 -423 -189 -640z" />
<glyph unicode="&#xc4;" horiz-adv-x="1333" d="M38 0q195 727 439 1451h379q249 -740 440 -1451h-290q-56 225 -80 307h-522q-32 -108 -82 -307h-284zM349 1573v222h216v-222h-216zM471 554h387q-61 217 -189 640h-9q-128 -423 -189 -640zM770 1573v222h217v-222h-217z" />
<glyph unicode="&#xc5;" horiz-adv-x="1333" d="M38 0q195 727 439 1451h379q249 -740 440 -1451h-290q-56 225 -80 307h-522q-32 -108 -82 -307h-284zM469 1748q0 95 51.5 146.5t146 51.5t146.5 -51.5t52 -146.5t-52 -146.5t-146.5 -51.5t-146 51.5t-51.5 146.5zM471 554h387q-61 217 -189 640h-9q-128 -423 -189 -640z M563 1748q0 -51 25.5 -80.5t78 -29.5t78 29.5t25.5 80.5t-25.5 81t-77.5 30q-22 0 -39 -5.5t-29 -15t-20 -23.5t-12 -30.5t-4 -36.5z" />
<glyph unicode="&#xc6;" horiz-adv-x="1821" d="M7 0q295 702 664 1451h1061v-248h-694l82 -336h522v-248h-462l90 -371h462v-248h-696l-75 307h-542l-122 -307h-290zM525 554h376l-129 527h-6q-132 -277 -241 -527z" />
<glyph unicode="&#xc7;" horiz-adv-x="1202" d="M99 718q0 415 185 600q84 86 198.5 120.5t263.5 34.5q176 0 363 -37l-43 -240q-193 29 -294 29q-30 0 -54 -1t-59 -6.5t-63 -15.5t-58 -29t-52 -44q-54 -63 -76.5 -163t-22.5 -241q0 -242 68 -358q81 -137 284 -137q141 0 349 67l75 -224q-94 -43 -215 -69t-238 -26 q-328 0 -476 202q-135 186 -135 538zM525 -419l27 103q31 -8 67 -8q26 0 46 4.5t35 14t22.5 23.5t7.5 32q0 35 -29.5 50t-109.5 15l22 99q72 0 122.5 -10.5t79 -32t40.5 -49.5t12 -67q0 -61 -30.5 -103.5t-81 -63t-117.5 -20.5q-63 0 -113 13z" />
<glyph unicode="&#xc8;" horiz-adv-x="1141" d="M169 0v1451h883v-248h-599v-336h508v-248h-508v-371h599v-248h-883zM336 1791l205 158l189 -341l-113 -86z" />
<glyph unicode="&#xc9;" horiz-adv-x="1141" d="M169 0v1451h883v-248h-599v-336h508v-248h-508v-371h599v-248h-883zM496 1608l189 341l205 -158l-282 -269z" />
<glyph unicode="&#xca;" horiz-adv-x="1141" d="M169 0v1451h883v-248h-599v-336h508v-248h-508v-371h599v-248h-883zM331 1597l210 260h189l209 -260l-99 -79l-204 191l-206 -191z" />
<glyph unicode="&#xcb;" horiz-adv-x="1141" d="M169 0v1451h883v-248h-599v-336h508v-248h-508v-371h599v-248h-883zM301 1573v222h217v-222h-217zM723 1573v222h216v-222h-216z" />
<glyph unicode="&#xcc;" horiz-adv-x="621" d="M45 1791l205 158l189 -341l-112 -86zM169 0v1451h284v-1451h-284z" />
<glyph unicode="&#xcd;" horiz-adv-x="621" d="M169 0v1451h284v-1451h-284zM180 1608l190 341l204 -158l-281 -269z" />
<glyph unicode="&#xce;" horiz-adv-x="621" d="M4 1597l210 260h190l209 -260l-99 -79l-205 191l-206 -191zM169 0v1451h284v-1451h-284z" />
<glyph unicode="&#xcf;" horiz-adv-x="621" d="M-7 1573v222h216v-222h-216zM169 0v1451h284v-1451h-284zM415 1573v222h215v-222h-215z" />
<glyph unicode="&#xd0;" horiz-adv-x="1412" d="M30 622v245h139v566q257 38 455 38q128 0 229.5 -20.5t177.5 -62.5t129.5 -103t87 -145t48.5 -185t15 -227q0 -155 -23 -272t-74 -208t-134 -148.5t-202.5 -87.5t-280.5 -30q-212 0 -428 22v618h-139zM453 234q63 -4 153 -4q83 0 145.5 11.5t109 37.5t77.5 63.5t50 94.5 t27 125.5t8 160.5q0 91 -8 159t-27 126t-50.5 97t-79 66t-112 39.5t-149.5 12.5q-70 0 -144 -6v-350h288v-245h-288v-388z" />
<glyph unicode="&#xd1;" horiz-adv-x="1533" d="M169 0v1451h385l516 -1045h14v1045h281v-1451h-385l-516 1045h-13v-1045h-282zM419 1649q47 96 90.5 140.5t109.5 44.5q43 0 99.5 -20t107.5 -40t82 -20q29 0 51 18.5t47 59.5l107 -70q-24 -49 -42.5 -79t-43 -56t-53 -38t-64.5 -12q-46 0 -104.5 19.5t-108.5 39.5 t-75 20q-29 0 -51 -19t-46 -57z" />
<glyph unicode="&#xd2;" d="M101 725q0 184 34 320t108.5 233t197 146t294.5 49t294 -48.5t196 -146.5t108 -233.5t34 -319.5t-33.5 -319.5t-108 -233t-196.5 -146t-294 -48.5t-294.5 48.5t-197 146t-108.5 233t-34 319.5zM389 725q0 -63 3.5 -115t11.5 -100t21 -86t32 -70.5t45.5 -55.5t60.5 -40 t77 -24.5t95 -7.5q69 0 122 14t91 43.5t63.5 69.5t40.5 98.5t21 123.5t6 150q0 102 -9 177t-32 138.5t-61.5 102.5t-98.5 60.5t-143 21.5q-60 0 -107.5 -10.5t-83.5 -31t-62.5 -53t-44 -72t-28.5 -92.5t-15.5 -111t-4.5 -130zM447 1791l204 158l189 -341l-112 -86z" />
<glyph unicode="&#xd3;" d="M101 725q0 184 34 320t108.5 233t197 146t294.5 49t294 -48.5t196 -146.5t108 -233.5t34 -319.5t-33.5 -319.5t-108 -233t-196.5 -146t-294 -48.5t-294.5 48.5t-197 146t-108.5 233t-34 319.5zM389 725q0 -63 3.5 -115t11.5 -100t21 -86t32 -70.5t45.5 -55.5t60.5 -40 t77 -24.5t95 -7.5q69 0 122 14t91 43.5t63.5 69.5t40.5 98.5t21 123.5t6 150q0 102 -9 177t-32 138.5t-61.5 102.5t-98.5 60.5t-143 21.5q-60 0 -107.5 -10.5t-83.5 -31t-62.5 -53t-44 -72t-28.5 -92.5t-15.5 -111t-4.5 -130zM608 1608l190 341l204 -158l-282 -269z" />
<glyph unicode="&#xd4;" d="M101 725q0 184 34 320t108.5 233t197 146t294.5 49t294 -48.5t196 -146.5t108 -233.5t34 -319.5t-33.5 -319.5t-108 -233t-196.5 -146t-294 -48.5t-294.5 48.5t-197 146t-108.5 233t-34 319.5zM389 725q0 -63 3.5 -115t11.5 -100t21 -86t32 -70.5t45.5 -55.5t60.5 -40 t77 -24.5t95 -7.5q69 0 122 14t91 43.5t63.5 69.5t40.5 98.5t21 123.5t6 150q0 102 -9 177t-32 138.5t-61.5 102.5t-98.5 60.5t-143 21.5q-60 0 -107.5 -10.5t-83.5 -31t-62.5 -53t-44 -72t-28.5 -92.5t-15.5 -111t-4.5 -130zM430 1597l210 260h189l209 -260l-99 -79 l-204 191l-206 -191z" />
<glyph unicode="&#xd5;" d="M101 725q0 184 34 320t108.5 233t197 146t294.5 49t294 -48.5t196 -146.5t108 -233.5t34 -319.5t-33.5 -319.5t-108 -233t-196.5 -146t-294 -48.5t-294.5 48.5t-197 146t-108.5 233t-34 319.5zM389 725q0 -63 3.5 -115t11.5 -100t21 -86t32 -70.5t45.5 -55.5t60.5 -40 t77 -24.5t95 -7.5q69 0 122 14t91 43.5t63.5 69.5t40.5 98.5t21 123.5t6 150q0 102 -9 177t-32 138.5t-61.5 102.5t-98.5 60.5t-143 21.5q-60 0 -107.5 -10.5t-83.5 -31t-62.5 -53t-44 -72t-28.5 -92.5t-15.5 -111t-4.5 -130zM392 1649q46 95 90.5 140t110.5 45q43 0 99 -20 t107.5 -40t81.5 -20q20 0 37 9t31 25t31 44l106 -70q-25 -49 -43.5 -79t-42.5 -56t-52 -38t-65 -12q-46 0 -104 19.5t-108 39.5t-76 20q-29 0 -50.5 -19t-46.5 -57z" />
<glyph unicode="&#xd6;" d="M101 725q0 184 34 320t108.5 233t197 146t294.5 49t294 -48.5t196 -146.5t108 -233.5t34 -319.5t-33.5 -319.5t-108 -233t-196.5 -146t-294 -48.5t-294.5 48.5t-197 146t-108.5 233t-34 319.5zM389 725q0 -63 3.5 -115t11.5 -100t21 -86t32 -70.5t45.5 -55.5t60.5 -40 t77 -24.5t95 -7.5q69 0 122 14t91 43.5t63.5 69.5t40.5 98.5t21 123.5t6 150q0 102 -9 177t-32 138.5t-61.5 102.5t-98.5 60.5t-143 21.5q-60 0 -107.5 -10.5t-83.5 -31t-62.5 -53t-44 -72t-28.5 -92.5t-15.5 -111t-4.5 -130zM419 1573v222h217v-222h-217zM840 1573v222h217 v-222h-217z" />
<glyph unicode="&#xd7;" horiz-adv-x="1175" d="M144 236l288 289l-288 288l155 156l289 -289l289 289l155 -156l-288 -288l288 -289l-155 -155l-289 289l-289 -289z" />
<glyph unicode="&#xd8;" d="M101 0l131 185q-131 179 -131 540q0 184 34 320t108.5 233t197 146t294.5 49q220 0 357 -80l41 58h234l-133 -187q133 -182 133 -539q0 -184 -33.5 -319.5t-108 -233t-196.5 -146t-294 -48.5q-219 0 -359 78l-40 -56h-235zM389 725q0 -177 30 -278l518 727 q-75 51 -202 51q-60 0 -107.5 -10.5t-83.5 -31t-62.5 -53t-44 -72t-28.5 -92.5t-15.5 -111t-4.5 -130zM531 275q72 -49 204 -49q69 0 122 14t91 43.5t63.5 69.5t40.5 98.5t21 123.5t6 150q0 164 -30 279z" />
<glyph unicode="&#xd9;" horiz-adv-x="1402" d="M135 491v960h284v-922q0 -162 64.5 -235t217.5 -73q154 0 218.5 73t64.5 235v922h284v-960q0 -134 -39 -233t-113.5 -160t-177.5 -90.5t-237 -29.5q-133 0 -236 29.5t-177.5 90.5t-113.5 160t-39 233zM419 1791l205 158l189 -341l-112 -86z" />
<glyph unicode="&#xda;" horiz-adv-x="1402" d="M135 491v960h284v-922q0 -162 64.5 -235t217.5 -73q154 0 218.5 73t64.5 235v922h284v-960q0 -134 -39 -233t-113.5 -160t-177.5 -90.5t-237 -29.5q-133 0 -236 29.5t-177.5 90.5t-113.5 160t-39 233zM581 1608l189 341l206 -158l-282 -269z" />
<glyph unicode="&#xdb;" horiz-adv-x="1402" d="M135 491v960h284v-922q0 -162 64.5 -235t217.5 -73q154 0 218.5 73t64.5 235v922h284v-960q0 -134 -39 -233t-113.5 -160t-177.5 -90.5t-237 -29.5q-133 0 -236 29.5t-177.5 90.5t-113.5 160t-39 233zM398 1597l210 260h190l208 -260l-98 -79l-205 191l-205 -191z" />
<glyph unicode="&#xdc;" horiz-adv-x="1402" d="M135 491v960h284v-922q0 -162 64.5 -235t217.5 -73q154 0 218.5 73t64.5 235v922h284v-960q0 -134 -39 -233t-113.5 -160t-177.5 -90.5t-237 -29.5q-133 0 -236 29.5t-177.5 90.5t-113.5 160t-39 233zM385 1573v222h217v-222h-217zM806 1573v222h217v-222h-217z" />
<glyph unicode="&#xdd;" horiz-adv-x="1391" d="M50 1451h306q164 -378 340 -671h9q177 293 340 671h298q-220 -478 -505 -926v-525h-284v525q-284 448 -504 926zM595 1608l189 341l205 -158l-282 -269z" />
<glyph unicode="&#xde;" horiz-adv-x="1285" d="M169 0v1451h284v-239q98 7 179 7q72 0 132 -5.5t121.5 -19.5t110 -37t91 -60t71 -85.5t45 -116t16.5 -149.5q0 -112 -29.5 -199.5t-79.5 -145t-122 -94.5t-152 -52.5t-174 -15.5q-88 0 -209 15v-254h-284zM453 480q73 -9 140 -9q84 0 143 11.5t104.5 39.5t68 79t22.5 127 q0 60 -15 104t-39.5 70.5t-64 42t-82 21t-100.5 5.5q-60 0 -177 -10v-481z" />
<glyph unicode="&#xdf;" horiz-adv-x="1279" d="M140 0v1023q0 99 28 179t87 141.5t158.5 95.5t233.5 34q74 0 138.5 -10t122.5 -32.5t99.5 -57t65.5 -86t24 -115.5q0 -152 -142 -271q-19 -16 -47 -36t-41.5 -30.5t-24 -26.5t-10.5 -32q0 -20 14.5 -35.5t34 -25t59.5 -29.5t70 -37q42 -25 73.5 -50.5t61.5 -62 t46.5 -84.5t16.5 -106q0 -74 -28.5 -140t-83.5 -117t-143.5 -81t-200.5 -30q-136 0 -272 31l42 234q108 -26 213 -26q46 0 83 7t64 22.5t41 40t14 57.5q0 17 -4.5 31.5t-10 25.5t-21 24t-26.5 21.5t-38.5 23.5t-45.5 24t-57 28l-6 3q-56 27 -92 58t-55.5 71.5t-19.5 91.5 q0 46 16.5 85t43.5 70t73 70q4 4 12 10q35 28 51 42.5t35.5 35.5t27 40t7.5 41q0 99 -180 99q-73 0 -121.5 -15t-74 -44.5t-35.5 -66t-10 -88.5v-1025h-266z" />
<glyph unicode="&#xe0;" horiz-adv-x="1056" d="M73 309q0 156 105.5 242.5t292.5 86.5q68 0 189 -8v53q0 46 -9 74t-33 44.5t-59 22t-93 5.5q-141 0 -292 -29l-34 225q72 16 171.5 27.5t182.5 11.5q79 0 143.5 -11t119 -36.5t91.5 -66t57.5 -101.5t20.5 -139v-710h-189l-30 77q-121 -99 -286 -99q-154 0 -251 89.5 t-97 241.5zM293 1386l205 157l190 -340l-114 -85zM342 320q0 -61 36 -95t106 -34q46 0 95.5 14.5t80.5 35.5v202q-102 6 -146 6q-172 0 -172 -129z" />
<glyph unicode="&#xe1;" horiz-adv-x="1056" d="M73 309q0 156 105.5 242.5t292.5 86.5q68 0 189 -8v53q0 46 -9 74t-33 44.5t-59 22t-93 5.5q-141 0 -292 -29l-34 225q72 16 171.5 27.5t182.5 11.5q79 0 143.5 -11t119 -36.5t91.5 -66t57.5 -101.5t20.5 -139v-710h-189l-30 77q-121 -99 -286 -99q-154 0 -251 89.5 t-97 241.5zM342 320q0 -61 36 -95t106 -34q46 0 95.5 14.5t80.5 35.5v202q-102 6 -146 6q-172 0 -172 -129zM410 1203l190 340l204 -157l-282 -268z" />
<glyph unicode="&#xe2;" horiz-adv-x="1056" d="M73 309q0 156 105.5 242.5t292.5 86.5q68 0 189 -8v53q0 46 -9 74t-33 44.5t-59 22t-93 5.5q-141 0 -292 -29l-34 225q72 16 171.5 27.5t182.5 11.5q79 0 143.5 -11t119 -36.5t91.5 -66t57.5 -101.5t20.5 -139v-710h-189l-30 77q-121 -99 -286 -99q-154 0 -251 89.5 t-97 241.5zM228 1191l209 260h189l210 -260l-99 -78l-206 192l-204 -192zM342 320q0 -61 36 -95t106 -34q46 0 95.5 14.5t80.5 35.5v202q-102 6 -146 6q-172 0 -172 -129z" />
<glyph unicode="&#xe3;" horiz-adv-x="1056" d="M73 309q0 156 105.5 242.5t292.5 86.5q68 0 189 -8v53q0 46 -9 74t-33 44.5t-59 22t-93 5.5q-141 0 -292 -29l-34 225q72 16 171.5 27.5t182.5 11.5q79 0 143.5 -11t119 -36.5t91.5 -66t57.5 -101.5t20.5 -139v-710h-189l-30 77q-121 -99 -286 -99q-154 0 -251 89.5 t-97 241.5zM172 1243q47 96 90.5 140.5t109.5 44.5q43 0 99 -19.5t107.5 -39t81.5 -19.5t52 17.5t47 58.5l106 -70q-20 -39 -34.5 -64.5t-33.5 -50.5t-38 -38.5t-43.5 -22t-53.5 -8.5q-46 0 -104 19.5t-108 39.5t-76 20q-20 0 -37 -10t-30.5 -25.5t-29.5 -41.5zM342 320 q0 -61 36 -95t106 -34q46 0 95.5 14.5t80.5 35.5v202q-102 6 -146 6q-172 0 -172 -129z" />
<glyph unicode="&#xe4;" horiz-adv-x="1056" d="M73 309q0 156 105.5 242.5t292.5 86.5q68 0 189 -8v53q0 46 -9 74t-33 44.5t-59 22t-93 5.5q-141 0 -292 -29l-34 225q72 16 171.5 27.5t182.5 11.5q79 0 143.5 -11t119 -36.5t91.5 -66t57.5 -101.5t20.5 -139v-710h-189l-30 77q-121 -99 -286 -99q-154 0 -251 89.5 t-97 241.5zM217 1167v223h215v-223h-215zM342 320q0 -61 36 -95t106 -34q46 0 95.5 14.5t80.5 35.5v202q-102 6 -146 6q-172 0 -172 -129zM638 1167v223h216v-223h-216z" />
<glyph unicode="&#xe5;" horiz-adv-x="1056" d="M73 309q0 156 105.5 242.5t292.5 86.5q68 0 189 -8v53q0 46 -9 74t-33 44.5t-59 22t-93 5.5q-141 0 -292 -29l-34 225q72 16 171.5 27.5t182.5 11.5q79 0 143.5 -11t119 -36.5t91.5 -66t57.5 -101.5t20.5 -139v-710h-189l-30 77q-121 -99 -286 -99q-154 0 -251 89.5 t-97 241.5zM316 1343q0 95 51.5 146.5t146.5 51.5t146.5 -51.5t51.5 -146.5t-52 -147t-146.5 -52t-146 52t-51.5 147zM342 320q0 -61 36 -95t106 -34q46 0 95.5 14.5t80.5 35.5v202q-102 6 -146 6q-172 0 -172 -129zM410 1343q0 -51 25.5 -81t78 -30t78 30t25.5 81 q0 33 -10.5 57.5t-34 38.5t-58.5 14q-27 0 -47 -8t-32.5 -22.5t-18.5 -34.5t-6 -45z" />
<glyph unicode="&#xe6;" horiz-adv-x="1567" d="M73 316q0 85 31.5 149.5t88.5 103t129.5 57.5t159.5 19q67 0 178 -13v28q0 64 -18.5 100.5t-60.5 52.5t-117 16q-42 0 -96.5 -4t-104.5 -10.5t-89 -14.5l-34 225q78 17 177.5 28t176.5 11q220 0 326 -103q46 47 124 75t169 28q186 0 288 -117.5t102 -318.5 q0 -114 -16 -204h-565q1 -116 53 -161.5t160 -45.5q125 0 286 47l62 -217q-51 -21 -113 -36.5t-127 -24t-125 -8.5q-225 0 -336 128q-142 -128 -335 -128q-78 0 -145 21.5t-118.5 62.5t-81 106t-29.5 148zM342 322q0 -62 40 -96.5t106 -34.5q51 0 109 20.5t95 54.5 q-22 66 -30 166q-66 15 -137 15q-31 0 -55 -3t-49 -11t-41.5 -21.5t-27 -36t-10.5 -53.5zM922 630h324q0 99 -37 147t-121 48q-59 0 -95.5 -23.5t-52.5 -65t-18 -106.5z" />
<glyph unicode="&#xe7;" horiz-adv-x="922" d="M73 512q0 111 17 197.5t53.5 154t94.5 111.5t139.5 66.5t187.5 22.5q134 0 275 -28l-25 -221q-154 19 -224 19q-75 0 -122 -15.5t-76 -53.5t-40 -96t-11 -151q0 -55 4.5 -96t18.5 -81.5t38 -66.5t65 -41.5t97 -15.5q116 0 258 49l69 -216q-80 -33 -179 -52.5t-191 -19.5 q-233 0 -341 134t-108 400zM361 -419l26 103q31 -8 68 -8q34 0 58.5 8t38 25t13.5 41q0 35 -29.5 50t-109.5 15l23 99q73 0 123 -10.5t78.5 -32t40.5 -49.5t12 -67q0 -61 -30.5 -103.5t-81.5 -63t-118 -20.5q-62 0 -112 13z" />
<glyph unicode="&#xe8;" horiz-adv-x="1006" d="M69 527q0 93 15.5 172.5t49.5 147.5t84.5 115.5t124.5 74.5t166 27q203 0 312.5 -123t109.5 -346q0 -94 -17 -171h-570q13 -110 73.5 -161t165.5 -51q114 0 273 59l77 -206q-186 -87 -379 -87q-111 0 -200 34t-152.5 101t-98 172t-34.5 242zM268 1386l205 157l189 -340 l-112 -85zM342 630h327q-8 199 -164 199q-152 0 -163 -199z" />
<glyph unicode="&#xe9;" horiz-adv-x="1006" d="M69 527q0 93 15.5 172.5t49.5 147.5t84.5 115.5t124.5 74.5t166 27q203 0 312.5 -123t109.5 -346q0 -94 -17 -171h-570q13 -110 73.5 -161t165.5 -51q114 0 273 59l77 -206q-186 -87 -379 -87q-111 0 -200 34t-152.5 101t-98 172t-34.5 242zM342 630h327q-8 199 -164 199 q-152 0 -163 -199zM394 1203l189 340l206 -157l-282 -268z" />
<glyph unicode="&#xea;" horiz-adv-x="1006" d="M69 527q0 93 15.5 172.5t49.5 147.5t84.5 115.5t124.5 74.5t166 27q203 0 312.5 -123t109.5 -346q0 -94 -17 -171h-570q13 -110 73.5 -161t165.5 -51q114 0 273 59l77 -206q-186 -87 -379 -87q-111 0 -200 34t-152.5 101t-98 172t-34.5 242zM221 1191l209 260h189 l210 -260l-99 -78l-205 192l-205 -192zM342 630h327q-8 199 -164 199q-152 0 -163 -199z" />
<glyph unicode="&#xeb;" horiz-adv-x="1006" d="M69 527q0 93 15.5 172.5t49.5 147.5t84.5 115.5t124.5 74.5t166 27q203 0 312.5 -123t109.5 -346q0 -94 -17 -171h-570q13 -110 73.5 -161t165.5 -51q114 0 273 59l77 -206q-186 -87 -379 -87q-111 0 -200 34t-152.5 101t-98 172t-34.5 242zM196 1167v223h216v-223h-216z M342 630h327q-8 199 -164 199q-152 0 -163 -199zM617 1167v223h217v-223h-217z" />
<glyph unicode="&#xec;" horiz-adv-x="544" d="M18 1386l205 157l189 -340l-113 -85zM140 0v1041h266v-1041h-266z" />
<glyph unicode="&#xed;" horiz-adv-x="544" d="M133 1203l189 340l205 -157l-282 -268zM140 0v1041h266v-1041h-266z" />
<glyph unicode="&#xee;" horiz-adv-x="544" d="M-32 1191l210 260h189l209 -260l-99 -78l-204 192l-206 -192zM140 0v1041h266v-1041h-266z" />
<glyph unicode="&#xef;" horiz-adv-x="544" d="M-45 1167v223h217v-223h-217zM140 0v1041h266v-1041h-266zM376 1167v223h217v-223h-217z" />
<glyph unicode="&#xf0;" horiz-adv-x="1098" d="M73 531q0 145 27.5 248.5t81.5 165.5t127 90.5t171 28.5q65 0 152 -15q-55 100 -110 165l-171 -107l-97 153l140 90q-23 20 -99 80l107 150q85 -41 181 -112l176 114l97 -154l-131 -83q102 -109 165 -225q69 -128 101 -280.5t32 -305.5q0 -136 -25 -236t-80.5 -173 t-148 -110t-221.5 -37q-131 0 -223.5 37t-147.5 110.5t-79.5 172.5t-24.5 233zM342 527q0 -60 4 -102.5t16 -85.5t34 -68.5t60 -42t92 -16.5q38 0 68.5 8.5t52 22.5t36.5 37t24 47.5t14.5 58t7 65t1.5 71.5q0 164 -32 298q-113 23 -189 23q-111 0 -150 -68.5t-39 -247.5z " />
<glyph unicode="&#xf1;" horiz-adv-x="1148" d="M140 0v1041h189l25 -76q143 99 319 99q71 0 128.5 -17.5t98 -48.5t68 -75.5t40.5 -97.5t13 -115v-710h-266v669q0 80 -37 120t-121 40q-78 0 -191 -38v-791h-266zM250 1243q46 95 90.5 140t110.5 45q43 0 99 -19.5t107.5 -39t81.5 -19.5t52 17.5t47 58.5l106 -70 q-20 -39 -34.5 -64.5t-33.5 -50.5t-37.5 -38.5t-43 -22t-54.5 -8.5q-46 0 -104 19.5t-108 39.5t-76 20q-19 0 -36.5 -10t-30.5 -25.5t-30 -41.5z" />
<glyph unicode="&#xf2;" horiz-adv-x="1094" d="M73 520.5q0 128.5 25.5 226t80.5 170t147.5 110t221 37.5t221 -37.5t148 -110t81 -170t25.5 -226.5q0 -102 -16 -184.5t-51 -150t-90 -113t-135 -70t-183 -24.5q-129 0 -221.5 37.5t-147.5 109.5t-80.5 169.5t-25.5 226zM279 1386l205 157l189 -340l-112 -85zM342 520.5 q0 -57.5 4 -98.5t16.5 -83.5t34 -68t60 -42t91.5 -16.5t91 16.5t60 42t34 68t15.5 83t3.5 98.5q0 41 -1.5 72t-7 64.5t-14.5 58t-24 47t-36.5 37t-52 22.5t-68.5 8q-53 0 -91.5 -16t-60 -42t-34 -68.5t-16.5 -83.5t-4 -98.5z" />
<glyph unicode="&#xf3;" horiz-adv-x="1094" d="M73 520.5q0 128.5 25.5 226t80.5 170t147.5 110t221 37.5t221 -37.5t148 -110t81 -170t25.5 -226.5q0 -102 -16 -184.5t-51 -150t-90 -113t-135 -70t-183 -24.5q-129 0 -221.5 37.5t-147.5 109.5t-80.5 169.5t-25.5 226zM342 520.5q0 -57.5 4 -98.5t16.5 -83.5t34 -68 t60 -42t91.5 -16.5t91 16.5t60 42t34 68t15.5 83t3.5 98.5q0 41 -1.5 72t-7 64.5t-14.5 58t-24 47t-36.5 37t-52 22.5t-68.5 8q-53 0 -91.5 -16t-60 -42t-34 -68.5t-16.5 -83.5t-4 -98.5zM432 1203l190 340l205 -157l-281 -268z" />
<glyph unicode="&#xf4;" horiz-adv-x="1094" d="M73 520.5q0 128.5 25.5 226t80.5 170t147.5 110t221 37.5t221 -37.5t148 -110t81 -170t25.5 -226.5q0 -102 -16 -184.5t-51 -150t-90 -113t-135 -70t-183 -24.5q-129 0 -221.5 37.5t-147.5 109.5t-80.5 169.5t-25.5 226zM243 1191l210 260h189l209 -260l-99 -78l-204 192 l-206 -192zM342 520.5q0 -57.5 4 -98.5t16.5 -83.5t34 -68t60 -42t91.5 -16.5t91 16.5t60 42t34 68t15.5 83t3.5 98.5q0 41 -1.5 72t-7 64.5t-14.5 58t-24 47t-36.5 37t-52 22.5t-68.5 8q-53 0 -91.5 -16t-60 -42t-34 -68.5t-16.5 -83.5t-4 -98.5z" />
<glyph unicode="&#xf5;" horiz-adv-x="1094" d="M73 520.5q0 128.5 25.5 226t80.5 170t147.5 110t221 37.5t221 -37.5t148 -110t81 -170t25.5 -226.5q0 -102 -16 -184.5t-51 -150t-90 -113t-135 -70t-183 -24.5q-129 0 -221.5 37.5t-147.5 109.5t-80.5 169.5t-25.5 226zM200 1243q47 95 91 140t111 45q42 0 98.5 -19.5 t107.5 -39t82 -19.5q29 0 51.5 17.5t47.5 58.5l105 -70q-24 -49 -42.5 -78.5t-42.5 -56t-52.5 -38t-64.5 -11.5q-46 0 -104.5 19.5t-108 39.5t-75.5 20q-20 0 -37 -10t-30.5 -25.5t-29.5 -41.5zM342 520.5q0 -57.5 4 -98.5t16.5 -83.5t34 -68t60 -42t91.5 -16.5t91 16.5 t60 42t34 68t15.5 83t3.5 98.5q0 41 -1.5 72t-7 64.5t-14.5 58t-24 47t-36.5 37t-52 22.5t-68.5 8q-53 0 -91.5 -16t-60 -42t-34 -68.5t-16.5 -83.5t-4 -98.5z" />
<glyph unicode="&#xf6;" horiz-adv-x="1094" d="M73 520.5q0 128.5 25.5 226t80.5 170t147.5 110t221 37.5t221 -37.5t148 -110t81 -170t25.5 -226.5q0 -102 -16 -184.5t-51 -150t-90 -113t-135 -70t-183 -24.5q-129 0 -221.5 37.5t-147.5 109.5t-80.5 169.5t-25.5 226zM232 1167v223h217v-223h-217zM342 520.5 q0 -57.5 4 -98.5t16.5 -83.5t34 -68t60 -42t91.5 -16.5t91 16.5t60 42t34 68t15.5 83t3.5 98.5q0 41 -1.5 72t-7 64.5t-14.5 58t-24 47t-36.5 37t-52 22.5t-68.5 8q-53 0 -91.5 -16t-60 -42t-34 -68.5t-16.5 -83.5t-4 -98.5zM653 1167v223h217v-223h-217z" />
<glyph unicode="&#xf7;" horiz-adv-x="1324" d="M144 421v198h1036v-198h-1036zM536 0v262h253v-262h-253zM536 780v261h253v-261h-253z" />
<glyph unicode="&#xf8;" horiz-adv-x="1094" d="M73 0l96 135q-96 132 -96 385q0 129 25.5 226.5t80.5 170t147.5 110t221.5 37.5q144 0 245 -50l20 27h210l-97 -138q97 -133 97 -383q0 -102 -16 -184.5t-51 -150t-90 -113t-135 -70t-183 -24.5q-148 0 -249 50l-17 -28h-209zM342 520q0 -70 7 -131l300 419 q-44 21 -101 21q-53 0 -91.5 -16t-60 -42t-34 -68.5t-16.5 -83.5t-4 -99zM447 230q36 -18 101 -18q53 0 91 16.5t60 42t34 68t15.5 83t3.5 98.5q0 78 -8 129z" />
<glyph unicode="&#xf9;" horiz-adv-x="1146" d="M129 342v699h265v-663q0 -88 37 -127t126 -39q85 0 184 38v791h265v-1041h-189l-19 77q-144 -99 -327 -99q-91 0 -158 27.5t-106.5 77.5t-58.5 114.5t-19 144.5zM304 1386l205 157l189 -340l-113 -85z" />
<glyph unicode="&#xfa;" horiz-adv-x="1146" d="M129 342v699h265v-663q0 -88 37 -127t126 -39q85 0 184 38v791h265v-1041h-189l-19 77q-144 -99 -327 -99q-91 0 -158 27.5t-106.5 77.5t-58.5 114.5t-19 144.5zM453 1203l189 340l205 -157l-282 -268z" />
<glyph unicode="&#xfb;" horiz-adv-x="1146" d="M129 342v699h265v-663q0 -88 37 -127t126 -39q85 0 184 38v791h265v-1041h-189l-19 77q-144 -99 -327 -99q-91 0 -158 27.5t-106.5 77.5t-58.5 114.5t-19 144.5zM275 1191l209 260h189l210 -260l-99 -78l-205 192l-205 -192z" />
<glyph unicode="&#xfc;" horiz-adv-x="1146" d="M129 342v699h265v-663q0 -88 37 -127t126 -39q85 0 184 38v791h265v-1041h-189l-19 77q-144 -99 -327 -99q-91 0 -158 27.5t-106.5 77.5t-58.5 114.5t-19 144.5zM252 1167v223h217v-223h-217zM673 1167v223h217v-223h-217z" />
<glyph unicode="&#xfd;" horiz-adv-x="1064" d="M50 1041h279q84 -437 191 -834h14q122 403 221 834h266q-95 -384 -209 -767.5t-224 -683.5h-255q120 336 142 410h-137q-158 474 -288 1041zM464 1203l189 340l205 -157l-282 -268z" />
<glyph unicode="&#xfe;" horiz-adv-x="1103" d="M140 -410v1861h266v-447q100 60 232 60q104 0 178.5 -37t119 -109.5t65 -169.5t20.5 -226q0 -150 -27 -255.5t-80.5 -168.5t-127 -91.5t-173.5 -28.5q-93 0 -207 24v-412h-266zM406 212q80 -14 155 -14q47 0 78 9.5t53.5 31t34.5 61.5t17.5 94t5.5 135q0 42 -1.5 73 t-6 64t-12.5 56t-21.5 45t-32.5 34.5t-46.5 20t-61.5 7.5q-63 0 -162 -23v-594z" />
<glyph unicode="&#xff;" horiz-adv-x="1064" d="M50 1041h279q84 -437 191 -834h14q122 403 221 834h266q-95 -384 -209 -767.5t-224 -683.5h-255q120 336 142 410h-137q-158 474 -288 1041zM234 1167v223h217v-223h-217zM656 1167v223h216v-223h-216z" />
<glyph unicode="&#x152;" horiz-adv-x="1871" d="M101 724.5q0 143.5 22.5 254.5t74 201.5t134.5 149t205.5 90t285.5 31.5h959v-248h-572v-336h482v-248h-482v-371h572v-248h-959q-163 0 -285.5 31.5t-205.5 89.5t-134.5 148.5t-74 201t-22.5 254zM389 725q0 -132 19.5 -219t67 -146.5t126.5 -85.5t200 -26h124v955h-124 q-121 0 -200 -26t-126.5 -86t-67 -147t-19.5 -219z" />
<glyph unicode="&#x153;" horiz-adv-x="1623" d="M73 520.5q0 128.5 24 226t76 170t140 110t209 37.5q204 0 321 -111q114 111 299 111q193 0 305 -121t112 -324q0 -105 -16 -195h-582q3 -49 15.5 -85t39 -64.5t73 -43t112.5 -14.5q118 0 286 49l65 -214q-80 -34 -180.5 -54t-197.5 -20q-212 0 -331 108 q-113 -108 -316 -108q-124 0 -212.5 37t-141 109.5t-76.5 170t-24 226zM342 520q0 -47 2.5 -82.5t9 -73t19 -63t32 -47t49.5 -32t68 -10.5q48 0 81.5 16.5t53 42t30.5 68t14.5 83.5t3.5 98.5t-3.5 98.5t-14.5 83.5t-30.5 68.5t-53 42t-81.5 16q-46 0 -79.5 -16t-52.5 -42 t-30 -68.5t-14.5 -83.5t-3.5 -99zM965 630h337q0 195 -162 195q-86 0 -125 -50.5t-50 -144.5z" />
<glyph unicode="&#x178;" horiz-adv-x="1391" d="M50 1451h306q164 -378 340 -671h9q177 293 340 671h298q-220 -478 -505 -926v-525h-284v525q-284 448 -504 926zM378 1573v222h217v-222h-217zM800 1573v222h216v-222h-216z" />
<glyph unicode="&#x17f;" horiz-adv-x="731" d="M54 820v199l158 8v91q0 97 25.5 165.5t77 110t122.5 60.5t169 19q79 0 153 -7l-11 -230q-58 3 -138 3q-66 0 -99.5 -30.5t-33.5 -104.5v-1104h-265v820h-158z" />
<glyph unicode="&#x2c6;" horiz-adv-x="1030" d="M212 1191l209 260h189l210 -260l-100 -78l-204 192l-205 -192z" />
<glyph unicode="&#x2dc;" horiz-adv-x="1040" d="M174 1243q47 96 90.5 140.5t109.5 44.5q43 0 99 -19.5t107.5 -39t81.5 -19.5t52 17.5t47 58.5l106 -70q-25 -49 -43 -78.5t-42.5 -56t-52.5 -38t-65 -11.5q-46 0 -104 19.5t-108 39.5t-76 20q-19 0 -36.5 -10t-30.5 -25.5t-30 -41.5z" />
<glyph unicode="&#x2000;" horiz-adv-x="974" />
<glyph unicode="&#x2001;" horiz-adv-x="1949" />
<glyph unicode="&#x2002;" horiz-adv-x="974" />
<glyph unicode="&#x2003;" horiz-adv-x="1949" />
<glyph unicode="&#x2004;" horiz-adv-x="649" />
<glyph unicode="&#x2005;" horiz-adv-x="487" />
<glyph unicode="&#x2006;" horiz-adv-x="324" />
<glyph unicode="&#x2007;" horiz-adv-x="324" />
<glyph unicode="&#x2008;" horiz-adv-x="243" />
<glyph unicode="&#x2009;" horiz-adv-x="389" />
<glyph unicode="&#x200a;" horiz-adv-x="108" />
<glyph unicode="&#x2010;" horiz-adv-x="647" d="M73 462v200h503v-200h-503z" />
<glyph unicode="&#x2011;" horiz-adv-x="647" d="M73 462v200h503v-200h-503z" />
<glyph unicode="&#x2012;" horiz-adv-x="647" d="M73 462v200h503v-200h-503z" />
<glyph unicode="&#x2013;" horiz-adv-x="1430" d="M144 466v192h1142v-192h-1142z" />
<glyph unicode="&#x2014;" horiz-adv-x="1617" d="M63 471v182h1491v-182h-1491z" />
<glyph unicode="&#x2018;" horiz-adv-x="495" d="M131 987q0 122 34.5 246.5t102.5 224.5l97 -12q-21 -128 -21 -257q0 -93 10 -193z" />
<glyph unicode="&#x2019;" horiz-adv-x="495" d="M131 998q20 122 20 257q0 104 -9 194l223 9q0 -123 -34.5 -247.5t-102.5 -223.5z" />
<glyph unicode="&#x201a;" horiz-adv-x="391" d="M73 221h247q-3 -319 -70 -483h-108q-67 161 -69 483z" />
<glyph unicode="&#x201c;" horiz-adv-x="819" d="M131 987q0 122 34.5 246.5t102.5 224.5l97 -12q-21 -128 -21 -257q0 -93 10 -193zM455 987q0 122 35 246.5t103 224.5l97 -12q-21 -128 -21 -257q0 -104 9 -193z" />
<glyph unicode="&#x201d;" horiz-adv-x="819" d="M131 998q20 122 20 257q0 104 -9 194l223 9q0 -123 -34.5 -247.5t-102.5 -223.5zM455 998q20 122 20 257q0 104 -9 194l224 9q0 -80 -14.5 -160.5t-46 -162.5t-77.5 -148z" />
<glyph unicode="&#x201e;" horiz-adv-x="742" d="M73 221h247q-3 -319 -70 -483h-108q-67 161 -69 483zM424 221h247q-3 -322 -69 -483h-108q-68 164 -70 483z" />
<glyph unicode="&#x2022;" horiz-adv-x="815" d="M144 734.5q0 127.5 66.5 193t197.5 65.5q263 0 263 -258q0 -128 -66 -194t-197 -66t-197.5 66t-66.5 193.5z" />
<glyph unicode="&#x2026;" horiz-adv-x="1488" d="M157 0v262h260v-262h-260zM615 0v262h259v-262h-259zM1072 0v262h259v-262h-259z" />
<glyph unicode="&#x202f;" horiz-adv-x="389" />
<glyph unicode="&#x2039;" horiz-adv-x="594" d="M50 543q0 96 103 212q74 81 236 229l133 -135q-162 -158 -223 -230q-35 -40 -35 -73q0 -35 35 -75q61 -72 223 -230l-133 -140q-162 149 -236 230q-103 115 -103 212z" />
<glyph unicode="&#x203a;" horiz-adv-x="594" d="M73 236q156 153 222 230q36 42 36 75q0 32 -36 74q-66 77 -222 230l132 139q162 -148 236 -229q105 -117 105 -212t-105 -212q-74 -81 -236 -230z" />
<glyph unicode="&#x2044;" horiz-adv-x="1047" d="M-28 0l907 1451h183l-907 -1451h-183z" />
<glyph unicode="&#x205f;" horiz-adv-x="487" />
<glyph unicode="&#x20ac;" horiz-adv-x="1355" d="M114 466v207h134q-4 57 0 113h-128v207h153q42 207 159 325q85 86 199.5 120.5t262.5 34.5q176 0 363 -37l-43 -240q-193 29 -292 29q-39 0 -70 -2.5t-73 -11.5t-79 -30t-64 -52q-46 -52 -71 -136h454v-207h-483q-4 -59 0 -113h483v-207h-456q13 -56 41 -103 q80 -137 284 -137q141 0 348 67l75 -220q-93 -43 -214.5 -69t-238.5 -26q-327 0 -475 202q-80 107 -115 286h-154z" />
<glyph unicode="&#x2122;" horiz-adv-x="1614" d="M38 1291v160h620v-160h-219v-646h-183v646h-218zM725 645l19 806h195l209 -432h6l209 432h196l18 -806h-184l-13 456h-2l-139 -295h-175l-140 295h-2l-12 -456h-185z" />
<glyph unicode="&#x25fc;" horiz-adv-x="1036" d="M0 0v1036h1036v-1036h-1036z" />
<glyph horiz-adv-x="1087" d="M28 0q157 582 344 1131h344q192 -565 346 -1131h-264q-7 27 -59 223h-395q-52 -196 -58 -223h-258zM408 447h267q-38 139 -129 449h-8q-92 -310 -130 -449z" />
<glyph horiz-adv-x="1049" d="M126 2v1113q58 9 128.5 16.5t143 12t127.5 4.5q45 0 86 -3t86.5 -12t83 -23.5t72.5 -38.5t59 -55t38.5 -76t14.5 -100q0 -95 -40.5 -155t-109.5 -85v-9q86 -27 127.5 -85t41.5 -166q0 -186 -119.5 -270.5t-357.5 -84.5q-69 0 -187.5 5t-193.5 12zM387 212q88 -3 144 -3 q37 0 62.5 2.5t50.5 10.5t40.5 22t24.5 38t9 58q0 71 -40 103t-119 32h-172v-263zM387 675h183q128 0 128 123q0 21 -3.5 38.5t-10.5 30t-16 22t-22 16t-25 10.5t-28.5 6t-30 2.5t-31.5 0.5q-73 0 -144 -7v-242z" />
<glyph horiz-adv-x="976" d="M77 559q0 345 162 486q67 58 155.5 80.5t202.5 22.5q138 0 293 -26l-39 -217q-142 19 -236 19q-70 0 -114 -11.5t-80 -45.5q-45 -46 -62 -120t-17 -186q0 -178 45 -254q61 -100 217 -100q114 0 263 45l66 -198q-75 -32 -170.5 -52t-192.5 -20q-262 0 -383 158 q-110 143 -110 419z" />
<glyph horiz-adv-x="1133" d="M126 4v1114q194 30 377 30q105 0 188 -16.5t144 -50.5t103 -81.5t67.5 -114t37 -143t11.5 -172.5q0 -119 -17.5 -209t-57.5 -163t-105.5 -119t-161.5 -70t-226 -24q-163 0 -360 19zM387 212q65 -3 97 -3q55 0 97.5 7t75 20t55 35t38 49t24 65t12 80t3.5 98q0 65 -5 112 t-17 89.5t-33.5 70.5t-55 49t-81 30.5t-111.5 9.5q-22 0 -99 -4v-708z" />
<glyph horiz-adv-x="916" d="M126 0v1131h723v-226h-462v-215h395v-226h-395v-238h462v-226h-723z" />
<glyph horiz-adv-x="925" d="M126 0v1131h732v-226h-471v-234h395v-222h-395v-449h-261z" />
<glyph horiz-adv-x="1105" d="M81 568q0 337 167 477q47 40 110 63.5t126 31.5t146 8q171 0 339 -30l-27 -217q-165 23 -286 23q-78 0 -132 -13.5t-92 -48.5q-83 -78 -83 -294q0 -212 75 -295q35 -38 86.5 -52t134.5 -14q43 0 107 10v383h262v-516q-85 -48 -199 -75t-236 -27q-224 0 -336 99 q-80 71 -121 195.5t-41 291.5z" />
<glyph horiz-adv-x="1182" d="M126 0v1131h261v-441h408v441h262v-1131h-262v464h-408v-464h-261z" />
<glyph horiz-adv-x="512" d="M126 0v1131h261v-1131h-261z" />
<glyph horiz-adv-x="789" d="M15 13l30 217q6 -1 34 -5.5t42 -6.5t39 -5.5t46.5 -4.5t43.5 -1q107 0 139 55q9 15 13 38.5t5 45t1 60.5v725h261v-746q0 -191 -65 -286q-44 -67 -115.5 -92t-177.5 -25q-134 0 -296 31z" />
<glyph horiz-adv-x="1069" d="M126 0v1131h261v-437q198 223 354 437h336q-207 -248 -471 -525q240 -309 507 -606h-367q-126 158 -327 447h-32v-447h-261z" />
<glyph horiz-adv-x="873" d="M126 0v1131h261v-905h456v-226h-717z" />
<glyph horiz-adv-x="1400" d="M101 0q15 493 52 1131h352l191 -658h9l191 658h352q31 -514 52 -1131h-268q-2 241 -26 748h-8l-173 -581h-257l-176 581h-7q-22 -477 -24 -748h-260z" />
<glyph horiz-adv-x="1232" d="M126 0v1131h347l363 -748h11v748h260v-1131h-348l-363 748h-11v-748h-259z" />
<glyph horiz-adv-x="1180" d="M79 565q0 114 16.5 203t53.5 162t96 120t145.5 72.5t200.5 25.5q95 0 171 -17t132 -52t96 -83.5t64.5 -115t35.5 -143.5t11 -172q0 -113 -16 -201.5t-53 -161.5t-95.5 -120.5t-145 -73.5t-200.5 -26q-95 0 -171 17.5t-132 52.5t-96.5 84t-65 115t-36 143t-11.5 171z M344 565q0 -51 2.5 -89.5t8.5 -77.5t17 -66.5t29.5 -52.5t44.5 -40t62 -23.5t83 -8.5q32 0 59.5 4t49.5 12t40 19t31.5 27.5t24 33.5t17.5 40.5t11.5 46.5t7 53t3.5 58.5t1 63.5q0 53 -2 91t-8.5 77.5t-17.5 67t-29 52.5t-44 39.5t-62 23t-82.5 8.5t-82.5 -8.5t-62 -23 t-44.5 -39.5t-29.5 -52.5t-17 -67t-8.5 -77.5t-2.5 -91z" />
<glyph horiz-adv-x="1042" d="M126 0v1124q206 24 379 24q58 0 106.5 -4t99 -15t90.5 -29t76 -47.5t60 -68.5t38 -94t14 -122q0 -73 -16 -133.5t-46 -104.5t-70.5 -76.5t-91.5 -52t-108 -29t-121 -9.5q-66 0 -149 11v-374h-261zM387 579q46 -7 93 -7q126 0 184.5 39t58.5 141q0 44 -11.5 76t-29.5 50 t-46.5 28.5t-56.5 14t-65 3.5q-31 0 -127 -7v-338z" />
<glyph horiz-adv-x="1178" d="M79 563q0 144 26 249t85 182.5t158 115.5t240 38t240.5 -38t158.5 -113.5t85.5 -177t26.5 -238.5q0 -280 -117 -409q-60 -68 -143.5 -98t-189.5 -33v-7q183 -23 340 -81l-97 -209q-61 31 -177.5 83.5t-216.5 101.5t-176 96q-44 29 -73.5 52.5t-64.5 67.5t-55.5 96 t-35 135t-14.5 187zM344 565q0 -51 2.5 -89.5t8.5 -77.5t17 -66.5t29.5 -52.5t44.5 -40t62 -23.5t83 -8.5q46 0 81.5 8.5t61 23.5t43.5 40t29 52t17.5 66.5t8.5 78t2 89.5q0 53 -2 91t-8.5 77.5t-17.5 67t-29 52.5t-43.5 39.5t-61 23t-81.5 8.5q-47 0 -83 -8.5t-62 -23 t-44.5 -39.5t-29.5 -52.5t-17 -67t-8.5 -77.5t-2.5 -91z" />
<glyph horiz-adv-x="1047" d="M126 0v1126q216 22 362 22q56 0 103 -3.5t97 -14t89.5 -27.5t75.5 -45t60 -65.5t38 -89.5t14 -117q0 -246 -197 -333q66 -135 255 -453h-311q-100 189 -200 417q-52 0 -125 4v-421h-261zM387 622q58 -7 116 -7q198 0 198 163q0 27 -6 49.5t-16 37.5t-25 26t-30.5 17.5 t-36.5 10t-39 4.5t-41 1q-43 0 -120 -4v-298z" />
<glyph horiz-adv-x="927" d="M65 811q0 86 31.5 151.5t90 106t136 60t173.5 19.5q129 0 321 -30l-31 -217q-170 23 -286 23q-25 0 -45 -1.5t-46 -7t-43 -15t-29.5 -27.5t-12.5 -44q0 -17 5 -30t20 -25.5t31 -22.5t49.5 -23t63.5 -23.5t86 -29.5q36 -12 57.5 -20t57 -24.5t58 -32.5t49 -42.5t42 -56.5 t26 -72t10.5 -91q0 -119 -57.5 -199.5t-157.5 -117.5t-240 -37q-164 0 -345 27l27 219q177 -21 288 -21q228 0 228 117q0 54 -46.5 81.5t-192.5 76.5q-46 15 -74.5 26t-66 28t-60.5 33.5t-47.5 41.5t-38 52.5t-22.5 65t-9 82.5z" />
<glyph horiz-adv-x="931" d="M22 905v226h888v-226h-313v-905h-261v905h-314z" />
<glyph horiz-adv-x="1112" d="M95 374v757h261v-714q0 -108 46 -159t154.5 -51t154.5 51t46 159v714h262v-757q0 -104 -34 -180.5t-96.5 -122t-145 -67.5t-187 -22t-187 22t-145 67.5t-96 122t-33.5 180.5z" />
<glyph horiz-adv-x="1062" d="M20 1131h275q124 -491 236 -897h7q118 415 240 897h265q-152 -586 -331 -1131h-361q-179 545 -331 1131z" />
<glyph horiz-adv-x="1614" d="M36 1131h275q26 -195 70 -442.5t88 -445.5h8q30 134 60 296.5t54.5 315t40.5 276.5h357q25 -190 68 -438.5t87 -449.5h10q44 198 88 445.5t69 442.5h269q-89 -563 -247 -1131h-366q-92 443 -156 854h-7q-67 -432 -155 -854h-367q-79 282 -140 566t-106 565z" />
<glyph horiz-adv-x="1107" d="M9 0q131 222 385 572q-206 295 -360 559h308q105 -194 217 -355q124 184 217 355h299q-175 -300 -361 -559q240 -331 385 -572h-306q-112 183 -243 381q-136 -202 -241 -381h-300z" />
<glyph horiz-adv-x="1152" d="M41 1131h279q125 -271 256 -489h7q136 225 257 489h273q-192 -390 -406 -721v-410h-260v410q-214 331 -406 721z" />
<glyph horiz-adv-x="999" d="M103 0v185l482 720h-475v226h795v-185l-481 -720h496v-226h-817z" />
<glyph horiz-adv-x="1087" d="M28 0q157 582 344 1131h344q192 -565 346 -1131h-264q-7 27 -59 223h-395q-52 -196 -58 -223h-258zM256 1475l206 159l189 -340l-113 -86zM408 447h267q-38 139 -129 449h-8q-92 -310 -130 -449z" />
<glyph horiz-adv-x="1087" d="M28 0q157 582 344 1131h344q192 -565 346 -1131h-264q-7 27 -59 223h-395q-52 -196 -58 -223h-258zM408 447h267q-38 139 -129 449h-8q-92 -310 -130 -449zM430 1294l189 340l206 -159l-282 -267z" />
<glyph horiz-adv-x="1087" d="M28 0q157 582 344 1131h344q192 -565 346 -1131h-264q-7 27 -59 223h-395q-52 -196 -58 -223h-258zM234 1282l209 259h189l211 -259l-99 -79l-206 192l-205 -192zM408 447h267q-38 139 -129 449h-8q-92 -310 -130 -449z" />
<glyph horiz-adv-x="1087" d="M28 0q157 582 344 1131h344q192 -565 346 -1131h-264q-7 27 -59 223h-395q-52 -196 -58 -223h-258zM191 1333q47 96 90.5 140.5t110.5 44.5q42 0 98.5 -19.5t107.5 -39t82 -19.5q29 0 52 18t48 58l106 -70q-25 -49 -43.5 -78.5t-42.5 -56t-52.5 -38t-64.5 -11.5 q-46 0 -104.5 19.5t-108.5 39.5t-76 20q-29 0 -50.5 -19t-46.5 -58zM408 447h267q-38 139 -129 449h-8q-92 -310 -130 -449z" />
<glyph horiz-adv-x="1087" d="M28 0q157 582 344 1131h344q192 -565 346 -1131h-264q-7 27 -59 223h-395q-52 -196 -58 -223h-258zM221 1257v224h216v-224h-216zM408 447h267q-38 139 -129 449h-8q-92 -310 -130 -449zM642 1257v224h216v-224h-216z" />
<glyph horiz-adv-x="1087" d="M28 0q157 582 344 1131h344q192 -565 346 -1131h-264q-7 27 -59 223h-395q-52 -196 -58 -223h-258zM340 1433q0 95 51.5 146.5t146.5 51.5t147 -51.5t52 -146.5t-52 -147t-147 -52t-146.5 52t-51.5 147zM408 447h267q-38 139 -129 449h-8q-92 -310 -130 -449zM434 1433 q0 -51 26 -81t78 -30t78 30t26 81q0 25 -6 45t-18.5 34.5t-32.5 22.5t-47 8q-52 0 -78 -29.5t-26 -80.5z" />
<glyph d="M0 0q248 562 538 1131h863v-223h-547l58 -218h421v-226h-362l65 -241h365v-223h-563l-60 223h-417q-26 -60 -93 -223h-268zM460 447h258l-90 342h-6q-74 -148 -162 -342z" />
<glyph horiz-adv-x="976" d="M77 559q0 345 162 486q67 58 155.5 80.5t202.5 22.5q138 0 293 -26l-39 -217q-142 19 -236 19q-70 0 -114 -11.5t-80 -45.5q-45 -46 -62 -120t-17 -186q0 -178 45 -254q61 -100 217 -100q114 0 263 45l66 -198q-75 -32 -170.5 -52t-192.5 -20q-262 0 -383 158 q-110 143 -110 419zM404 -419l26 103q31 -8 68 -8q52 0 81 19t29 55q0 35 -29.5 50t-109.5 15l22 99q72 0 122.5 -10.5t79 -32t41 -49.5t12.5 -67q0 -61 -30.5 -103.5t-81.5 -63t-118 -20.5q-62 0 -112 13z" />
<glyph horiz-adv-x="916" d="M126 0v1131h723v-226h-462v-215h395v-226h-395v-238h462v-226h-723zM196 1475l206 159l189 -340l-114 -86z" />
<glyph horiz-adv-x="916" d="M126 0v1131h723v-226h-462v-215h395v-226h-395v-238h462v-226h-723zM356 1294l190 340l204 -159l-281 -267z" />
<glyph horiz-adv-x="916" d="M126 0v1131h723v-226h-462v-215h395v-226h-395v-238h462v-226h-723zM189 1282l209 259h190l210 -259l-100 -79l-204 192l-206 -192z" />
<glyph horiz-adv-x="916" d="M126 0v1131h723v-226h-462v-215h395v-226h-395v-238h462v-226h-723zM165 1257v224h216v-224h-216zM585 1257v224h217v-224h-217z" />
<glyph horiz-adv-x="512" d="M2 1475l205 159l189 -340l-112 -86zM131 0v1131h261v-1131h-261z" />
<glyph horiz-adv-x="512" d="M112 1294l189 340l206 -159l-281 -267zM131 0v1131h261v-1131h-261z" />
<glyph horiz-adv-x="512" d="M-47 1282l209 259h189l210 -259l-99 -79l-206 192l-204 -192zM131 0v1131h261v-1131h-261z" />
<glyph horiz-adv-x="512" d="M-58 1257v224h215v-224h-215zM131 0v1131h261v-1131h-261zM363 1257v224h216v-224h-216z" />
<glyph horiz-adv-x="1232" d="M126 0v1131h347l363 -748h11v748h260v-1131h-348l-363 748h-11v-748h-259zM243 1333q47 96 90.5 140.5t109.5 44.5q43 0 99.5 -19.5t108 -39t82.5 -19.5q29 0 51.5 17.5t47.5 58.5l105 -70q-24 -49 -42.5 -78.5t-42.5 -56t-52.5 -38t-64.5 -11.5q-46 0 -104.5 19.5 t-108.5 39.5t-75 20q-20 0 -37.5 -10t-31 -26t-29.5 -41z" />
<glyph horiz-adv-x="1180" d="M79 565q0 114 16.5 203t53.5 162t96 120t145.5 72.5t200.5 25.5q95 0 171 -17t132 -52t96 -83.5t64.5 -115t35.5 -143.5t11 -172q0 -113 -16 -201.5t-53 -161.5t-95.5 -120.5t-145 -73.5t-200.5 -26q-95 0 -171 17.5t-132 52.5t-96.5 84t-65 115t-36 143t-11.5 171z M314 1475l204 159l189 -340l-112 -86zM344 565q0 -51 2.5 -89.5t8.5 -77.5t17 -66.5t29.5 -52.5t44.5 -40t62 -23.5t83 -8.5q32 0 59.5 4t49.5 12t40 19t31.5 27.5t24 33.5t17.5 40.5t11.5 46.5t7 53t3.5 58.5t1 63.5q0 53 -2 91t-8.5 77.5t-17.5 67t-29 52.5t-44 39.5 t-62 23t-82.5 8.5t-82.5 -8.5t-62 -23t-44.5 -39.5t-29.5 -52.5t-17 -67t-8.5 -77.5t-2.5 -91z" />
<glyph horiz-adv-x="1180" d="M79 565q0 114 16.5 203t53.5 162t96 120t145.5 72.5t200.5 25.5q95 0 171 -17t132 -52t96 -83.5t64.5 -115t35.5 -143.5t11 -172q0 -113 -16 -201.5t-53 -161.5t-95.5 -120.5t-145 -73.5t-200.5 -26q-95 0 -171 17.5t-132 52.5t-96.5 84t-65 115t-36 143t-11.5 171z M344 565q0 -51 2.5 -89.5t8.5 -77.5t17 -66.5t29.5 -52.5t44.5 -40t62 -23.5t83 -8.5q32 0 59.5 4t49.5 12t40 19t31.5 27.5t24 33.5t17.5 40.5t11.5 46.5t7 53t3.5 58.5t1 63.5q0 53 -2 91t-8.5 77.5t-17.5 67t-29 52.5t-44 39.5t-62 23t-82.5 8.5t-82.5 -8.5t-62 -23 t-44.5 -39.5t-29.5 -52.5t-17 -67t-8.5 -77.5t-2.5 -91zM451 1294l189 340l205 -159l-282 -267z" />
<glyph horiz-adv-x="1180" d="M79 565q0 114 16.5 203t53.5 162t96 120t145.5 72.5t200.5 25.5q95 0 171 -17t132 -52t96 -83.5t64.5 -115t35.5 -143.5t11 -172q0 -113 -16 -201.5t-53 -161.5t-95.5 -120.5t-145 -73.5t-200.5 -26q-95 0 -171 17.5t-132 52.5t-96.5 84t-65 115t-36 143t-11.5 171z M282 1282l209 259h189l210 -259l-99 -79l-206 192l-204 -192zM344 565q0 -51 2.5 -89.5t8.5 -77.5t17 -66.5t29.5 -52.5t44.5 -40t62 -23.5t83 -8.5q32 0 59.5 4t49.5 12t40 19t31.5 27.5t24 33.5t17.5 40.5t11.5 46.5t7 53t3.5 58.5t1 63.5q0 53 -2 91t-8.5 77.5t-17.5 67 t-29 52.5t-44 39.5t-62 23t-82.5 8.5t-82.5 -8.5t-62 -23t-44.5 -39.5t-29.5 -52.5t-17 -67t-8.5 -77.5t-2.5 -91z" />
<glyph horiz-adv-x="1180" d="M79 565q0 114 16.5 203t53.5 162t96 120t145.5 72.5t200.5 25.5q95 0 171 -17t132 -52t96 -83.5t64.5 -115t35.5 -143.5t11 -172q0 -113 -16 -201.5t-53 -161.5t-95.5 -120.5t-145 -73.5t-200.5 -26q-95 0 -171 17.5t-132 52.5t-96.5 84t-65 115t-36 143t-11.5 171z M232 1333q47 96 90.5 140.5t109.5 44.5q43 0 99.5 -19.5t107.5 -39t81 -19.5q21 0 37.5 8.5t31 24.5t31.5 43l106 -70q-24 -48 -42.5 -78t-43 -56.5t-53 -38t-64.5 -11.5q-46 0 -104.5 19.5t-108.5 39.5t-76 20q-28 0 -50 -19t-46 -58zM344 565q0 -51 2.5 -89.5t8.5 -77.5 t17 -66.5t29.5 -52.5t44.5 -40t62 -23.5t83 -8.5q32 0 59.5 4t49.5 12t40 19t31.5 27.5t24 33.5t17.5 40.5t11.5 46.5t7 53t3.5 58.5t1 63.5q0 53 -2 91t-8.5 77.5t-17.5 67t-29 52.5t-44 39.5t-62 23t-82.5 8.5t-82.5 -8.5t-62 -23t-44.5 -39.5t-29.5 -52.5t-17 -67 t-8.5 -77.5t-2.5 -91z" />
<glyph horiz-adv-x="1180" d="M79 565q0 114 16.5 203t53.5 162t96 120t145.5 72.5t200.5 25.5q95 0 171 -17t132 -52t96 -83.5t64.5 -115t35.5 -143.5t11 -172q0 -113 -16 -201.5t-53 -161.5t-95.5 -120.5t-145 -73.5t-200.5 -26q-95 0 -171 17.5t-132 52.5t-96.5 84t-65 115t-36 143t-11.5 171z M268 1257v224h216v-224h-216zM344 565q0 -51 2.5 -89.5t8.5 -77.5t17 -66.5t29.5 -52.5t44.5 -40t62 -23.5t83 -8.5q32 0 59.5 4t49.5 12t40 19t31.5 27.5t24 33.5t17.5 40.5t11.5 46.5t7 53t3.5 58.5t1 63.5q0 53 -2 91t-8.5 77.5t-17.5 67t-29 52.5t-44 39.5t-62 23 t-82.5 8.5t-82.5 -8.5t-62 -23t-44.5 -39.5t-29.5 -52.5t-17 -67t-8.5 -77.5t-2.5 -91zM690 1257v224h215v-224h-215z" />
<glyph horiz-adv-x="1180" d="M79 0l104 146q-104 137 -104 419q0 114 16.5 203t53.5 162t96 120t145.5 72.5t200.5 25.5q164 0 269 -51l26 34h213l-103 -144q105 -140 105 -422q0 -113 -16 -201.5t-53 -161.5t-95.5 -120.5t-145 -73.5t-200.5 -26q-168 0 -273 52l-25 -34h-214zM344 565 q0 -108 12 -176l362 510q-52 25 -127 25q-47 0 -83 -8.5t-62 -23t-44.5 -39.5t-29.5 -52.5t-17 -67t-8.5 -77.5t-2.5 -91zM458 232q49 -25 133 -25q32 0 59.5 4t49.5 12t40 19t31.5 27.5t24 33.5t17.5 40.5t11.5 46.5t7 53t3.5 58.5t1 63.5q0 119 -13 179z" />
<glyph horiz-adv-x="1511" d="M79 565q0 111 17.5 196.5t59 156.5t109.5 117t171.5 71t241.5 25h766v-226h-446v-215h378v-226h-378v-238h446v-226h-766q-99 0 -180 13t-143 37t-109 61t-78.5 83t-51.5 105t-28.5 123.5t-8.5 142.5zM344 565q0 -53 4 -93.5t13 -77t25 -62.5t39.5 -47t56.5 -33.5 t76.5 -19t99.5 -6.5h79v679h-79q-78 0 -132.5 -13t-90 -37.5t-55.5 -67t-28 -94.5t-8 -128z" />
<glyph horiz-adv-x="1769" d="M65 811q0 86 31.5 151.5t90 106t136 60t173.5 19.5q129 0 321 -30l-31 -217q-170 23 -286 23q-25 0 -45 -1.5t-46 -7t-43 -15t-29.5 -27.5t-12.5 -44q0 -17 5 -30t20 -25.5t31 -22.5t49.5 -23t63.5 -23.5t86 -29.5q36 -12 57.5 -20t57 -24.5t58 -32.5t49 -42.5t42 -56.5 t26 -72t10.5 -91q0 -119 -57.5 -199.5t-157.5 -117.5t-240 -37q-164 0 -345 27l27 219q177 -21 288 -21q228 0 228 117q0 54 -46.5 81.5t-192.5 76.5q-46 15 -74.5 26t-66 28t-60.5 33.5t-47.5 41.5t-38 52.5t-22.5 65t-9 82.5zM946 811q0 86 31.5 151.5t89.5 106t135.5 60 t173.5 19.5q130 0 322 -30l-30 -217q-171 23 -288 23q-20 0 -36.5 -1t-38.5 -4t-38 -9.5t-31 -16.5t-22.5 -26t-7.5 -38q0 -17 4.5 -30t19.5 -25.5t31 -22.5t49.5 -23t63.5 -23.5t86 -29.5q36 -12 57.5 -20t57 -24.5t57.5 -32.5t49 -42.5t42 -56.5t25.5 -72t10.5 -91 q0 -119 -57 -199.5t-157 -117.5t-240 -37q-165 0 -346 27l28 219q177 -21 288 -21q228 0 228 117q0 15 -2.5 27t-11 23t-16 18.5t-26 17.5t-31 16.5t-42.5 17.5t-49.5 17.5t-60.5 20.5q-46 15 -74.5 26t-66 28t-60.5 33.5t-47.5 41.5t-38 52.5t-22.5 65t-9 82.5z" />
<glyph horiz-adv-x="1112" d="M95 374v757h261v-714q0 -108 46 -159t154.5 -51t154.5 51t46 159v714h262v-757q0 -104 -34 -180.5t-96.5 -122t-145 -67.5t-187 -22t-187 22t-145 67.5t-96 122t-33.5 180.5zM271 1475l204 159l189 -340l-112 -86z" />
<glyph horiz-adv-x="1112" d="M95 374v757h261v-714q0 -108 46 -159t154.5 -51t154.5 51t46 159v714h262v-757q0 -104 -34 -180.5t-96.5 -122t-145 -67.5t-187 -22t-187 22t-145 67.5t-96 122t-33.5 180.5zM441 1294l189 340l206 -159l-282 -267z" />
<glyph horiz-adv-x="1112" d="M95 374v757h261v-714q0 -108 46 -159t154.5 -51t154.5 51t46 159v714h262v-757q0 -104 -34 -180.5t-96.5 -122t-145 -67.5t-187 -22t-187 22t-145 67.5t-96 122t-33.5 180.5zM248 1282l210 259h189l209 -259l-99 -79l-205 192l-206 -192z" />
<glyph horiz-adv-x="1112" d="M95 374v757h261v-714q0 -108 46 -159t154.5 -51t154.5 51t46 159v714h262v-757q0 -104 -34 -180.5t-96.5 -122t-145 -67.5t-187 -22t-187 22t-145 67.5t-96 122t-33.5 180.5zM236 1257v224h217v-224h-217zM658 1257v224h216v-224h-216z" />
<glyph horiz-adv-x="1152" d="M41 1131h279q125 -271 256 -489h7q136 225 257 489h273q-192 -390 -406 -721v-410h-260v410q-214 331 -406 721zM466 1294l190 340l204 -159l-281 -267z" />
<glyph horiz-adv-x="1152" d="M41 1131h279q125 -271 256 -489h7q136 225 257 489h273q-192 -390 -406 -721v-410h-260v410q-214 331 -406 721zM256 1212v224h217v-224h-217zM678 1212v224h216v-224h-216z" />
<glyph horiz-adv-x="1152" d="M22 466v222h124v430q194 30 376 30q127 0 221.5 -24.5t157.5 -70.5t102 -118.5t55.5 -160.5t16.5 -204q0 -119 -17.5 -209t-57.5 -163t-105.5 -119t-161.5 -70t-226 -24q-164 0 -361 19v462h-124zM408 212q64 -3 97 -3q64 0 111.5 8.5t81 28.5t55 47t34 69t17 89t4.5 112 t-4.5 112t-16.5 89.5t-33.5 70.5t-54.5 49t-80.5 30.5t-111.5 9.5q-22 0 -99 -4v-232h245v-222h-245v-254z" />
<glyph horiz-adv-x="1042" d="M126 0v1131h261v-176q43 2 118 2q58 0 106.5 -4t99 -15t90.5 -29t76 -47.5t60 -68.5t38 -94t14 -123q0 -87 -23 -156t-63.5 -114.5t-98 -75.5t-123.5 -43t-143 -13q-68 0 -151 11v-185h-261zM387 389q46 -6 95 -6q125 0 183 38t58 140q0 28 -4.5 51t-13 40t-19.5 30 t-26 22t-31 15.5t-35.5 9.5t-38.5 4.5t-41 1.5q-31 0 -127 -7v-339z" />
<glyph horiz-adv-x="544" d="M140 0v1041h266v-1041h-266zM140 1199v252h266v-252h-266z" />
<glyph horiz-adv-x="1159" d="M103 314q0 103 36 168t100 109v2q-55 34 -85 86.5t-30 138t32.5 149.5t92 103.5t140 58.5t181.5 19q119 0 292 -26l-22 -217q-140 19 -252 19q-42 0 -75 -5t-62.5 -17.5t-45.5 -38t-16 -61.5q0 -62 45.5 -86t126.5 -24h538v-223h-134v-140q0 -175 -106.5 -261t-329.5 -86 q-220 0 -323 82.5t-103 249.5zM370 342q0 -51 17 -80.5t53.5 -42t97.5 -12.5q53 0 87 9t52 29t24 45t6 64v115h-191q-77 0 -111.5 -28t-34.5 -99z" />
<glyph horiz-adv-x="647" d="M73 626v201h503v-201h-503z" />
<glyph horiz-adv-x="596" d="M146 0l68 1054h169l68 -1054h-305zM169 1189v262h259v-262h-259z" />
<glyph horiz-adv-x="1008" d="M28 361q0 39 7 75.5t16 64t28.5 58t33.5 50t41 47t41.5 41t45.5 40.5q48 44 70.5 67.5t40.5 57.5t23.5 70.5t7.5 99.5h239q0 -80 -6 -138.5t-17 -102t-31 -79t-44 -62.5t-62 -59q-40 -34 -61.5 -54.5t-44 -48.5t-31.5 -56.5t-9 -61.5q0 -73 45 -108.5t130 -35.5 q72 0 159 23.5t156 57.5l90 -217q-89 -49 -206 -80.5t-226 -31.5q-92 0 -171.5 25t-138.5 72.5t-92.5 120.5t-33.5 165zM367 1189v262h259v-262h-259z" />
<glyph horiz-adv-x="594" d="M50 725q0 97 103 212q74 81 236 230l133 -135q-162 -159 -223 -230q-35 -41 -35 -74q0 -34 35 -75q61 -71 223 -229l-133 -140q-162 148 -236 230q-103 115 -103 211z" />
<glyph horiz-adv-x="594" d="M73 419q156 152 222 230q36 42 36 74q0 33 -36 75q-66 77 -222 229l132 140q162 -149 236 -230q105 -116 105 -212q0 -95 -105 -211q-74 -82 -236 -230z" />
<glyph horiz-adv-x="1067" d="M50 718q0 97 103 213q74 81 236 229l133 -135q-162 -158 -223 -230q-35 -40 -35 -75q0 -33 35 -73q61 -72 223 -230l-133 -140q-162 149 -236 230q-103 115 -103 211zM522 718q0 97 104 213q74 81 236 229l134 -135q-163 -158 -224 -230q-35 -40 -35 -75q0 -33 35 -73 q61 -72 224 -230l-134 -140q-162 149 -236 230q-104 115 -104 211z" />
<glyph horiz-adv-x="1067" d="M73 412q156 153 222 230q36 42 36 74q0 33 -36 75q-66 77 -222 230l132 139q162 -148 236 -229q105 -117 105 -213q0 -94 -105 -211q-74 -81 -236 -230zM546 412q156 153 222 230q36 42 36 74q0 33 -36 75q-66 77 -222 230l132 139q162 -148 236 -229q105 -117 105 -213 q0 -94 -105 -211q-74 -81 -236 -230z" />
<glyph horiz-adv-x="1430" d="M144 630v193h1142v-193h-1142z" />
<glyph horiz-adv-x="1617" d="M63 636v181h1491v-181h-1491z" />
<glyph horiz-adv-x="520" d="M131 595v261h258v-261h-258z" />
<glyph horiz-adv-x="555" d="M92 718.5q0 228.5 41.5 405t120 306t201.5 238.5l54 -39q-97 -150 -142 -371t-45 -539.5t45 -539t142 -370.5l-54 -39q-123 109 -201.5 238t-120 305.5t-41.5 405z" />
<glyph horiz-adv-x="555" d="M47 -191q98 150 142.5 370.5t44.5 539t-44.5 539.5t-142.5 371l54 39q124 -109 202.5 -238.5t119.5 -306t41 -405t-41 -405t-119.5 -305.5t-202.5 -238z" />
<glyph horiz-adv-x="673" d="M162 -183v1819h478v-210h-230v-1398h230v-211h-478z" />
<glyph horiz-adv-x="673" d="M34 28h230v1398h-230v210h478v-1819h-478v211z" />
<glyph horiz-adv-x="647" d="M47 730q74 74 103.5 142.5t29.5 170.5v327q0 53 15 96t43 74.5t65.5 54.5t85.5 36.5t99.5 20t111.5 6.5v-147q-41 -6 -64.5 -13.5t-44 -21t-30 -36t-15 -56.5t-5.5 -86v-275q0 -177 -155 -293q155 -115 155 -293v-275q0 -52 5.5 -86t15 -56.5t30 -36.5t44 -21t64.5 -14 v-146q-60 0 -111.5 6.5t-99.5 20t-85.5 36.5t-65.5 54t-43 74.5t-15 96.5v327q0 102 -29.5 171t-103.5 142z" />
<glyph horiz-adv-x="647" d="M50 -52q40 7 63.5 14t44 20.5t30 36.5t14.5 57t5 86v275q0 177 156 293q-156 117 -156 293v275q0 52 -5 85.5t-14.5 56.5t-30 36.5t-44 21t-63.5 13.5v147q71 0 131.5 -9t114.5 -30.5t91.5 -54t59.5 -82t22 -112.5v-327q0 -102 29.5 -170.5t103.5 -142.5 q-50 -49 -78.5 -94t-41.5 -97.5t-13 -121.5v-327q0 -63 -22 -112.5t-59.5 -82.5t-91.5 -54t-114.5 -30t-131.5 -9v146z" />
<glyph horiz-adv-x="1380" d="M95 570q0 129 26.5 227.5t75 165t123 108t164 59.5t204.5 18q94 0 172.5 -12t146.5 -38.5t118.5 -70t87 -104.5t55 -143t18.5 -185q0 -175 -60 -263.5t-199 -88.5q-109 0 -180 54q-102 -54 -205 -54q-138 0 -197.5 82.5t-59.5 242.5q0 94 19 162.5t56 109.5t88 60.5 t119 19.5q75 0 157.5 -22t149.5 -60v-378q0 -52 56 -52q18 0 30.5 6.5t23 24t15.5 52t5 88.5q0 116 -24 195.5t-76.5 127.5t-128 68.5t-185.5 20.5t-185.5 -21t-128 -70t-77 -130.5t-24.5 -201.5q0 -81 11 -143.5t34 -110t56 -80t80 -52.5t104 -29t130 -9q148 0 288 30 l26 -152q-32 -9 -79.5 -17t-116 -14t-133.5 -6q-92 0 -168 13t-142 41t-115.5 74.5t-84.5 110.5t-52.5 151t-17.5 195zM581 576q0 -101 23 -136.5t86 -35.5q72 0 94 4q-4 22 -4 31v316q-37 8 -90 8q-41 0 -63.5 -14.5t-34 -55.5t-11.5 -117z" />
<glyph horiz-adv-x="1277" d="M75 563q0 101 24 190.5t71.5 161.5t114.5 124.5t158 80.5t197 28q132 0 239 -44t177.5 -122.5t108.5 -186t38 -234.5q0 -126 -38 -232.5t-108.5 -184.5t-177.5 -122t-239 -44q-106 0 -197 28.5t-158 81t-114.5 125t-71.5 161.5t-24 189zM344 563q0 -75 19 -138.5 t55.5 -111t93.5 -74.5t128 -27q95 0 162.5 46.5t99 124t31.5 178.5t-31.5 179.5t-99 126t-162.5 47.5t-163 -47t-100.5 -125t-32.5 -179z" />
<glyph horiz-adv-x="918" d="M47 931l415 200h228v-1131h-266v856l-291 -112z" />
<glyph horiz-adv-x="1053" d="M65 1066q84 38 192 60t212 22q100 0 183.5 -23t147 -69.5t98.5 -121t35 -171.5q0 -53 -11 -101.5t-30.5 -90t-50 -81t-65 -72.5t-79.5 -66t-90.5 -60.5t-101.5 -57.5h441v-234h-869v214q158 88 261 154t179.5 132t110.5 126t34 124q0 56 -25 92.5t-72 54t-114 17.5 q-138 0 -313 -67z" />
<glyph horiz-adv-x="1051" d="M54 1062q88 36 201 61t218 25q95 0 175.5 -22.5t143.5 -67t98.5 -117t35.5 -165.5q0 -100 -41.5 -177t-123.5 -122q101 -45 145 -121t44 -201q0 -437 -503 -437q-148 0 -374 39l30 223q174 -27 312 -27q50 0 87.5 4.5t72.5 17t57 34t35 57.5t13 85q0 96 -53.5 144.5 t-173.5 48.5h-152v226h161q100 0 147 37.5t47 129.5q0 95 -48 136t-150 41q-145 0 -334 -67z" />
<glyph horiz-adv-x="1189" d="M90 30v187q230 454 512 914h281q-307 -518 -494 -867h305l18 288h245v-288h210v-234h-210v-294h-265v294h-602z" />
<glyph horiz-adv-x="1092" d="M112 -245l32 225q182 -27 325 -27q53 0 92 4t79 17.5t65 37.5t40.5 66t15.5 100q0 111 -55 159t-181 48h-392l24 746h796v-235h-551l-10 -281h169q86 0 156 -14t129.5 -46t100 -81.5t63 -123.5t22.5 -170q0 -462 -544 -462q-140 0 -376 37z" />
<glyph horiz-adv-x="1168" d="M101 669q0 85 6.5 158.5t22.5 150t42.5 138.5t69.5 117.5t99.5 93t136 59.5t175.5 22q147 0 336 -43l-34 -223q-156 32 -270 32q-73 0 -127 -18t-88.5 -49t-55.5 -80.5t-30 -104t-12 -127.5q130 72 297 72q201 0 313 -114t112 -316q0 -146 -62 -250.5t-172.5 -156.5 t-259.5 -52q-112 0 -197.5 31t-142 88t-92.5 144t-51.5 191t-15.5 237zM372 593q4 -103 17.5 -171.5t41 -117t72 -70.5t110.5 -22q212 0 212 218q0 219 -210 219q-115 0 -243 -56z" />
<glyph horiz-adv-x="1038" d="M50 896v235h928v-198q-246 -653 -466 -1197h-278q276 656 469 1160h-653z" />
<glyph horiz-adv-x="1161" d="M88 381q0 259 228 337q-93 36 -149.5 112.5t-56.5 196.5q0 82 28 150t83.5 120t147.5 81.5t212 29.5t211.5 -29.5t146.5 -81.5t82.5 -120t27.5 -150q0 -51 -11 -96t-29.5 -78t-45 -59.5t-55 -44.5t-61.5 -31q228 -80 228 -337q0 -191 -124 -297t-370 -106t-369.5 106 t-123.5 297zM359 406q0 -194 222 -194q223 0 223 194q0 99 -57 149.5t-166 50.5t-165.5 -50.5t-56.5 -149.5zM381 1002q0 -93 51 -134t148.5 -41t148.5 41t51 134q0 91 -50.5 131.5t-149 40.5t-149 -41t-50.5 -131z" />
<glyph horiz-adv-x="1168" d="M75 690q0 146 61.5 250t172.5 156t261 52q112 0 197 -31t142 -88t92.5 -144t51 -191t15.5 -236q0 -59 -3 -111.5t-10 -108t-19 -104t-29 -96.5t-41 -88.5t-55 -77t-71.5 -64.5t-88 -48t-107.5 -31t-128 -11q-145 0 -338 43l36 224q156 -32 268 -32q73 0 126.5 17.5 t87.5 47.5t55.5 79t31 103t12.5 129q-135 -69 -297 -69q-198 0 -310.5 114t-112.5 316zM344 696q0 -219 210 -219q121 0 241 54q-2 82 -11 141.5t-26 107t-44.5 76t-66.5 43.5t-93 15q-210 0 -210 -218z" />
<glyph horiz-adv-x="1085" d="M103 346v190h95v64h-95v189h118q44 172 144 258q67 58 152.5 79.5t202.5 21.5q135 0 290 -26l-32 -217q-131 19 -234 19q-48 0 -79 -3.5t-61.5 -15.5t-53.5 -35q-34 -34 -54 -81h321v-189h-346v-64h346v-190h-319q13 -32 33 -56q57 -64 192 -64q21 0 45.5 2t44.5 4.5 t46.5 8t43.5 9t45 10t41 8.5l68 -216q-76 -31 -171 -50.5t-190 -19.5q-264 0 -387 158q-63 80 -90 206h-116z" />
<glyph horiz-adv-x="936" d="M67 804q0 137 74 219t205 110v183h249v-172q103 -7 205 -26l-30 -224q-180 26 -272 26q-24 0 -44 -1.5t-43.5 -7t-39.5 -15t-27 -26.5t-11 -41q0 -11 3 -21.5t7.5 -19t14 -17t17.5 -14.5t23.5 -13.5t26.5 -12.5t32 -12.5l35 -12.5t40 -14t42 -14q32 -12 55 -21t55 -25.5 t54.5 -33.5t47 -43t39.5 -56t25 -71t10 -88q0 -135 -71 -219.5t-196 -118.5v-185h-249v168q-104 2 -263 24l27 227q160 -24 277 -24q112 0 160 27.5t48 84.5q0 19 -4 33t-16.5 27t-26 22.5t-42.5 22.5t-55.5 23t-74.5 28q-31 11 -50.5 18.5t-47 19t-45 21t-39.5 23t-36 26.5 t-30 30.5t-25.5 36.5t-18 42t-12 49.5t-3.5 57.5z" />
<glyph horiz-adv-x="834" d="M65 0v187q66 22 106.5 67t40.5 107q0 34 -16 86h-129v183l73 8q-37 111 -37 191q0 149 103.5 234t307.5 85q134 0 292 -30l-26 -213q-143 19 -232 19q-100 0 -139 -26.5t-39 -84.5q0 -65 28 -153h280v-213h-216q9 -55 9 -86q0 -72 -45 -135h406v-226h-767z" />
<glyph horiz-adv-x="1071" d="M38 1131h291q116 -243 207 -383h10q91 140 206 383h282q-117 -246 -258 -489h155v-193h-264v-90h264v-194h-264v-165h-261v165h-264v194h264v90h-264v193h155q-141 243 -259 489z" />
<glyph horiz-adv-x="1389" d="M54 865q0 84 29 146.5t91.5 99.5t152.5 37q132 0 201 -77.5t69 -205.5q0 -129 -69 -207.5t-201 -78.5q-134 0 -203.5 78t-69.5 208zM243 867q0 -24 1.5 -41t6.5 -35.5t14 -29.5t24.5 -18.5t37.5 -7.5q26 0 43.5 10t25.5 30t11 41.5t3 50.5t-3 49.5t-11 39t-25.5 28 t-43.5 9.5q-27 0 -44.5 -9t-25.5 -28.5t-11 -39t-3 -49.5zM279 0l678 1131h154l-679 -1131h-153zM793 266q0 84 29 147.5t91 101t151 37.5q133 0 202 -78t69 -208q0 -129 -68.5 -206.5t-202.5 -77.5q-89 0 -151 37t-91 100t-29 147zM980 264q0 -29 3 -49.5t11.5 -39 t25.5 -28t44 -9.5q21 0 36.5 6.5t24.5 17t14 28t6 34t1 40.5q0 30 -2.5 50.5t-10.5 41t-25 30.5t-44 10q-26 0 -43.5 -10.5t-26 -30t-11.5 -41t-3 -50.5z" />
</font>
</defs>
</svg>
